<svg id="Lag_1" data-name="Lag 1" xmlns="http://www.w3.org/2000/svg" viewBox="0 0 221 221"><defs><style>.cls-1{opacity:0.29;}.cls-2,.cls-3{fill:none;stroke:#000;stroke-miterlimit:10;}.cls-2{stroke-width:7px;}.cls-3{stroke-width:4px;}</style></defs><title>calendar-icon</title><g id="Layer_1" data-name="Layer 1" class="cls-1"><circle class="cls-2" cx="111" cy="110" r="105.5"/></g><g id="Layer_5" data-name="Layer 5" class="cls-1"><path d="M66.68,44.43V61a11.75,11.75,0,0,0,2,6.9,9.49,9.49,0,0,0,6,3.87,10.05,10.05,0,0,0,12-6.63,13.62,13.62,0,0,0,.65-3.9c.07-5.54,0-11.08,0-16.7h52.75c0,.34,0,.7,0,1.07,0,5.87-.08,11.75,0,17.63a8,8,0,0,0,2,5,10.31,10.31,0,0,0,9.4,3.79,10,10,0,0,0,8.28-6.18,12,12,0,0,0,.77-4.39v-17h1.16c3.45,0,6.89-.1,10.33,0a14.17,14.17,0,0,1,8.67,3.46,15,15,0,0,1,3.78,4.54,13.26,13.26,0,0,1,1.83,6.25c-.08,12.43,0,24.87-.06,37.3q0,34.26.06,68.51a15.72,15.72,0,0,1-2.12,8.42,12.84,12.84,0,0,1-5,4.89,48.79,48.79,0,0,1-5.06,2,2.48,2.48,0,0,1-.89.14H49.73a12.81,12.81,0,0,1-8.48-3.1,15.35,15.35,0,0,1-5.11-9.27,13.26,13.26,0,0,1,0-2.52V59.74a16,16,0,0,1,3.3-10.09,12.91,12.91,0,0,1,8.18-5.06,15.59,15.59,0,0,1,2.64-.22H66.68Zm44.56,39.7H46.71c-.56,0-.84.2-.82.76v77.24a29.14,29.14,0,0,0,.47,4.56,4.74,4.74,0,0,0,4.25,3.44H172.08a4.56,4.56,0,0,0,.9-.14c2.21-.46,3.6-3,3.6-5.38v-79c0-1.52,0-1.52-1.6-1.52Z"/><path d="M157.12,48.76V62c0,1.42-2,4.16-3.42,4.74a7.36,7.36,0,0,1-6.22.16,5.86,5.86,0,0,1-3.64-4.1,18.84,18.84,0,0,1-.42-3.34c0-7.6-.06-15.21,0-22.81a6.55,6.55,0,0,1,5.16-6.42A6.92,6.92,0,0,1,157,34.9a2.59,2.59,0,0,1,.12.78Z"/><path d="M83.85,48.78c0,4.23.06,8.45,0,12.67,0,2.52-1.79,4.77-4.67,5.77a7,7,0,0,1-8.51-3.86,5.88,5.88,0,0,1-.41-2.23V36.4a6.56,6.56,0,0,1,6.4-6.21,7.59,7.59,0,0,1,4.69,1.33,5.86,5.86,0,0,1,2.52,4.6C83.91,40.34,83.85,44.56,83.85,48.78Z"/><path d="M66.67,125.45v5.87a2.19,2.19,0,0,1-2.16,2.2H53.06A2.23,2.23,0,0,1,50.61,131V119.84a2.2,2.2,0,0,1,2-2.32H64.42a2.13,2.13,0,0,1,2.26,2,2.26,2.26,0,0,1,0,.37C66.66,121.73,66.67,123.59,66.67,125.45Z"/><path d="M108.21,125.58v5.67a2.15,2.15,0,0,1-2,2.27H106c-3.79,0-7.58.09-11.36,0-1.6-.05-2.5-.68-2.49-2.48V119.79a2.1,2.1,0,0,1,1.94-2.25h11.94a2,2,0,0,1,2.16,1.82,1.77,1.77,0,0,1,0,.46Z"/><path d="M87.49,125.48v5.77a2.23,2.23,0,0,1-2.19,2.27h0c-3.82,0-7.64.08-11.45,0a2.21,2.21,0,0,1-2.45-1.94,2.25,2.25,0,0,1,0-.58c.1-3.75,0-7.49,0-11.24a2.09,2.09,0,0,1,1.88-2.28,2.54,2.54,0,0,1,.39,0H85.13a2.19,2.19,0,0,1,2.34,2,2.67,2.67,0,0,1,0,.4Z"/><path d="M108.21,105.08v5.58a2.15,2.15,0,0,1-1.83,2.43,2.68,2.68,0,0,1-.49,0q-5.67.06-11.36,0a2.2,2.2,0,0,1-2.36-2,1.93,1.93,0,0,1,0-.48c0-3.68.07-7.36,0-11a2.27,2.27,0,0,1,2.1-2.43,2,2,0,0,1,.35,0c3.75-.08,7.51-.07,11.26,0a2.2,2.2,0,0,1,2.4,2,2.81,2.81,0,0,1,0,.41A53.3,53.3,0,0,0,108.21,105.08Z"/><path d="M129.07,105.11v5.57a2.17,2.17,0,0,1-1.92,2.41,2,2,0,0,1-.42,0c-3.79.05-7.58.06-11.37,0A2.22,2.22,0,0,1,113,111a1.93,1.93,0,0,1,0-.34q.17-5.56,0-11.15a2.22,2.22,0,0,1,2-2.4,2.28,2.28,0,0,1,.37,0q5.63-.12,11.25,0a2.21,2.21,0,0,1,2.47,2.51C129,101.4,129.07,103.28,129.07,105.11Z"/><path d="M71.4,105.13c0-1.86.13-3.73,0-5.57a2.24,2.24,0,0,1,2-2.44,2.94,2.94,0,0,1,.42,0c3.75-.05,7.5,0,11.25,0A2.15,2.15,0,0,1,87.45,99a2.68,2.68,0,0,1,0,.49v11.14a2.14,2.14,0,0,1-1.81,2.43,2.08,2.08,0,0,1-.5,0H73.58A2.13,2.13,0,0,1,71.44,111v-.08C71.4,109,71.4,107.05,71.4,105.13Z"/><path d="M79.39,153.62h-6.2a1.67,1.67,0,0,1-1.74-1.6V139.86a2.06,2.06,0,0,1,2.12-2h12a2,2,0,0,1,1.91,2v11.75a1.75,1.75,0,0,1-2,2H79.39Z"/><path d="M100.23,153.61h-6c-1.25,0-2-.6-2-1.84V139.71a2.17,2.17,0,0,1,2.18-1.82h12a2.07,2.07,0,0,1,1.86,1.94V152a1.6,1.6,0,0,1-1.56,1.64h-6.43Z"/><path d="M58.64,153.62H52.45A1.73,1.73,0,0,1,50.61,152V139.84a2.11,2.11,0,0,1,2.16-2h12a2.13,2.13,0,0,1,1.91,2V151.7a1.69,1.69,0,0,1-1.42,1.92,1.46,1.46,0,0,1-.51,0H58.64Z"/><path d="M175.75,148.56c1.92-12.82-2.38-23.19-13-31l-1.61-1.21,3.31-6.53c1,.07,2.12.23,3.2.22,3.15,0,5.88-1.11,7.33-4s.69-5.69-1.23-8.14a34.4,34.4,0,0,0-3.29-3.21L168,93.5c-1.18-.21-2.36-.52-3.55-.61-3.54-.26-6.59.68-8.42,3.9-1.48,2.61-.68,6.16,1.85,9,.49.54,1,1.06,1.56,1.64l-3.27,6.46c-2.06-.53-4-1.14-5.95-1.51a32,32,0,0,0-32.56,13.8c-.28.35-.57.68-.88,1l-2,4a57.79,57.79,0,0,0-1.69,6.19c-2.18,13.53,2.55,24.23,13.9,32.15a.56.56,0,0,1,.26.34l5.77,2.82h0a57.09,57.09,0,0,0,6.21,1.45c13.5,1.67,24.23-2.88,32-14a11.75,11.75,0,0,1,.87-1l2-4A57.38,57.38,0,0,0,175.75,148.56ZM166.38,109l-.16-.38,2.15-2.39,3,1.47v.5Zm-7.49-3.66-2.41-4.4.39-.3,3,1.47-.59,3Zm3.35-5c-1.09.42-4.8-.58-5.24-1.55a2,2,0,0,1,.23-1.56,6.1,6.1,0,0,1,4.12-2.86c4.76-1.1,10.51,1.61,12.36,6.06a8.77,8.77,0,0,1,.41,4.28c-.24,1.89-1,2.11-2.71,1.27l-1-.5a3,3,0,0,1-2.13-2.43,4.43,4.43,0,0,0-5.52-2.94,4.65,4.65,0,0,0-.52.2Zm-31,68.93c-14.45-7-20.58-24.54-13.52-38.63a29.86,29.86,0,0,1,39.78-13.49,28.8,28.8,0,0,1,13.63,38.38c0,.12-.11.24-.17.36a30,30,0,0,1-39.74,13.35Z"/><path d="M133.41,164.08a8.68,8.68,0,0,1-4-11.61l0,0a9,9,0,0,1,12-4,8.72,8.72,0,0,1,4,11.69l-.06.13A9,9,0,0,1,133.41,164.08ZM130,152.52a8.22,8.22,0,0,0,3.59,11.06l.06,0a8.52,8.52,0,0,0,11.18-3.56,8.17,8.17,0,0,0-3.5-11A8.5,8.5,0,0,0,130,152.52Z"/><path d="M134.23,154.54c.71.16,2.07.4,3.39.77a1.37,1.37,0,0,1,.81.9,1.05,1.05,0,0,1-.54.91,1.47,1.47,0,0,1-1.22-.19C135.66,156,134.74,155.05,134.23,154.54Z"/><polygon points="143.16 144.97 144.32 137.88 154.43 122.73 148.15 139.71 143.16 144.97"/><ellipse cx="144.22" cy="142.86" rx="2.43" ry="2.39"/><polygon points="144.22 142.85 141.11 140.57 132.24 137.39 140.49 141.8 144.22 142.85"/><ellipse class="cls-3" cx="144.38" cy="143.12" rx="26.25" ry="25.75"/></g></svg>