<svg id="Lag_1" data-name="Lag 1" xmlns="http://www.w3.org/2000/svg" viewBox="0 0 221 221"><defs><style>.cls-1{opacity:0.29;}.cls-2{fill:none;stroke:#000;stroke-miterlimit:10;stroke-width:7px;}</style></defs><title>gallery-icon</title><g id="Layer_1" data-name="Layer 1" class="cls-1"><circle class="cls-2" cx="111" cy="110" r="105.5"/></g><g id="Layer_3" data-name="Layer 3" class="cls-1"><path d="M193.14,91.59c-.21-4-.4-8-.6-12-.14-2.69-.27-5.37-.41-8.06,0-.58-.08-1.17-.12-1.84h-1.93V63.8a1.68,1.68,0,0,0-1.35-1.91,6.25,6.25,0,0,0-1.61-.28c-1.18-.07-2.36-.07-3.54-.1h-.5v-3.9A1.8,1.8,0,0,0,183,57c-.45-.93-.91-1.86-1.38-2.82H158a10.73,10.73,0,0,1-.73,1.53v.11A21.24,21.24,0,0,1,155.93,58a.36.36,0,0,1-.07.17.38.38,0,0,1,0,.15.32.32,0,0,1-.34.28H102.15a.36.36,0,0,1-.2.06H85.42a.36.36,0,0,1-.44,0l-.38-.32H78.1a.29.29,0,0,1-.31,0h-.66a1.62,1.62,0,0,1,.48-.53.41.41,0,0,1,.12-.14,5.91,5.91,0,0,0,1.67-1.4h-.07a1.88,1.88,0,0,1,.12-.45l.06-.09H64.84v.07a3.39,3.39,0,0,1,.18.39v.17c-.71,0-1.41-.07-2.11-.12-.47,0-.94-.07-1.41-.08a1.34,1.34,0,0,1-1-.51A15.09,15.09,0,0,0,59,54.11a11.11,11.11,0,0,0-11-2,20.85,20.85,0,0,0-6.31,3.4,13.43,13.43,0,0,1-1.33.76v5.46H36.55l-.13.84a11.15,11.15,0,0,1-6.12,1.07,3.45,3.45,0,0,1-.22,1c-.16.24-.5.36-.8.56l.78.13c-.18,1.77-.36,3.5-.54,5.24l-.76.28V74c0,.48.13,1,.14,1.44l.26,17.16v1a.89.89,0,0,0,.06.42c.4.38.28.86.28,1.31q.06,25.78.1,51.56c0,3.38-.07,6.76-.1,10.14a10.63,10.63,0,0,0,.34,3.08,7.76,7.76,0,0,0,.63,1.45,1.13,1.13,0,0,0,1.14.55c1-.05,2.08-.11,3.11-.12H66.54l29.26-.09h10.32a14.45,14.45,0,0,1,2.53.38,37,37,0,0,0,5.14.65,3.56,3.56,0,0,1,.47.1h3.42c.71-.07,1.42-.13,2.12-.22,1-.11,1.9-.22,2.84-.39a25.45,25.45,0,0,1,3.9-.24l17.58-.23,6.72-.06,17.41-.21,11.48-.15,9-.11a2.14,2.14,0,0,0,2.38-1.87v0a13.36,13.36,0,0,0,.37-3.15V138.25c0-4.19.06-8.39.08-12.58s0-8.47,0-12.7q0-9.54.09-19.06v-.8l1.42-.09v-.73A5.53,5.53,0,0,1,193.14,91.59Zm-6.78-28.74a9.63,9.63,0,0,1,1.93.25c.4.07.51.23.51.64v5.62a1.67,1.67,0,0,1-.08.3H176.48A1.75,1.75,0,0,1,174.61,68v-.18c0-1.5.15-3,.25-4.51a2.52,2.52,0,0,1,.14-.54h2.54C180.46,62.83,183.41,62.82,186.36,62.85Zm-29-5.45c.26-.64.55-1.27.84-1.94h21.92a.88.88,0,0,1,.94.55,4.61,4.61,0,0,1,.69,3.09v2.37h-6.58a1.06,1.06,0,0,1-1-.44,4.2,4.2,0,0,0-1.84-1.26,18.22,18.22,0,0,0-4.61-1.09,71.36,71.36,0,0,0-8.89-.46h-1.46a.91.91,0,0,1,0-.82ZM44.63,55.12a14.91,14.91,0,0,1,6.25-2.29,9.57,9.57,0,0,1,7.94,2.83,2.43,2.43,0,0,1,.24.32l-14.74-.54C44.42,55.33,44.52,55.22,44.63,55.12ZM37.84,63h3.87V57.4a7,7,0,0,1,.8-.1h17c2.17,0,4.35.19,6.52.29h.37v.63H61.61a1.77,1.77,0,0,0-1.32.52,9.68,9.68,0,0,0-2.5,3.56,1,1,0,0,1-1,.7l-18,.38H38C37.74,63.38,37.77,63.29,37.84,63Zm-6.49,7.55c.17-1.72.34-3.39.52-5.14,8.42-.22,16.8-.38,25.3-.58-.07.66-.12,1.21-.18,1.75-.07.73-.15,1.46-.24,2.18a4.77,4.77,0,0,1-.17.65.61.61,0,0,1-.67.49c-.85,0-1.71.06-2.56.08l-16.78.49-4.63.11ZM62.69,91,32,91.44q-.13-9-.28-18h.77L42,73.15l13.73-.39H56a3.22,3.22,0,0,0,3.31-2.54,17.45,17.45,0,0,0,.62-4c0-.55.08-1.1.15-1.64a5.55,5.55,0,0,1,1.67-3.19,1.22,1.22,0,0,1,.71-.27h95.48c2.56,0,5.13.09,7.69.19a20.11,20.11,0,0,1,4.93.83,9.19,9.19,0,0,1,1,.36c.54.24.59.43.28,1.17a1.49,1.49,0,0,0-.18-.3,2.84,2.84,0,0,0-2.11-.95H64.91a5.61,5.61,0,0,0-1,.07,3.09,3.09,0,0,0-2.68,3.15V84.27a4.12,4.12,0,0,0,0,.86,3,3,0,0,0,3.11,2.54h2.93a1.56,1.56,0,0,1,.61.09H62.69Zm108.44-6.7v.37a1.68,1.68,0,0,1-1.59,1.7,4.45,4.45,0,0,1-.73,0h-44.7a1.71,1.71,0,0,1-1.19-.26h44a8.24,8.24,0,0,0,1.22-.08,2.55,2.55,0,0,0,2.17-2.44V66.33a3.36,3.36,0,0,0-.74-2.34.25.25,0,0,0-.06-.16,1.54,1.54,0,0,1,1.61,1.42,3.11,3.11,0,0,1,0,.61Zm-34.74,3.54h-1.54v2.62l-5.91-2.66A50.07,50.07,0,0,1,136.39,87.84Zm-38.71.06c-1.42-.09-2.84-.05-4.26-.07s-2.79,0-4.18,0v-.1h14.2c-1.83.93-3.72,1.69-5.66,2.53C97.64,89.45,97.78,88.7,97.68,87.9ZM64.87,86.39H64.2a1.68,1.68,0,0,1-1.62-1.54,3.75,3.75,0,0,1,0-.67v-18a6.73,6.73,0,0,1,.07-1,1.16,1.16,0,0,1,.86-1.05,4.58,4.58,0,0,0-.57,2.48v17a2.74,2.74,0,0,0,2.73,2.6h44.22v.11a6,6,0,0,1-.74.13h-.8Zm1.13-1a4,4,0,0,1-.49,0,1.9,1.9,0,0,1-1.78-1.77c0-.24,0-.49,0-.73V66.45a3.93,3.93,0,0,1,.11-1.08A1.74,1.74,0,0,1,65.36,64a6.17,6.17,0,0,1,.86,0h75.36V84.1c.5.14,26.7.18,27.45,0V64.94h.11c.08.11.21.22.23.35a5.48,5.48,0,0,1,.15,1.14V83.11a3.06,3.06,0,0,1-.14,1,1.75,1.75,0,0,1-1.49,1.28,4.45,4.45,0,0,1-.73,0Zm76.75-20.22c8.34-.17,16.7-.12,25.17-.1.06,6.11.15,12.09,0,18-.76.22-23.78.29-25.18.09-.1-.44-.12-17.32,0-18Zm-78,26.29H64V89.23a1.46,1.46,0,0,0,.5-.06c2.73,0,5.46-.08,8.19-.08H92.54c1.11,0,2.23,0,3.35.07h.51V90.7c0,.54-.26.62-.73.66h-.49Zm51.31,69.37a35.31,35.31,0,1,1,35.31-35.31v0a35.34,35.34,0,0,1-35.29,35.23Zm53.17-69.4H137.09c-1,0-1,0-1-1V89.15h33.16Zm20.33-1.12-8.92.19-9.34.21a2.86,2.86,0,0,0-.78.08V87.86h-8.11v-.15h6.74a3.21,3.21,0,0,0,2.2-.76,2.63,2.63,0,0,0,1-1.78V70.45c.59.58,1.08,1,1.51,1.49a1.57,1.57,0,0,0,1.3.55h14.13c.31,5.9.62,11.75.94,17.67-.21,0-.43.08-.65.1Z"/><path d="M115.63,101.21A25.73,25.73,0,1,1,89.86,126.9h0a25.7,25.7,0,0,1,25.72-25.68Zm-18,25.48a18.5,18.5,0,1,0,18.52-18.49,18.5,18.5,0,0,0-18.52,18.49v0Z"/><path d="M98.88,66.57V82.75c-1,.24-31.86.31-33.06.07V66.61C66.24,66.48,97.9,66.43,98.88,66.57Z"/><path d="M103.16,64.51c11.79-.11,23.53-.15,35.26,0,.13.49.16,19.22,0,20h-35.3Zm1.5,18.41h31.63a2.69,2.69,0,0,0,.69-.06V66H110.63c-1.77,0-3.55,0-5.32.06a2.46,2.46,0,0,0-.65.06Z"/><path d="M143.58,82.27V66.64c1.12-.21,22.73-.24,23.85,0v15.6C166.73,82.4,144.87,82.47,143.58,82.27ZM157.82,73A3.83,3.83,0,1,0,154,76.81h0A3.82,3.82,0,0,0,157.82,73Z"/><path d="M132.16,126.4a16.57,16.57,0,1,1,0-.05Zm-27.23-1.05a10.72,10.72,0,1,0,10.86-10.58h-.13A10.72,10.72,0,0,0,104.93,125.35Z"/><path d="M114,72.1a45,45,0,0,1,0,5.69h-7.36V72.17C109.11,72,111.54,72.06,114,72.1Z"/></g></svg>