<svg id="logo-img" data-name="logo-img" xmlns="http://www.w3.org/2000/svg" viewBox="0 0 221 221"><defs><style>.cls-1{fill:none;stroke:white;stroke-miterlimit:10;stroke-width:7px;}</style></defs><title>2logo</title><path style="fill: white" d="M177.43,190.71a12.81,12.81,0,0,1,1.64-1.32,1.33,1.33,0,0,1,1.37-.14c.55-.51,1.12-1,1.7-1.51,1.32-1.51,2.38-3.25,3.8-4.66a55,55,0,0,1,5.13-4.24c0-.05.06-.1.1-.15,1.3-1.71,2.89-3.27,4.08-5.06a17.36,17.36,0,0,1,2.12-3,36.35,36.35,0,0,0-9-20.43c-3.21-3.58-6.67-6.92-10-10.45a3.93,3.93,0,0,1-1-2.36c-.1-4.27,0-8.54-.1-12.8a6.3,6.3,0,0,0-1.21-3.43c-2.44-3.12-4.6-3.64-8.37-2.27-2.55.93-5.07,1.94-7.69,2.94.43-8.27.71-16.35-4-23.56l32.68-34.37c-4-6.06-7.72-11.63-11.31-17.31a90.25,90.25,0,0,0-28.57-28.68,22.38,22.38,0,0,0-9.07-3.58,1.86,1.86,0,0,0-2,.86c-5.76,7.16-11.43,14.39-17.35,21.41-4.25,5-8.84,9.82-13.43,14.87-4.48-4.84-10-6.58-16.22-6.61a9.1,9.1,0,0,1-6.52-3,13.81,13.81,0,0,0-2.69-2.12,11.46,11.46,0,0,0-2.35-.82C76.79,45.18,85.41,56.07,92,58.53c-.51.34-.93.64-1.37.92L78.47,67.17c-1.55,1-2.77,2.23-2.53,4.24.3,2.59-.84,4.31-2.89,5.79-4.82,3.5-9.56,7.11-14.28,10.73-1.66,1.28-1.76,2.63-.65,4.39,1.48,2.36,3.78,3.57,6.27,4.5,1.21.45,2.44.81,3.71,1.23-.85,4.27-2.28,8-5.66,10.85a21.13,21.13,0,0,0-3.1,3.37c-.81,1-1.19,2.38-.19,3.47,1.61,1.76,3.37,3.37,5.09,5,.31.3.69.55,1.33,1-6.95,0-13.51,0-20.06,0a2.74,2.74,0,0,1-1.22-.39c-2.77-1.54-5.55-3-8.25-4.69-2-1.23-3.06-1.29-4.87.24-1.5,1.27-2.9,2.68-4.47,3.86a4.72,4.72,0,0,1-2.6,1l-18,0a1.65,1.65,0,0,1,0,1.44q29,0,57.89,0a15.77,15.77,0,0,1,7.2,1.49c5.67,2.75,11.84,3.34,18,3.57.91,0,1.83,0,3.1,0l-1.51,1.95-2.69-.12c-1.28-.06-2.57-.17-3.86-.18q-18.71-.15-37.4-.28-17.22-.1-34.45-.17c-1.82,0-3.63,0-5.45-.06.37,1.5.69,3,1.13,4.49a1.47,1.47,0,0,1,.07.34,72,72,0,0,1,13.39,2.6c2.6.78,5.2,1.61,7.73,2.61a9.82,9.82,0,0,1,2.93,2,4.59,4.59,0,0,1,1.1,5.41A10.87,10.87,0,0,1,32,149.37q-5.58,7.49-11.19,14.95a.9.9,0,0,1,.12.24A43.68,43.68,0,0,0,24,170,27.68,27.68,0,0,0,28,175a1.66,1.66,0,0,1,.22.32q1.86-1.26,3.63-2.69a6.75,6.75,0,0,1,1.26-.77c2.36-1.18,3.92-.7,5.11,1.7.56,1.11.84,2.36,1.33,3.51a66.38,66.38,0,0,0,3.72,8.33,15,15,0,0,0,4.34,4.11,5.09,5.09,0,0,0,3.1.52,1.53,1.53,0,0,0,1.37-2.12,17.18,17.18,0,0,0-1.93-4A30.47,30.47,0,0,1,45,170.92a8.49,8.49,0,0,1,5.53,3.92,80.28,80.28,0,0,1,4,8.72c.94,2.26,1.56,4.66,2.52,6.91.9,2.1,2,2.57,4.29,1.92-.78-3-1.47-6-2.37-8.94a69.3,69.3,0,0,0-8.36-17.54,6.83,6.83,0,0,1-1.27-2.79c-.08-.73.63-1.54,1-2.32.66.35,1.65.53,1.91,1.07.92,1.84,1.57,3.82,2.34,5.73a61.79,61.79,0,0,0,2.87,6.92,5.12,5.12,0,0,0,4.7,3.06,2,2,0,0,0,1.49-.71,1.79,1.79,0,0,0-.32-1.62c-2.16-2.17-2.78-4.93-3-7.78-.41-4.62-.65-9.26-.92-13.9a12.07,12.07,0,0,1,.18-2.61A5.77,5.77,0,0,1,65,145.72c1.9-.23,3.83-.2,5.72-.47a29.81,29.81,0,0,0,4.93-1.12c1.6-.52,3.12-1.29,5.11-2.14.77,2.45,1.54,4.93,2.37,7.6a15.51,15.51,0,0,1-1.58,0c-3.93-.49-6.39.84-8,4.49a27.83,27.83,0,0,0-2.12,12.33c0,.71.12,1.42.19,2.12.43,4.1,3.58,6.56,7.58,5.57a32.25,32.25,0,0,0,5.77-2.6c1-.47,1.89-1.21,3.14-.18-.51,1.09-1,2.2-1.55,3.32-1.56,3.49-3.08,7-4.69,10.46a5.79,5.79,0,0,1-1.59,2.19c-2.85,2.12-5.81,4.09-8.69,6.16-2.07,1.49-4.09,3.06-6.52,4.88l1.18.7,13.89-9.69c-.71,2.21-1.29,4.16-2,6.06-.16.44-.74.75-1.18,1.05-2.23,1.56-4.47,3.09-6.83,4.71l1,1.08,6.38-4.57c0,2.16,0,3.94,0,5.72,0,.37-.47.8-.83,1-.82.53-1.71,1-2.65,1.45l.65,1.23,3.11-1.63c.23.7.42,1.34.63,2a36,36,0,0,0,1.35,3.46,1.67,1.67,0,0,1,.3.08,44.91,44.91,0,0,0,5.21,1.24c1.49.37,3,.62,4.49,1A28.54,28.54,0,0,1,88,205.63a24.69,24.69,0,0,1,.48-8.76c2.07-7.1,4.67-14,7.07-21.08,4.83,2.17,12.66,12.48,14.5,18.86-2,1.37-4,2.81-6,4.14s-4.2,2.55-6.4,3.88l.69,1.36,12.33-7.86a1.33,1.33,0,0,1,.12.21c1.47,3.58,1.44,3.54-1.81,5.56-3.52,2.19-7,4.47-10.57,6.77l.83,1.18,13-8.41c.22,1.58.43,2.78.5,4,0,.29-.39.69-.69.9-3.79,2.59-7.6,5.15-11.4,7.73-.26.18-.51.38-.75.56a2,2,0,0,0,.17.51,1.39,1.39,0,0,1,.79-.23,1.53,1.53,0,0,1,.8.22c3.21-2.18,6.44-4.34,9.66-6.5l1.45-.95.57.13c0,2.58,0,5.17,0,7.75a42.49,42.49,0,0,0,5.75-.26c0-.11,0-.23.06-.34a61.91,61.91,0,0,0-.2-21.38c-.15-.77-.85-1.78-.57-2.21a7.48,7.48,0,0,1,2.44-1.84c1.26-.77,2.56-1.47,3.85-2.17.78-.43,1.46-.92,1-1.92a1.49,1.49,0,0,0-2.34-.61L117,188.5c-1-.85,0-1.3.48-1.68,3.42-2.45,6.87-4.86,10.31-7.28.31-.22.81-.34.93-.63a13.43,13.43,0,0,0,.52-2.1c-.68-.09-1.53-.48-2-.21-2.16,1.27-4.24,2.69-6.3,4.13s-4,3-6,4.42l-.31-.31a12,12,0,0,1,1.2-1.17q7.55-5.65,15.11-11.29l.79-.59c.83-.66,1-1.57.28-2.24a2.05,2.05,0,0,0-1.94,0c-4.21,3-8.36,6.16-12.52,9.26-1.53,1.15-3.07,2.28-4.74,3.53-.79-1-1.51-1.92-2.29-2.81-2.67-3-5.22-6.2-8.08-9-1.55-1.54-1.93-3-1-5,2,1,4.23,1,6.14,2.59,2.37,1.94,5.35,1.64,7.87.12a18.84,18.84,0,0,0,4.9-4.26,228.25,228.25,0,0,1,20.56-22.51c.55-.52,1.1-1.06,1.7-1.54,2.1-1.7,4.26-1.31,5.3,1.19a13.08,13.08,0,0,1,.9,4.77,27.93,27.93,0,0,0,4,14.84,27.48,27.48,0,0,0,5.82,6.13c4,3.33,8.49,6.17,11.79,10.36A38.56,38.56,0,0,1,177.43,190.71Zm-6.66-71.11c1.77-.43,3.88,1.36,4.75,3.43-3.78,0-7.57,0-11.36,0a17.83,17.83,0,0,1-1.92-.19l-.12-.44C165,121.44,167.84,120.32,170.77,119.6ZM110.1,149.23a19,19,0,0,1-4.13,1.4,17.36,17.36,0,0,1-1.91.35l-.23-.4c1.62-1.26,3.18-2.61,4.89-3.72.51-.33,1.46,0,2.2,0C110.66,147.71,110.64,148.93,110.1,149.23Zm5.59-4.49c.07.09,0,0-.09-.13-1.5-3.82-3.81-4.69-7.45-2.7A27.91,27.91,0,0,0,99,150l-1.15,1.55c-4-2.08-6.31-1.65-9.48,1.68a5.18,5.18,0,0,1-2.79-4.83A20.45,20.45,0,0,0,82,138.43c1.56-1.27,3-2.57,4.62-3.69a2.32,2.32,0,0,1,1.85,0c4.26,1.57,7.49,4.22,8.77,8.78.25.89.53,1.73,1.7,1.6s1.4-1,1.25-1.93a2.94,2.94,0,0,1,1.71-3.29,29.13,29.13,0,0,0,3.07-2.47c.67,2.68,1.36,2.91,3.49,1.16,1.54-1.27,3-2.6,4.55-3.91l.45.26c-.46,1-1,2-1.35,3a6.19,6.19,0,0,0-.24,1.44,4.17,4.17,0,0,0,1.43-.58c.8-.74,1.42-1.67,2.21-2.42.32-.31,1.1-.62,1.31-.45a1.78,1.78,0,0,1,.72,1.43,8,8,0,0,1-1.12,2.11,5.7,5.7,0,0,0-.74,1.21,1.28,1.28,0,0,0,.3,1c.09.11.64,0,.84-.15,3.33-3,6.66-6,9.93-9,.26-.25,0-1.05,0-1.59-.44,0-1-.07-1.29.13-1.21.74-2.33,1.63-3.54,2.36a12.61,12.61,0,0,1-2.13.79c-.4-1.47-.17-2.46.91-3.22a3.23,3.23,0,0,0,.93-.91,3.51,3.51,0,0,0,.2-1.15c-.43,0-.94-.13-1.28.05-1,.52-1.89,1.18-2.82,1.78l-.39-.35a6.15,6.15,0,0,0,.59-1.1c.18-.54.26-1.11.39-1.67-.68.13-1.53,0-2,.43-1.4,1.11-2.64,2.41-3.94,3.64l-.38-.21c.13-.51.29-1,.37-1.55a12,12,0,0,0,0-1.34c-.49.06-1.11-.06-1.44.2-1.56,1.19-3.07,2.46-4.55,3.75-2.43,2.11-4.84,4.25-7.22,6.35l-7.61-7.23c.78-.95,1.54-1.94,2.39-2.86a1.84,1.84,0,0,1,1.14-.44c.87-.06,1.76.06,2.62-.05.39-.06.74-.49,1.11-.75-.37-.21-.73-.6-1.1-.61-3.65-.09-7.32,0-11-.17-6.45-.3-12.74-1.47-18.27-5a40.73,40.73,0,0,1-6.22-5.24c-1.64-1.61-1.57-3.29-.09-5.09a25.64,25.64,0,0,1,2.1-2.07c.74-.73,1.55-1.4,2.21-2.19a29.38,29.38,0,0,0,1.72-2.5c1.45.45,2.91.91,4.39,1.32,0,0,.23-.62.35-.94-4.61-2.08-4.73-2.38-3-7.32a2.34,2.34,0,0,0,0-.6c-1.67-.52-3.39-1-5.06-1.58C63,94.8,61.17,94,60,92.12c-.76-1.25-.9-2.34.3-3.34,1.39-1.15,2.77-2.3,4.22-3.37,3.86-2.86,7.71-5.75,11.65-8.5a3.78,3.78,0,0,0,1.73-4.17c-.55-2.51.38-4,2.51-5.2,3.82-2.23,7.53-4.65,11.23-7.08a4.11,4.11,0,0,1,4.24-.11l-12.68,9c.19,1,.71,1.13,1.62.48,3.78-2.7,7.6-5.34,11.36-8.06,1.92-1.39,1.92-1.44,4,.13-4,2.89-8,5.76-12,8.59-.77.54-1.17,1,0,1.78,4.44-3.16,8.91-6.36,13.46-9.61l2.16,1.66L90.44,73l.75,1.26c4.25-2.82,8.42-5.6,12.6-8.35a6.8,6.8,0,0,1,1.45-.55c.12.24.25.47.37.7L94.4,74.31l.84,1.13L106.75,67l1.44,1.35c-3.11,2.18-6.1,4.28-9.09,6.35-1,.68-1,.65-.27,2l10.47-7.38,1.17,1.33L103.39,76l.79,1.15,7.3-5.38L114,74.56c-1.4,1.71-2.82,3.28-4.06,5-2.62,3.61-4.18,7.58-3.13,12.13.33,1.41,1.17,2.7,1.62,4.1a8.69,8.69,0,0,1,.59,3.45c-.07.67-1.06,1.25-1.67,1.85-.35.35-1,.62-1.07,1a1.84,1.84,0,0,0,.77,1.28,6.19,6.19,0,0,0,5.64.87,52.12,52.12,0,0,0,7.25-2.84c1.75-.8,2.2-1,3.84-.38a18.24,18.24,0,0,1-1.82,3.55,13.45,13.45,0,0,1-9.24,5c-.39,0-.75.45-1.37.84l1.51.74c-.11.94-.2,1.86-.33,2.77-.19,1.31.42,1.74,1.61,1.46,1.95-.48,3.89-1,6.09-1.59,0,1.78.06,3.44,0,5.1a3.48,3.48,0,0,0,2,3.64,40.35,40.35,0,0,0,5,2c1,.3,1.49.67,1.54,1.76.15,3.07.51,3.43,3.53,4.1l1.78.39Zm36.56-25.6a9.76,9.76,0,0,1-1.35-3.49c-1.73-8.63-6.33-15.66-12.39-21.77-5.72-5.79-11.73-11.3-17.57-17-3.84-3.73-7.52-7.63-11.43-11.29-2.35-2.19-5-4.09-7.54-6.05a11.43,11.43,0,0,0-7.48-2.46A7.81,7.81,0,0,1,88,54.31c-2-2.37-4.15-4.64-6-7.14a9.82,9.82,0,0,1-1.71-6.78,23.43,23.43,0,0,1,2.55,2,12,12,0,0,0,9.39,3.92c6.59-.15,11.3,3.42,15.69,7.73,2,1.91,4,3.68,6.08,5.49,1.08,1,2.22.84,2.79-.44,2.41-5.43,6.15-10,10.14-14.21,6.72-7.1,13.85-13.8,20.78-20.7.78-.78,1.28-.51,1.91.1,4.57,4.47,9.16,8.92,13.87,13.5-9.81,12.21-20,23.78-30.6,35.08-.29-.23-.57-.41-.8-.63-1.62-1.52-1.67-1.74-.16-3.41q12-13.32,24.13-26.6c.84-.92,1.78-1.76,2.69-2.63a1.62,1.62,0,0,0,.14-2.57,1.7,1.7,0,0,0-2.71-.12,3.67,3.67,0,0,1-.42.31,8.61,8.61,0,0,0-1-2.57c-1.14-1.27-2.65-1.1-4,.14-4.86,4.38-8.81,9.54-12.69,14.77-3.55,4.78-7.3,9.41-11,14.09a19.18,19.18,0,0,1-2,2c-2.08,1.94-2.46,2.71-1.08,5.19a29.05,29.05,0,0,0,4.7,6.23c6,6.19,12.22,12.22,17.27,19.28,4.86,6.8,8.49,14.13,9.62,22.52.13,1,.2,2,.3,3.08l-.55.4A26.11,26.11,0,0,1,152.25,119.14ZM163,129.61a41.92,41.92,0,0,1-5.87-3.14,9.61,9.61,0,0,1-1.76-1.92H175.7v12.74c-.67-.52-1.14-.86-1.59-1.22A43.34,43.34,0,0,0,163,129.61Z"/><path style="fill: white" d="M59.94,202.34l.14.12a1.58,1.58,0,0,1,.74.15c2.33,1.12,4.48,2.57,6.75,3.8,1.12.6,2.4.86,3.56,1.35,0-1.68-.58-2.31-2.71-3.12q-5.86-2.22-11.72-4.47l.18.09C58,200.84,58.9,201.67,59.94,202.34Z"/><path style="fill: white" d="M137,212.12a1.46,1.46,0,0,1,.55-.24,11,11,0,0,0,3.38-1.31,16,16,0,0,1,3-1.67,1.35,1.35,0,0,1,1.6.5l.16-.08c3.86-1.46,7.7-3,11.58-4.42-.08-.2-.17-.41-.28-.64l-3.18.3-.56-.66a21.22,21.22,0,0,0,2-1.28c1.89-1.56,3.75-3.17,5.6-4.79a2.55,2.55,0,0,0,.91-1.13,2.79,2.79,0,0,0-.12-1.93,1.75,1.75,0,0,0-1.69-.33,44.16,44.16,0,0,0-6,3.66c-3.45,2.69-6.7,5.61-10.1,8.36a24.15,24.15,0,0,1-3.13,1.9l-.43-.32c.31-2.57.56-5.16.93-7.72a196.08,196.08,0,0,1,6.51-28.73,11.87,11.87,0,0,0,.49-4.5,3.6,3.6,0,0,0-1.66-2.34c-.42-.25-1.62.34-2.17.86a59.27,59.27,0,0,0-10.11,13c-5.95,10-9.58,20.8-12.16,32q-.49,2.19-1,4.38c4.88-.62,9.62-2.21,14.4-3.25A1.51,1.51,0,0,1,137,212.12Z"/><path style="fill: white" d="M61.61,195.33l18.85-13.64.89,1.17c-6.12,4.37-12.14,8.69-18.19,13C62.38,196.4,62.35,196.36,61.61,195.33Z"/><path style="fill: white" d="M65.24,187.74l-.93-1.08,15.13-10.24c.28.34.43.48.54.65a4.77,4.77,0,0,1,.24.54Z"/><path style="fill: white" d="M60.24,184c3.4-2.34,6.82-4.67,10.19-7.05.83-.59,1.24-.41,1.6.64-3.49,2.41-7,4.86-10.56,7.24-.26.18-.86-.15-1.3-.24Z"/><path style="fill: white" d="M98,198.89l-.72-.93c.09-.17.11-.29.19-.34,2.45-1.74,4.91-3.45,7.35-5.22.8-.58,1.26-.43,1.56.6Z"/><path style="fill: white" d="M108.7,215.69l1-.71-.07-.57c-.52,0-1.18-.21-1.54,0-.52.36-1,.73-1.54,1.1C107.25,215.56,108,215.62,108.7,215.69Z"/><path style="fill: white" d="M82.42,83.45l1.59-4c-.18-.49-2.14-.43-1-1.84,3.32.77,6.52,4.69,6.91,8.68-3.74-.73-7.41-1.42-11.07-2.18-.27,0-.44-.56-.66-.85.33-.17.68-.51,1-.47C80.34,83,81.44,83.24,82.42,83.45Zm5.44,1,.31-.41-2.61-3.51-.53.12-1.12,3.1Z"/><path style="fill: white" d="M89.78,105.34A55.24,55.24,0,0,1,78,118.2c-.87-.51-1.14-.94-.23-1.67a53.34,53.34,0,0,0,10.4-11.28C88.69,104.46,88.74,104.49,89.78,105.34Z"/><path style="fill: white" d="M106.1,104.87l.65,1L97.31,116.1l-.88-.91Z"/><path style="fill: white" d="M81.37,118.32l9.74-8.51-.52-.67,1.32.71c-1.24,1.44-2.3,2.82-3.5,4.05-1.68,1.72-3.44,3.37-5.23,5-.33.29-1,.23-1.49.32Z"/><path d="M107.38,108.69l1.11.88-7,7.52c-1-.43-1.17-.89-.39-1.69C103.16,113.22,105.22,111,107.38,108.69Z"/><path style="fill: white" d="M84.49,120.91l5.09-4.77,1.07,1c-1.65,1.51-3.18,3-4.79,4.35-.28.24-.93,0-1.4,0Z"/><path style="fill: white" d="M104.3,118.13c-1.07-.53-1-1-.39-1.7,1.24-1.3,2.4-2.67,3.79-4.22l1.12,1.23Z"/><circle class="cls-1" cx="111" cy="110" r="105.5"/></svg>