<svg id="Lag_1" data-name="Lag 1" xmlns="http://www.w3.org/2000/svg" viewBox="0 0 221 221"><defs><style>.cls-1{opacity:0.29;}.cls-2{fill:none;stroke:#000;stroke-miterlimit:10;stroke-width:7px;}</style></defs><title>news-icon</title><g id="Layer_1" data-name="Layer 1" class="cls-1"><circle class="cls-2" cx="111" cy="110" r="105.5"/></g><g id="nyheder" class="cls-1"><path d="M30.89,59.81c.42-1.28.85-2.52,1.23-3.77.47-1.53,1.44-2.36,3.06-2.09,2.34.39,3.66-.61,4.38-2.78.63-1.91,2-2.58,4.06-2.58q43.64.06,87.27,0h40.58c2.7,0,2.72,0,1.43,2.5-.48.92-.93,1.86-1.39,2.79a.79.79,0,0,0,.15.34h3.14c2,0,2.15.18,1.57,2.06-.3,1-.59,2-.88,3a2.81,2.81,0,0,0,0,.58h2.67c1.14,0,1.48.49,1.24,1.53s-.54,2.32-.86,3.72h2.65c2.12,0,2.09,0,2.08,2.1,0,5.27-.43,10.59.13,15.81a177.65,177.65,0,0,0,3.44,20.1c2.64,11.77,6,23.4,8.36,35.22,1.29,6.36,1.47,13,1.75,19.49a11,11,0,0,1-2.55,7.46,18.26,18.26,0,0,1-15.08,7.06q-64.42.08-128.85.08c-5.69,0-9.81-2.18-11.75-7.67a14.8,14.8,0,0,1-.8-5.15c.29-11.82-2.06-23.22-5-34.6-2.83-11.17-5.6-22.37-7.74-33.69a86.34,86.34,0,0,1-.54-26.12c.14-1.25.3-2.51.49-3.75a1.71,1.71,0,0,1,1.81-1.6h.13C28.37,59.83,29.58,59.81,30.89,59.81Zm27.69,110c.69,0,1.16.09,1.63.09H178c1.21,0,2.43,0,3.63-.06,6.9-.47,13.63-6.65,13.2-14.48-.69-12.33-3.56-24.21-6.38-36.11-2-8.59-4.72-17-6.1-25.76-1.35-8.35-2.35-16.72-1.7-25.22a3.26,3.26,0,0,0-.12-.76H52.12c0,4.57-.21,9,0,13.34.62,10.8,3.63,21.18,6,31.66,1.9,8.4,4.35,16.68,6,25.12a177.77,177.77,0,0,1,2,19.13,12.46,12.46,0,0,1-4.3,10.29c-1,.95-2,1.75-3.29,2.79ZM34.51,56.66a48.18,48.18,0,0,0-1.6,5.12A71.68,71.68,0,0,0,32.79,90c2.2,11.19,5,22.27,7.55,33.39,1.25,5.45,2.88,10.84,3.68,16.36.9,6.18,1.09,12.47,1.49,18.71.18,2.77,1.57,5.21,3.7,5.94,4.34,1.49,9.23-1.63,9.13-6.22A113.7,113.7,0,0,0,57,140.6c-1.58-8.73-4-17.31-6-26-1.73-7.43-3.63-14.82-5-22.31a85.18,85.18,0,0,1-.28-30.5,2.1,2.1,0,0,1,2.15-2,2.66,2.66,0,0,1,.28,0c4.56.05,9.12,0,13.68,0H170.07c2.73,0,2.73,0,3.33-2.92H44.53c-.7,4.53-1.57,9-2.05,13.41-1.11,10.29.55,20.42,2.58,30.43,1.65,8.16,4.12,16.16,6,24.28q2.4,10.5,4.16,21A93.79,93.79,0,0,1,56,157.83a4.34,4.34,0,0,1-4.34,4.29c-2.07-.05-3.33-1.65-3.33-4.27,0-10.91-2.12-21.56-4.71-32-3.2-13-7-25.86-8.59-39.2a72.81,72.81,0,0,1,.11-20c.5-3.3,1.26-6.55,1.91-9.9ZM48,62.47c-.31,4.13-.75,8-.87,11.91-.33,11.15,2.18,21.94,4.56,32.71,2,8.94,4.39,17.78,6.48,26.7a112.67,112.67,0,0,1,3,22.84c.12,4.54-2,7.62-6,9.52-5.26,2.5-12.08.59-12-7.72,0-2.25,0-4.51-.17-6.76-.72-11-3.59-21.54-6.07-32.17-2.08-8.91-4.89-17.64-6.19-26.76-1.17-8.26-2-16.47-1.21-24.79.18-1.78.44-3.55.67-5.43-.4-.05-.8-.07-1.2-.08a8.35,8.35,0,0,0-1.31.07,6.18,6.18,0,0,0-.27.83,69.59,69.59,0,0,0-.15,23.48c1.69,9.5,3.6,19,5.92,28.35s4.94,18.69,6.11,28.3c.64,5.28,1,10.61,1.18,15.92.22,4.83,3.09,9.2,7.09,10.24,7.18,1.86,16.77-5,16.34-12.81a78.62,78.62,0,0,0-.82-10.51c-1.84-9.64-3.82-19.26-6.05-28.82-2.32-9.93-5.46-19.66-6.5-29.89A105.15,105.15,0,0,1,50,67.69c.22-2.51.45-2.64,3-2.64H176.08c.17-1,.3-1.68.47-2.58ZM170,51.19h-2.3l-77,.06H44c-1.24,0-2.06.2-2.46,1.51-.85,2.78-2,5.48-2.65,8.3a78.16,78.16,0,0,0-.49,31c2,11.22,5,22.26,7.65,33.35,2.53,10.48,5,21,4.78,31.83a2.11,2.11,0,0,0,0,1c.25.43.67,1.1,1,1.09a2.26,2.26,0,0,0,1.39-.88c.22-.29.14-.85.14-1.28,0-8.51-1.41-16.87-3.11-25.15-1.77-8.59-4.21-17-6.18-25.58-1.4-6-2.71-12.12-3.68-18.23a70.11,70.11,0,0,1,2.08-31.63c.5-1.66,1.34-2.46,3.16-2.41,3.9.09,7.8,0,11.7,0H166.7C169.2,54.18,169.39,54,170,51.19Z"/><path d="M125,157.9H75.17c-.08-14.23-3.38-27.85-7-41.59h48.22a1.32,1.32,0,0,1,1.54,1.21c1.71,6.91,3.82,13.75,5.07,20.75C124.13,144.66,124.34,151.22,125,157.9Z"/><path d="M65.6,109.76l-.8-2.64H174.25c2.39,0,2.39,0,2.6,2.64Z"/><path d="M125.89,116.36H179l.71,2.49H128.48C126.25,118.85,126.25,118.85,125.89,116.36Z"/><path d="M184,136l.45,2.26H131.23l-.47-2.26Z"/><path d="M185.25,142.49l.29,2.29H132.32l-.35-2.29Z"/><path d="M132.89,151.35V149H186l.15,2.33Z"/><path d="M181,123l.61,2.28H128.35l-.61-2.28Z"/><path d="M186.19,155.55,186,157.9H133v-2.35Z"/><path d="M182.69,129.51l.41,2.14h-53l-.55-2.14Z"/><path d="M173.48,78.74H67.2l-1.43,2.49H168.3C172.76,81.23,172.76,81.23,173.48,78.74Z"/><path d="M63.15,85.36l-1.22,2.28H168.55l1.22-2.28Z"/><path d="M59.73,91.89c-.28.73-.53,1.36-.83,2.15H165.11l1.1-2.15Z"/></g></svg>