<?xml version="1.0" encoding="utf-8"?>
<!-- Generator: Adobe Illustrator 23.0.3, SVG Export Plug-In . SVG Version: 6.00 Build 0)  -->
<svg version="1.1" id="Layer_1" xmlns="http://www.w3.org/2000/svg" xmlns:xlink="http://www.w3.org/1999/xlink" x="0px" y="0px"
	 viewBox="0 0 771 679" style="enable-background:new 0 0 771 679;" xml:space="preserve">
<style type="text/css">
	.st0{opacity:0.4;}
</style>
<path class="st0" d="M301.96,235.05c9.93-11.63,2.99-19.54-3.95-28.06c-20.49-25.14-46.79-31.98-77.23-24.48
	c-5.35,1.32-9.43,7.28-14.49,10.48c-2.81,1.78-6.43,2.27-9.69,3.33c0.16-3.68-0.82-7.93,0.7-10.92
	c4.64-9.14,11.16-17.39,15.28-26.72c12.42-28.11,26.31-55.27,52.62-72.9c38.86-26.05,82.46-34.32,128.57-31.2
	c8.47,0.57,16.95,1.73,25.27,3.41c12.11,2.44,22.31-0.47,32.29-11.72c5.17,22.48,24.92,25.67,39.71,35.08
	c35.33,22.5,64.68,50.3,78.66,91.04c9.59,27.95,5.74,56.93,5.08,85.66c-0.35,15.21,0.84,30.46,0.41,45.67
	c-0.1,3.42-4.03,6.72-6.2,10.08c-2.32-2.84-6.46-5.56-6.67-8.54c-2.27-33.52-25.97-48.7-52.4-60.71
	c-17.63-8.01-51.97,3.84-61.89,20.28c-2.65,4.39-2.99,10.16-4.38,15.3c-1.14,0.1-2.28,0.2-3.42,0.3c-1.13-2.84-3.36-5.74-3.23-8.52
	c1.21-24.79-10.78-44.77-32.9-54.53c-28.84,49.48-37.38,108.07-69.02,155.85c6.67,1.9,14.77,3.76,22.55,6.53
	c18.54,6.6,31.05-2.87,42.63-15.28c7.64-8.19,28.45-9.7,37.25-2.62c2.84,2.28,5.75,4.53,8.32,7.1c13.19,13.16,29.12,17.6,46.8,12.91
	c9.35-2.48,15.26,0.23,20.95,6.97c3.25,3.85,7.34,6.99,12.88,10.24c-3.37-17.63-5.05-34.04,8.62-39.66c5,2.21,9.01,3.89,12.94,5.74
	c9.71,4.59,10.94,12.18,4.73,19.71c-7.69,9.31-8.22,19.85-8.27,30.79c-0.24,56.38-0.23,112.77-0.73,169.15
	c-0.11,11.7-1.73,23.43-3.37,35.05c-0.41,2.91-3.77,7.79-5.41,7.65c-3.35-0.3-7.75-2.67-9.35-5.52c-2.23-3.96-2.97-9.12-3.18-13.81
	c-0.91-19.83-1.53-39.68-1.97-59.53c-0.17-7.6-3.34-10.47-11.09-10.65c-57.18-1.37-114.34-3.25-171.51-4.66
	c-18.01-0.44-20.83,2.7-23.21,20.31c-2.87,21.26-6.15,42.47-9.32,63.69c-0.42,2.79-0.63,5.86-2,8.18c-1.62,2.76-4.39,4.84-6.66,7.21
	c-2.19-2.51-5.97-4.85-6.29-7.58c-1.29-11.22-1.57-22.55-2.11-33.85c-0.17-3.59-0.03-7.2-0.03-9c-14.36,0-28.1,0-40.83,0
	c-8.4-20.29-16.28-39.33-24.17-58.38c-1.37,0.4-2.73,0.79-4.1,1.19c-1.25,8.98-2.5,17.96-3.91,28.07c4.26-0.93,7.6-1.65,14.19-3.08
	c-4.7,10.26-8.32,18.9-12.86,27.03c-0.5,0.89-7.95-0.08-9.25-2.08c-2.5-3.87-2.91-9.09-4.2-13.75c-3.96-14.37-7.91-28.74-11.9-43.09
	c-0.87-3.11-2.41-6.12-2.76-9.27c-1.72-15.54-3.93-31.1-4.35-46.69c-0.22-8.02-3.06-12.54-9.41-16.45
	c-6.18-3.81-11.81-8.49-18.77-13.58c27.48-23.05,39.76-54.88,54.21-85.48c4.87-10.32,9.29-20.93,23.15-24.23
	c8.21-1.95,8.26-17.14,2.43-23.54c-7.47-8.21-13.78-17.47-21.18-27.03c-0.72,4.28-1.56,9.28-2.4,14.27c-0.8,0.6-1.59,1.2-2.39,1.8
	c-1.59-3.03-4.12-5.93-4.55-9.12c-0.75-5.57-0.21-11.3-0.21-19.14c8.39-5.44,18.49-12.13,28.79-18.51c1.83-1.13,4.47-1.31,6.73-1.31
	c7.2,0.01,14.47,1.06,21.58,0.35c21.38-2.14,38.15,7.06,41.35,28.1c1.92,12.65-1.21,27.59-6.62,39.42
	c-5.99,13.11-18.7,14.69-38.62,8.5c1.85,13.66,1.66,26.69,9.01,37.63c8.54,12.71,21.3,17.88,37.66,15.99
	c-0.7-6.96-1.34-13.38-1.99-19.79c1.14-0.27,2.29-0.55,3.43-0.82c2.19,3.89,4.37,7.78,5.76,10.24c6.25,0.63,11.54,1.16,18.98,1.9
	c4.25-9.48,9.66-20.24,13.99-31.42c12.99-33.57,25.92-67.17,38.13-101.03c5.77-16.02,3.72-17.49-12.71-20.36
	c-17.98-3.14-33.79,1.83-48.51,11.07c-4.37,2.74-6.95,8.26-10.65,12.21c-1.79,1.91-4.29,3.14-6.48,4.68
	C303.87,236.07,302.92,235.56,301.96,235.05z M290.54,569.37c0-53.19,0.04-105.72-0.11-158.26c-0.01-2.58-0.88-6.26-2.69-7.54
	c-11.22-7.97-22.83-15.4-34.31-23.01c-1.27,0.67-2.54,1.33-3.81,2c6.44,28.09,12.88,56.19,19.57,85.38
	c-7.1,1.2-15.71,2.66-26.7,4.52c2.84,24.34,4.2,48.6,8.86,72.2C255.59,566.06,269.68,573.79,290.54,569.37z M521.67,498.75
	c-4.62,3.25-7.67,7.26-10.76,7.29c-60.79,0.66-121.58,0.99-182.38,0.84c-3.7-0.01-7.39-4.51-10.61-6.61c0,3.01,0,7.62,0,13.46
	c68.9,0,137.02,0,206.27,0C523.1,507.23,522.39,503.01,521.67,498.75z M416.45,441.41c8.79-10.97,16.34-18.48,21.27-27.44
	c2.2-3.99,0.5-11.71-2.15-16.1c-1.23-2.04-8.95-0.29-13.71-0.02c-2.36,0.13-4.99,1.72-7,1.08c-11.93-3.79-20.29,2.08-16.48,13.86
	C401.49,422.4,409.31,430.5,416.45,441.41z M426.22,385.64c0.03,1.33,0.05,2.67,0.08,4c33.53,5.07,64.89,15.76,92.89,35.56
	c2.55-10,2.6-10.07-5.53-14.93c-24.27-14.51-50.55-23.24-78.53-26.8C432.3,383.11,429.2,384.87,426.22,385.64z M404.71,384
	c-32.42,0.56-61.11,11-86.46,30.26c-1.94,1.48-1.99,5.44-2.92,8.25C342.19,400.65,375.11,396.07,404.71,384z"/>
</svg>
