<svg id="Lag_1" data-name="Lag 1" xmlns="http://www.w3.org/2000/svg" viewBox="0 0 221 221"><defs><style>.cls-1{opacity:0.29;}.cls-2{fill:none;stroke:#000;stroke-miterlimit:10;stroke-width:7px;}</style></defs><title>Tegnebræt 1</title><g id="Layer_1" data-name="Layer 1" class="cls-1"><circle class="cls-2" cx="111" cy="110" r="105.5"/></g><g id="Layer_4" data-name="Layer 4" class="cls-1"><path d="M89.69,178.91c-.07,7.48-9.17,11.56-6.68,19.69q1.5.19,3,.24c2.92-.09,5-.68,6.2-4.17a87.7,87.7,0,0,1,7.48-15.45c2.32-3.95,6.65-5,11-3.44-1,3.75-2,7.51-3.15,11.79,4.29-1.84,7.78-3.68,11.47-4.86A70.64,70.64,0,0,1,143,179c.88,0,2.52-.92,2.6-1.56,1.71-13.46,11.13-20.73,21.58-27.19,1.77-1.09,3.66-2,6-3.27-9.6-5.69-19.71-9.88-28.57-17.21,1.19-.31,1.92-.76,2.45-.59,3.84,1.23,5.71-2,8.3-3.58.32-.2.46-.94.42-1.41-.13-1.92-.34-3.84-.58-5.75-.22-1.76-5.22-5.56-7-5.62a5.32,5.32,0,0,1-2.24-1.05,7.33,7.33,0,0,1-2.05-1.53,5.13,5.13,0,0,1-1.34-2.75c0-.46,1.5-1.28,2.33-1.3a9.49,9.49,0,0,1,4,.82c2.7,1.18,4.33-.06,5.72-2.14s.66-4.18-1-5.63a117.88,117.88,0,0,0-11.37-9.3c-2.75-1.9-2.89-3.6-1.28-6.15q13-20.69,26-41.42c.32-.52.66-1,1.17-1.8C152.64,27.31,137,14.72,115.57,12c-2.45,4.53-4.69,9.35-7.54,13.78-6.43,10-13.18,19.82-19.76,29.73-1.67,2.51-3.83,2.83-6.72,2.6-6-.49-12.08-.45-18.12-.55a6.49,6.49,0,0,0-3,.61c-.93.49-2.11,1.36-2.25,2.22a3.36,3.36,0,0,0,1.51,2.7c4.52,2.61,9.15,5,13.76,7.48,1,.54,2,1,3.71,1.84-3.59,3.85-6.81,7.61-10.37,11-2.11,2-3.48,3.86-3.08,7a5.28,5.28,0,0,1-1.82,3.89c-3.53,3.09-7.28,5.94-11,8.81a21.2,21.2,0,0,1-3.07,1.67l.67,1.62a44.75,44.75,0,0,0,5.15,2.31c4.4,1.34,4.54,1.54,2.08,5.34-.28.43-.5.89,0,1.34.18,1.6.31,3.21.56,4.8a5,5,0,0,0,.72,2c1.5,2.22,1.38,4.44.46,6.84-1.35,3.53.24,5.78,4,5.7,5.24-.1,10.62-.63,14.85,3.34a55.54,55.54,0,0,1,4.93,6l-.76.78c-2.09-.51-4.2-1-6.27-1.53a8.5,8.5,0,0,0-8.66,2.3,6.23,6.23,0,0,0-1.58,4.6c.16,1.06,2.07,1.95,3.32,2.71a13,13,0,0,0,3,.85,21.29,21.29,0,0,1-1.07,2c-.59.87-1.31,1.64-1.86,2.52-2.42,3.85-2.59,7.65-.48,9.89s5.85,2,9.84-.49c2.48-1.53,4.93-3.1,7.41-4.62.2-.12.58.07,1.9.28a95,95,0,0,1-5.28,8.18c-3,3.75-6.44,7.12-9.39,10.89a28.21,28.21,0,0,0-5.86,14.74L74.2,200C77.05,191.32,83.49,185.35,89.69,178.91Z"/></g></svg>