<?xml version="1.0" encoding="utf-8"?>
<!-- Generator: Adobe Illustrator 23.0.3, SVG Export Plug-In . SVG Version: 6.00 Build 0)  -->
<svg version="1.1" id="Layer_1" xmlns="http://www.w3.org/2000/svg" xmlns:xlink="http://www.w3.org/1999/xlink" x="0px" y="0px"
	 viewBox="0 0 771 679" style="enable-background:new 0 0 771 679;" xml:space="preserve">
<style type="text/css">
	.st0{opacity:0.4;}
</style>
<path class="st0" d="M172.37,599.12c9.55-2.45,19.48-5.05,29.46-7.52c2.23-0.55,4.98-1.55,6.81-0.76
	c12.8,5.54,13.87-2.29,13.8-11.66c-0.03-3.91-0.27-7.82-0.11-11.72c0.35-8.13,3.74-10.44,11.3-6.19c10.14,5.7,13.72,4.54,15.58-5.79
	c2.68-14.81,5.67-29.19,22.62-39.49c-21.13-4.48-28.57-17.6-31.36-36.76c3.57,0.9,8.87,0.72,9.98,2.78
	c3.98,7.39,10.26,7.17,16.96,7.49c16.57,0.8,17.88,4.86,18.16,21.11c0.19,11.31,6.55,22.52,11.69,33.31
	c11.22-11.85,3.75-22.83,0.35-33.8c-0.88,0.23-2.89,0.74-4.34,1.11c1.48-7.22,2.92-14.2,4.48-21.82c-2.83,0.51-6.06,1.08-10.38,1.85
	c4.53-5.22,8.38-9.65,14.18-16.33c-5.31,1.47-7.58,2.1-12.04,3.33c4.81-6.23,8.28-10.73,11.74-15.21
	c-3.05-4.69-6.13-9.43-9.31-14.31c-4.34,1.31-10.22,3.09-16.09,4.86c-0.2-1.01-0.4-2.02-0.6-3.04c-4.44,3.28-8.89,6.56-13.33,9.85
	c-0.82-0.99-1.63-1.97-2.45-2.96c-1.45,2.96-2.9,5.92-4.6,9.37c-1.83-1.92-3.05-3.19-4.92-5.16c-1.68,3.09-3.19,5.89-5.06,9.34
	c-2.36-2.62-4.19-4.65-6.19-6.87c-2.43,11.7-4.49,22.67-7.11,33.51c-0.79,3.26-3.11,6.14-5.58,10.81c-1.34-3.74-2.13-5.93-3.18-8.86
	c-5.14,6.78-10.26,13.08-14.75,19.8c-1.02,1.53-0.76,5.91,0.36,6.59c11.44,6.88,1.91,10.88-1.3,15.83
	c-16.85-4.33-3.77-13.93-3.41-22.13c-7.54,2.84-13.87,5.23-20.21,7.61c-0.29-0.48-0.57-0.97-0.85-1.45
	c10.1-9.63,20.21-19.26,30.31-28.89c-0.47-0.73-0.95-1.45-1.42-2.18c-3.8,1.02-7.6,2.04-12.06,3.23
	c7.34-12.77,14.26-24.79,21.17-36.82c-0.73-0.67-1.46-1.34-2.18-2.02c-20.71,13.64-42.46,23.04-70.39,19.34
	c19.67-7.5,36.68-13.99,53.69-20.48c-0.2-1.21-0.41-2.43-0.61-3.64c-8.55-1.14-17.22-1.71-25.6-3.59
	c-8.41-1.88-16.53-5.06-24.77-7.68c0.23-0.92,0.45-1.84,0.68-2.76c7.6,0,15.2,0,23.78,0c-0.21-4.03-0.38-7.27-0.6-11.42
	c-2.95,1.65-5.09,2.84-7.23,4.03c-0.88-0.53-1.75-1.06-2.63-1.58c2.59-5.4,5.11-10.84,8.05-16.04c0.12-0.21,4.49,1.47,6.36,2.92
	c1.54,1.2,2.32,3.38,3.26,4.86c2.16-4.97,4.03-9.28,5.91-13.6c1.83,4.73,4.59,9.35,5.22,14.23c0.62,4.83-0.91,9.94-1.6,15.74
	c9.71,0,19.54,0,32.13,0c-5.68-4.04-9.36-6.66-15.35-10.93c9.04-0.42,15.4-0.72,23.01-1.08c0.71-8.5,1.4-16.81,2.09-25.11
	c0.84-0.05,1.67-0.11,2.51-0.16c0.53,7.56,1.06,15.12,1.72,24.58c8.23-1.87,16.12-3.67,25.96-5.9c-6.84-4.57-11.69-7.81-18.24-12.18
	c10.42-0.74,21.03,1.54,25.27-2.64c4.33-4.27,2.41-14.87,5.95-22.83c0.27,6.18,0.11,12.42,1.04,18.5c0.37,2.39,2.82,5.58,5,6.26
	c2.37,0.74,6.21-0.25,8.08-1.94c1.18-1.07-0.06-4.82-0.25-7.37c-0.33-4.4-0.64-8.81-1.06-13.21c-0.51-5.26-1.13-10.51-1.87-17.32
	c-12.84,6.82-23.46,12.45-35.44,18.81c0.7-4.08,1.1-6.44,1.56-9.13c-1.41,0.34-2.35,0.26-2.72,0.69c-8.7,10.08-21.81,4.44-32.4,9.11
	c-10.68,4.71-23.09,5.49-34.74,7.99c-0.31-0.98-0.61-1.96-0.92-2.94c9.78-4.1,19.56-8.2,31.89-13.37
	c-9.29-4.81-15.79-8.17-22.3-11.54c0.22-1.01,0.44-2.02,0.66-3.03c12.97,0,25.95,0,38.92,0c0.21-1.09,0.41-2.19,0.62-3.28
	c-5.54-4.95-11.09-9.91-18.57-16.59c6.24,0,9.75,0,13.78,0c0.57-7.68,1.15-15.46,1.73-23.24c0.88,0.04,1.77,0.08,2.65,0.11
	c0.77,8.1-1.16,18.29,3.06,23.72c4.33,5.58,14.65,6.5,25.1,10.52c-2.43-6.92-3.55-10.12-5.18-14.78c7.64,0.9,14.64,1.73,23.12,2.73
	c0.62-8.9,1.17-16.77,1.72-24.63c0.88-0.03,1.76-0.06,2.63-0.09c0.63,8.78,1.26,17.56,1.89,26.31
	c13.59-1.35,14.68-11.47,16.49-21.05c-1.04,0.33-2.08,0.65-3.11,0.98c-2.87-10.43-5.75-20.86-8.81-31.97
	c-2.86,3.11-6.24,6.79-10.66,11.6c-0.47-4.41-0.77-7.29-1.13-10.67c-5.46,5.17-10.61,10.05-16.73,15.85
	c-1.96-4.15-3.35-7.09-4.17-8.81c-28.49,10.73-57.93,15.05-87.52,18.62c-0.31-1.11-0.61-2.22-0.92-3.33
	c9.45-3.63,18.91-7.27,30.04-11.54c-13.5-5.98-25.48-11.29-37.46-16.6c0.38-0.91,0.77-1.81,1.15-2.72c8.3,0.52,16.6,1.03,26.61,1.66
	c-1.53-7.65-2.68-13.4-4.23-21.12c-4.52,3.9-7.25,6.26-11.42,9.86c-1.85-9.69-0.72-17.63,7.8-21.15
	c11.64-4.81,13.69,6.38,19.67,13.14c0-4,0-8,0-12.91c4.29-0.48,8.34-0.93,15.09-1.68c-3.81,12.44-7.16,23.38-10.67,34.84
	c12.25,0,23.42,0,34.59,0c0.16-0.88,0.32-1.75,0.49-2.63c-3.11-1.92-6.23-3.85-11.39-7.04c7.34-1.39,12.69-2.41,18.45-3.5
	c0.4-8.13,0.79-16.02,1.18-23.9c1.08,0.01,2.16,0.02,3.23,0.03c0,7.67,0,15.34,0,24.58c8.66-1.92,15.6-3.45,23.27-5.15
	c-1.08-2.09-2-3.88-3.76-7.28c25.72,8.59,20.86-16.02,28.59-23.04c-3.42-6.79-6.02-11.93-9.14-18.12c-0.68,1.41-1.93,4-3.94,8.16
	c-2.36-5.25-3.56-7.91-4.49-9.98c-9.1,4.1-18.12,8.18-29.6,13.36c2.49-6.68,3.92-10.5,5.34-14.31c-11.17,3.15-22.18,6.25-33.19,9.35
	c-0.54-1.27-1.08-2.55-1.61-3.82c6.5-4.37,13.01-8.74,20.14-13.53c-6.77-3.68-12.75-6.94-18.74-10.2c0.1-0.64,0.2-1.29,0.31-1.93
	c6.86,0,13.71,0,22.43,0c-5.16-5.43-8.87-9.34-12.58-13.24c0.47-0.65,0.94-1.3,1.41-1.94c4.1,1.6,8.2,3.2,13.81,5.38
	c0.84-8.9,1.62-17.07,2.39-25.25c0.85-0.07,1.7-0.14,2.55-0.2c0.32,4.86,0.97,9.72,0.91,14.58c-0.19,16.01,4.48,19.33,21.51,14.23
	c-1.94-2.67-3.74-5.14-6.52-8.96c24.22,13.07,24.22,13.07,33.42,11.75c-5.62-7.09,5.13-18.68-8.45-23.68
	c2.2-1.64,4.18-3.11,7.78-5.79c-4.87-0.45-7.99-0.74-12.64-1.17c4.74-2.79,8.43-4.96,13.75-8.09c-4.24-0.57-6.9-0.93-10.59-1.43
	c1.79-2.4,3.32-4.47,6.57-8.85c-15.34,1.32-28.17,2.43-41.01,3.54c-0.24-0.71-0.48-1.42-0.72-2.13c3.79-2.84,7.59-5.68,12.13-9.08
	c-7.99-0.78-14.95-1.46-21.92-2.14c-0.16-0.84-0.33-1.68-0.49-2.51c4.92-2.16,9.84-4.31,15.93-6.98
	c-5.89-4.95-11.08-9.3-16.26-13.65c0.19-0.54,0.38-1.08,0.57-1.62c3.25,0.82,6.49,1.64,10.5,2.64c0.89-7.58,1.76-15.02,2.63-22.47
	c0.87-0.02,1.74-0.03,2.62-0.05c0.21,4.28,1.21,8.71,0.48,12.82c-2.05,11.6,3.38,16.46,14.61,17.03c0.41-2.01,0.88-4.36,1.47-7.24
	c11.18,16.01,21.33,19.73,39.17,14.24c-0.34-5.91-0.59-12.08-1.07-18.23c-0.44-5.72-1.12-11.43-1.81-18.27
	c-4.73,2.69-8.59,4.89-12.46,7.09c-0.66-0.45-1.33-0.89-1.99-1.34c4.11-7.44,8.23-14.88,12.5-22.61
	c-7.94-5.37-15.49-10.47-25.57-17.29c9.79-0.89,16.47-1.5,23.67-2.15c0-7.59,0-14.02,0-23.53c6.74,9.2,11.83,16.16,18.35,25.06
	c6.27-8.38,11.61-15.52,18.32-24.49c0,8.66,0,15.04,0,22.63c7.26,0.78,13.93,1.49,24.08,2.58C364.1,65.54,356.57,70.56,348.4,76
	c4.41,7.51,8.64,14.72,12.87,21.94c-0.53,0.62-1.07,1.24-1.6,1.86c-4.05-2.12-8.11-4.23-13.27-6.92
	c-1.01,12.89-1.94,24.72-2.85,36.28c17.87,5.77,28.13,2.05,39.47-14.27c0.46,2.78,0.78,4.74,1.2,7.31
	c9.81-0.54,17.01-3.03,14.81-15.58c-0.81-4.63-0.13-9.51-0.13-14.28c1.12-0.03,2.24-0.06,3.35-0.09c0.78,7.51,1.56,15.02,2.41,23.19
	c3.8-1.37,6.91-2.48,10.02-3.6c0.42,0.57,0.83,1.13,1.25,1.7c-5.22,4.51-10.45,9.02-16.52,14.27c5.99,2.38,10.98,4.35,15.97,6.33
	c0.07,0.93,0.13,1.85,0.2,2.78c-7.19,0.79-14.39,1.58-22.26,2.44c4.15,3.15,7.98,6.05,11.8,8.96c-0.16,0.69-0.31,1.38-0.47,2.07
	c-12.83-1.07-25.66-2.14-40.88-3.41c2.95,4.09,4.37,6.08,6.34,8.81c-3.23,0.3-6,0.57-10.74,1.01c5.12,3.16,8.8,5.43,13.63,8.41
	c-4.26,0.43-7.4,0.74-12.12,1.21c3.13,2.41,5.16,3.98,7.19,5.54c-1.14-0.21-2.27-0.43-3.41-0.64c-1.71,8.03-3.41,16.07-5.1,23.98
	c14.55,6.14,22.55-3.52,32.59-10.01c-1.69,2.5-3.37,4.99-5.09,7.54c15.98,6.07,21.43,2.29,21.15-14.43
	c-0.08-4.7-0.01-9.41-0.01-14.12c1.14-0.02,2.27-0.03,3.41-0.05c0.81,8.2,1.62,16.4,2.52,25.49c5.14-2.01,9.3-3.63,13.46-5.25
	c0.53,0.54,1.05,1.08,1.58,1.63c-3.57,3.92-7.14,7.85-11.5,12.65c7.49,0,14.21,0,20.94,0c0.37,0.72,0.74,1.43,1.11,2.15
	c-5.99,3.47-11.98,6.95-18.9,10.96c6.8,4.42,13.21,8.59,21.24,13.81c-14.11,4.31-24.34-1.6-36.21-8.4c1.77,5.69,3.05,9.8,5.07,16.3
	c-10.72-4.72-19.74-8.7-29.09-12.81c-0.85,2.02-1.98,4.71-3.42,8.13c-2.48-2.68-4.41-4.77-5.5-5.95
	c-2.58,5.42-5.05,10.62-8.43,17.73c1.83,4.84,3.39,14.09,8.49,20.53c3,3.79,11.63,3.12,18.63,4.66c-0.36,0.67-1.25,2.3-2.57,4.72
	c6.98,1.81,13.79,3.58,22.61,5.88c0-8.95,0-16.97,0-25c1.21-0.03,2.42-0.06,3.63-0.09c0.54,7.81,1.09,15.62,1.67,24.03
	c5.47,1.06,10.9,2.12,18.35,3.56c-4.95,3-8.1,4.91-11.25,6.82c0.08,1.07,0.16,2.15,0.24,3.22c11.12,0.49,22.23,0.98,35.53,1.57
	c-4.24-13-7.74-23.71-11.89-36.42c5.98,0.31,10.01,0.52,15.23,0.8c0,4.59,0,9.02,0,17.06c6.2-10.37,8.46-22.08,20.57-16.53
	c7.92,3.63,9.13,11.42,6.92,20.68c-3.7-3.23-6.42-5.6-10.92-9.53c-1.72,7.41-3.04,13.09-4.86,20.9c10.09-0.55,18.44-1.01,26.78-1.47
	c0.42,0.86,0.85,1.72,1.27,2.58c-11.9,5.31-23.8,10.62-37.3,16.65c10.99,4.24,20.49,7.92,30,11.59
	c-17.18,4.16-32.85-4.31-48.93-4.63c-14.77-0.29-25.49-8.85-39.99-9.94c-0.37,0.86-1.65,3.83-3.52,8.21
	c-6.16-5.81-11.44-10.78-16.99-16c-0.25,3.09-0.5,6.09-0.87,10.64c-4.43-4.73-7.94-8.48-11.48-12.26
	c-2.12,10.09-3.45,19.66-6.19,28.8c-4.91,16.4-4.6,17.9,11.24,24.37c0.65-9.19,1.29-18.06,1.92-26.93c0.82-0.01,1.64-0.02,2.45-0.03
	c0.66,7.86,1.32,15.72,2.09,24.8c7.71-0.93,14.5-1.74,22.6-2.72c-1.26,4.06-2.3,7.41-4.45,14.36c9.9-3.58,20.24-4.25,24.35-9.65
	c4.3-5.65,2.63-15.86,5.78-24.31c0.73,7.66,1.45,15.31,2.24,23.62c3.42-0.41,6.72-0.81,10.01-1.21c0.6,0.74,1.21,1.47,1.81,2.21
	c-5.56,5.08-11.12,10.15-16.93,15.46c12.67,10.01,26.45,4.19,40.48,5.8c-6.51,3.48-13.02,6.96-22.34,11.93
	c11.93,4.94,21.75,9.01,34.27,14.2c-5.09,0.36-7.89,1.16-10.41,0.62c-10.67-2.25-21.19-5.19-31.89-7.28
	c-4.76-0.93-8.94-7.09-15.26-1.13c-1.26,1.18-9.57-5.11-15.49-8.44c0.33,2.94,0.61,5.34,1.08,9.55
	c-11.12-5.97-21.38-11.48-34.6-18.59c-1.54,8.82-2.86,16.76-4.34,24.66c-0.41,2.2-2.4,4.81-1.71,6.35c1.58,3.53,4.36,6.53,6.66,9.74
	c2.98-2.24,7.94-4.06,8.54-6.82c1.31-6.02,0.41-12.53,0.41-18.84c1.31-0.02,2.61-0.03,3.92-0.05c0.24,4.29,1.11,8.67,0.59,12.87
	c-1.48,12,4.37,14.33,14.56,12.11c3.32-0.72,6.82-0.65,11.35,1.23c-4.75,3.31-9.5,6.61-15.96,11.11c8.79,2.37,16.29,4.4,25.41,6.86
	c0.47-9.42,0.88-17.44,1.28-25.47c0.93,0.03,1.86,0.06,2.79,0.09c0.68,8.29,1.37,16.57,2.09,25.31c7.36,0.36,13.79,0.67,23.41,1.14
	c-6.04,4.03-9.66,6.45-15.43,10.31c12.04,0,21.95,0,31.87,0c-3.84-21.35-2.45-27.58,7.15-28.63c0.21,4.2,0.42,8.36,0.64,12.65
	c3.86-2.72,7.52-5.29,11.17-7.85c2.88,5.16,5.76,10.31,8.65,15.47c-0.73,0.68-1.46,1.35-2.2,2.03c-2.42-0.97-4.83-1.94-7.65-3.07
	c-0.52,2.97-1.04,5.98-1.76,10.14c8.6,0,16.54,0,27.82,0c-17.81,12.72-36.16,11.33-52.96,15.11c-0.26,1.05-0.53,2.11-0.79,3.16
	c17.09,6.56,34.19,13.12,54.07,20.74c-27.89,3.19-49.89-5.3-70.46-19.55c-0.8,0.62-1.6,1.24-2.4,1.86
	c6.93,12.06,13.87,24.12,21.32,37.09c-4.31-1.18-8.14-2.24-11.98-3.29c-0.74,0.9-1.48,1.8-2.22,2.7c9.6,10.23,19.2,20.47,28.8,30.7
	c0.53-0.26,1.06-0.52,1.59-0.78c-6.36-2.4-12.73-4.81-20.51-7.75c-0.56,7.86,13.68,17.67-3.14,22.29c-2.41-4.82-13.78-7.9-2-15.81
	c1.33-0.9-0.13-8.02-2.03-11.21c-3.16-5.29-7.74-9.72-12.11-14.99c-0.73,2.46-1.33,4.49-1.95,6.56c-7.57-7.51-7.57-7.51-13.14-42.63
	c-2.4,2.53-4.27,4.5-6.65,7c-1.71-3.06-3.32-5.93-5.09-9.08c-1.63,1.77-2.86,3.11-4.68,5.09c-1.74-3.18-3.32-6.08-4.9-8.98
	c-0.66,0.92-1.31,1.85-1.97,2.77c-4.25-2.97-8.5-5.94-12.75-8.91c-0.01,0.58-0.01,1.17-0.02,1.75c-6.33-1.59-12.66-3.19-18.18-4.58
	c-2.59,4.29-5.54,9.19-8.73,14.49c3.08,3.88,6.7,8.42,11.7,14.7c-4.43-1.07-6.79-1.64-11.6-2.8c5.19,6.13,9.07,10.71,13.69,16.17
	c-4.04-0.88-7.24-1.58-10.62-2.32c1.59,7.66,3.02,14.56,4.55,21.92c-1.26-0.3-3.17-0.76-3.82-0.92c-2.2,5.36-5.44,10.3-6.05,15.55
	c-0.66,5.74,1.11,11.77,3.63,17.88c7.24-10.55,16.36-19.78,14.51-33.58c-2-14.95,1.33-19.53,16.01-20.39
	c7.37-0.43,14.68,0.25,19.06-8.08c0.97-1.85,6.18-1.48,10.12-2.27c-4.36,17.96-9.46,32.88-31.67,36.04
	c15.99,11.35,20.1,25.55,22.55,40.86c1.5,9.41,7.05,11.26,15.1,5.61c7.77-5.45,11.41-2.31,11.63,6.38c0.1,3.9-0.12,7.81-0.12,11.72
	c0,8.94,1.08,16.17,13.32,11.25c2.75-1.1,6.77,0.64,10.13,1.42c8.96,2.07,17.87,4.34,27.83,6.77c-8.77,8.52-17.99,17.48-28.14,27.33
	c24.06-2.37,31.53,1.85,36.26,19.88c-55.08,0-109.95,0-166.77,0c0-99.76,0-199.61,0-299.45c-1.19,0-2.39,0-3.58,0
	c0,99.43,0,198.87,0,299.27c-56.81,0-111.98,0-167.2,0c3.27-17.26,12.96-22.85,35.4-21.53c-4.86-3.54-10.22-6.56-14.44-10.74
	C179.62,609.33,175.88,603.57,172.37,599.12z M251.35,623.43c4.19-22.75,8.28-44.99,12.37-67.22c-1.14-0.4-2.27-0.81-3.41-1.21
	c-2.42,5.37-4.4,11-7.36,16.06c-6.13,10.45-10.32-0.5-18.34-3.38c-1.65,8.45-4.57,16-4.26,23.41c0.58,14.18-3.29,24.43-17.73,29
	c-1.78,0.56-3.13,2.47-4.69,3.76c0.25,1.02,0.5,2.04,0.75,3.06C222.22,625.8,235.76,624.7,251.35,623.43z M428.49,565.8
	c-12.24,12.25-14.79,11.75-19.36,0.74c-1.65-3.97-3.96-7.66-5.96-11.48c-0.99,0.38-1.97,0.76-2.96,1.14
	c4.19,22.3,8.38,44.6,12.65,67.27c15.6,1.26,29.1,2.35,44.3,3.57c-1.84-3.79-2.13-5.47-2.82-5.66
	c-17.86-4.78-21.86-17.35-20.71-34.09C434.04,581.17,430.76,574.77,428.49,565.8z M361.97,558.15c0,19.61-0.1,39,0.14,58.38
	c0.03,2.18,1.81,4.51,3.26,6.4c0.33,0.44,3.58-0.29,3.91-1.11c2.06-5.16,5.67-10.73,5.06-15.72c-2.2-17.98-3.99-35.76,0.8-53.57
	c0.08-0.3-1.04-0.93-1.06-0.94C369.91,553.85,365.98,555.98,361.97,558.15z M288.67,550.9c0,3.18-0.67,5.71,0.11,7.67
	c4.95,12.4,4.12,24.57,1.47,37.5c-1.36,6.63,2.25,14.37,4.02,21.51c0.5,2.03,2.45,3.71,3.73,5.55c1.35-2.32,3.83-4.62,3.87-6.96
	c0.32-19.37,0.18-38.75,0.18-58.29C298.5,556.02,294.25,553.81,288.67,550.9z M276.02,588.65c-1.87-0.08-3.75-0.15-5.62-0.23
	c-1.69,10.7-3.37,21.4-5.03,31.94c10.82,2.49,14.12-0.87,13.13-9.06C277.58,603.76,276.83,596.2,276.02,588.65z M397.24,621.05
	c0.22-12,2.63-23.56-7.46-32.96C381.65,609.51,383.82,620.57,397.24,621.05z"/>
</svg>
