<svg id="Layer_1" data-name="Layer 1" xmlns="http://www.w3.org/2000/svg" viewBox="0 0 771 679"><defs><style>.cls-1{opacity:0.4;}</style></defs><title>havfrue</title><path class="cls-1" d="M719.92,401.7l-20.5-1.56,11.06,9.34-29.37-6.08,12.52,13.52-28-12.13-2.47,4q7,7.49,14,15c-.78.12-2,.61-2.28.28-29-31.93-69.81-21.77-105.56-29.69-11.42-2.53-23.94-4.74-33.29-11.05-27.74-18.73-61-13.26-90.23-23.19-34.31-11.68-52.29,8.85-74.05,27.64-19.52,16.85-35.28,35.69-49.31,57.25C300.93,478,263.7,484.1,229,491.19c-22,4.49-45.82,6.14-67.84,2.75-15.08-2.32-29-14.79-42.52-24-27.64-18.79-47.4-43.2-48.47-78.33a96.4,96.4,0,0,1,4.28-30.42c8.36-27.56,22.26-52.32,39.18-75.69,5.91-8.17,7.42-18,2-29.27-9.91-20.74-14.7-42.59,4.28-63.88,31.54,37.72,72.4,59.91,118,76.15,6.25-17.3,12.72-34,18-51.09.87-2.79-2.46-8.62-5.45-10.55-9.2-5.92-19.4-10.26-28.75-16-4.2-2.57-7.32-6.92-8.85-12.58l20.56,8.53,1.76-2.84c-2.68-3.91-5.37-7.81-10.19-14.84l15,8.11c.63-2.75,1.18-5.19,2.25-9.85,7.36,9,12.49,19.26,20.78,24.26,7.51,4.52,18.48,3.31,27.9,4.62-20.61,21.37-29.62,48.89-30.78,80-.74,19.6,8.34,27.5,28.76,23.21,23.74-5,47.57-9.84,71.57-13.22,22.41-3.14,26.2-5,35.06-26.33-20.38-21.43-21.47-44.28-3.38-68.23,6-8,11.52-16.38,17.73-24.21,9.87-12.46,21.7-13.3,33.15-2.84,19.68,18,31.12,19.3,55.78,6.24,12.64-6.69,17.56,4.81,25.43,10.07l-8.77,6.93,27.3,40.84L497,217.65l-.72,4c6.15,4,12.89,7.43,18.28,12.31s9.74,11.49,14.36,17.12c-10,13.3-21.88,6.59-32.94,5-10.55-1.47-20.5-5.91-28.66,7.26-2.64,4.27-14.61,4.18-22.16,3.68-11.9-.79-20.48,4.33-22.44,14.67-1.71,9-.77,20.32,3.51,28.15,4.15,7.58,13.25,13.86,21.58,17.52,39.61,17.37,80.2,31.95,122.49,41.94,18.87,4.47,36.29,15.59,55.22,19.17,23.66,4.46,48.22,4.12,72.37,6.16,7.68.66,15.28,2.33,22.92,3.53ZM236.06,277.32c-21.45,10.42-33.19,11.25-60.09,5.08-29.73-6.82-63.56,19.25-64.38,49.87-1.54,57.48,38.79,82.67,94,76.58,23.75-2.61,46.81-12.16,70-19.28,13.8-4.24,24.68-27.48,20.77-39.17-2.43-7.29-1.83-15.61-2.62-23.69-10,1.42-22.62,4-35.34,4.81-16.51,1-26.28-8.91-25.88-25.92C232.67,296.69,234.65,287.84,236.06,277.32Z"/></svg>