<?xml version="1.0" encoding="utf-8"?>
<!-- Generator: Adobe Illustrator 23.0.3, SVG Export Plug-In . SVG Version: 6.00 Build 0)  -->
<svg version="1.1" id="Layer_1" xmlns="http://www.w3.org/2000/svg" xmlns:xlink="http://www.w3.org/1999/xlink" x="0px" y="0px"
	 viewBox="0 0 771 679" style="enable-background:new 0 0 771 679;" xml:space="preserve">
<style type="text/css">
	.st0{opacity:0.4;}
</style>
<path class="st0" d="M590.25,455.79c-7.07,4.37-10.53,6.5-15.17,9.37c4.83,2.21,8.43,3.86,11.99,5.48
	c-2.01,12.45-8.62,9.73-18.88,2.34c0.79,13.74,1.4,24.34,2.01,34.95c-2.01,0.1-4.02,0.2-6.04,0.3c-2.06-8.31-4.13-16.63-5.44-21.91
	c-10.95,12.57-23.58,26.7-35.66,41.3c-1.81,2.19-2.02,6.82-1.21,9.85c2.76,10.38-3.5,13.12-11.23,12.69
	c-26.32-1.47-52.61-3.59-78.89-5.8c-2.87-0.24-5.56-2.65-8.36-6.02c15.4-2.61,27.41-9.14,35.44-21.58
	c2.62-4.06,5.14-8.87,5.55-13.52c0.74-8.51-21.64-38.06-29.69-41.46c-3.51-1.49-6.54-4.24-9.61-6.64c-3.18-2.48-6.35-5.04-9.16-7.92
	c-5.13-5.25-10-10.75-15.63-16.86c-0.81,0.9-3.09,2.52-4.16,4.73c-8.88,18.28-21.85,34.26-27.95,54.33
	c-2.28,7.51-12.39,12.86-19.37,18.65c-5.23,4.34-12.6,6.08-5.86,15.95c5.42,7.94-2.08,10.57-8.96,12.69
	c-8.51,2.63-16.64,6.44-24.1,9.4c6.31,8.15,11.11,14.35,15.48,20c-14.64,5.55-26.31,9.45-37.52,14.41
	c-6.76,2.99-12.48,8.38-19.27,11.26c-5.29,2.24-11.51,2.28-19.11,3.62c13.56-13.57,26.12-26.13,41.37-41.39
	c-6.24-4.93-11.39-9-17.27-13.64c2.64-1.87,5.01-3.55,4.63-3.28c-9.84-14.97-19.65-29.84-29.39-44.75
	c-7.61-11.64-15.85-22.95-22.46-35.14c-5.9-10.87-9.94-22.74-16.31-37.74c-7.16,12.56-12.83,22.5-18.5,32.44
	c0.86,0.58,1.73,1.15,2.59,1.73c2.53-2.39,5.06-4.79,8.63-8.16c3.14,3.43,6.08,6.64,9.7,10.6c-4.55,3.18-8.18,5.71-12.96,9.05
	c4.39,2.11,7.85,3.77,11.71,5.62c-2.08,12.44-9.54,8.73-15.89,5.12c-11.68,9.43,7.47,23.07-7.31,34.6
	c-2.39-11.43-4.23-20.2-5.26-25.12c-10.41,12.28-22.76,26.34-34.37,40.98c-2.28,2.87-1.04,8.3-2.67,12
	c-1.88,4.27-5.42,11.5-7.74,11.31c-19.77-1.58-41.03,4.87-58.73-9.37c-1.01-0.81-1.81-1.87-2.37-2.45
	c16.09-3.34,32.37-5.92,48.08-10.46c4.67-1.35,10.97-8.12,11.07-12.53c0.86-39.7,3.8-79.83-0.92-118.99
	c-2.26-18.8-5.23-34.98,0.48-53.86c3.67-12.15-1.75-27.04-3-40.7c-0.34-3.69-0.66-7.44-0.39-11.13c1.34-18.39,5.86-37.15,3.57-55.04
	c-2.69-21.03-10.83-41.25,0.58-62.02c1.08-1.96-0.34-5.3-0.44-6.31c-10.92-3.59-20.69-6.81-30.46-10.02
	c0.18-1.18,0.37-2.35,0.55-3.53c4.12-1.61,8.38-2.95,12.35-4.88c15.52-7.55,20.33-22.11,12.92-37.87c-1.14-2.43-2.38-5.71-1.65-7.97
	c3.26-10.15,7.22-20.08,11.22-30.88c13.16,15.66,15.98,32.21,7.48,47.73c61.72,11.86,119.39,3.51,176.57-23.92
	c-15.44-17.92,0.8-31.21,2.98-47.89c13.49,13.04,16.86,32.29,8.44,47.84c55.65,27.9,113.57,35.22,176.6,24.22
	c-15.29-18.7,1.43-31.88,5.3-47.46c2.7,14.68,20.38,25.71,7.65,43.96c-6.01,8.62,2.81,24.74,14.9,31.29
	c4.03,2.19,8.53,3.51,13.97,8.85c-9.58,3.44-19.16,6.88-32.29,11.59c2.17,6.71,5.71,15.22,7.52,24.09
	c1.35,6.63,1.39,13.86,0.36,20.56c-1.43,9.28-4.91,18.24-6.4,27.51c-0.42,2.6,2.44,7.63,4.87,8.48
	c14.48,5.07,20.48,16.72,25.32,29.76c1.05,2.82,3.41,5.16,5.51,8.21c6.59-10.67,12.6-20.38,19.25-31.14
	c-3.28-1.06-6.19-1.99-11-3.53c4.6-1.28,7.15-1.98,9.69-2.69c0-0.54-0.01-1.09-0.01-1.63c-4.48,0-8.95,0-14.32,0
	c6.76-11.04,26.93-0.07,27.69-18.34c-5.6-1.75-11.53-3.6-13.85-4.32c0-11.41,0-20.21,0-29.11c5.72-1.69,14.39-4.26,23.06-6.83
	c-0.99-0.68-1.97-1.36-2.96-2.03c4.03-8.8,8.07-17.61,12.1-26.41c0.5,0.54,1.01,1.07,1.51,1.61c4.7-4.65,9.4-9.3,14.74-14.59
	c4.18-1.69,10.07-4.06,15.96-6.44c-0.25-1.11-0.5-2.22-0.75-3.33c9.31,2.26,18.63,4.51,27.94,6.77c-0.16,0.93-0.31,1.87-0.47,2.8
	c-9.85,2.69-19.7,5.37-29.55,8.06c0.67,1,1.34,2,2.01,2.99c-3.81,2.79-7.7,5.48-11.4,8.4c-1.99,1.57-5.18,3.6-5.13,5.34
	c0.09,2.71,2.01,5.77,3.99,7.93c4.9,5.35,11,9.72,15.27,15.49c5.28,7.14,5.7,13.31-5.54,16.36c-8.94,2.43-9.51,13.65-0.6,20.99
	c-4.01,0-6.89,0-10.85,0c1.8,2.71,3.16,4.75,5.73,8.61c-8.16-1.57-14.59-2.8-21.4-4.11c-3.25,6.17-3.25,6.17,13.69,18.46
	c-4.71,2.41-8.83,4.53-10.98,5.63c-2.95,15.14-7.79,30.12-8.3,45.26c-0.55,16.06,3.01,32.25,4.49,45.84
	c15.46,10.22,29.29,19.36,43.03,28.44c-4.9,5.22-8.8,9.36-12.7,13.51c-0.14-0.3-0.29-0.6-0.43-0.89
	c-6.44,4.34-12.89,8.69-17.82,12.02c2.11,19.88,4.07,38.27,5.88,55.28c3.09-2.54,7-5.75,10.91-8.96c1.17,1.18,2.34,2.36,3.51,3.55
	c-1.65,3.32-3.3,6.65-5.78,11.62c7.34-1.71,14.54-12.62,18.33,2.09c-3.26,1.92-6.59,3.89-9.58,5.65
	c8.31,4.02,16.18,7.83,24.04,11.63c-0.66,2.03-1.32,4.07-1.98,6.1c-8.36-3.22-16.72-6.43-25.07-9.65
	c13.59,15.9,16.58,33.78,16.19,53.1c-0.21,10.59,0.26,21.19,11.42,28.16c3.63,2.27,4.39,9.11,7.31,15.81
	c-7.43,0-11.91,0.03-16.4-0.01c-5.12-0.04-11.8-2.28-15.09,0.13c-16.01,11.77-34.19,5.31-51.21,7.75c-0.49-1.14-0.99-2.29-1.48-3.43
	c7.59-2.85,15.63-4.86,22.65-8.73c10.7-5.89,22.55-11.5,30.09-20.45c3.03-3.6-3.7-15.86-6.65-23.94
	c-4.58-12.57-9.44-25.06-14.71-37.36c-3.66-8.55-7.76-16.97-12.44-25c-8.5-14.6-17.57-28.87-26.93-44.13
	c-3.18,5.95-7.29,13.63-10.7,20C579.23,448.27,583.85,451.42,590.25,455.79z M233.18,236.63c-0.5,1.54-2.35,4.85-1.66,5.5
	c5.08,4.83,10.66,9.12,16.74,14.13c-4.8,2.26-9.04,4.26-10.94,5.15c-2.83,14.68-5.78,29.29-8.37,43.97c-0.64,3.6-0.5,7.45-0.05,11.1
	c1.6,12.88,3.5,25.72,4.94,36.08c15.41,10.38,29.38,19.79,41.87,28.21c-5.19,6.09-8.7,10.21-12.21,14.32
	c-0.26-0.54-0.53-1.07-0.79-1.61c-6.31,4.24-12.62,8.49-17.32,11.65c2.32,20.04,4.45,38.5,6.29,54.37
	c3.45-2.11,7.51-4.59,11.56-7.07c0.7,1.21,1.4,2.42,2.1,3.63c-2,3.85-3.99,7.71-6.33,12.22c7.28-0.54,13.54-15.68,19.71,0.81
	c-3.46,2.08-6.76,4.06-9.44,5.66c8.19,4.19,15.95,8.17,23.7,12.14c-0.88,2.04-1.75,4.07-2.63,6.11c-7.69-3.31-15.39-6.63-20.04-8.63
	c8.6,14.16,17.96,29.56,27.41,45.11c11.57-17.93,37.66-23.93,44.3-47.9c4.31-15.54,8.47-31.18,11.41-47.02
	c1.53-8.2,0.27-16.92,0.27-22.74c-8.27-11.67-18.92-21.42-22.56-33.31c-3.8-12.41-0.85-26.89-0.85-38.98
	c-8.51-1.02-20.96,0.73-23.39-3.41c-6.99-11.92-9.93-26.21-14.46-39.57c8.68,2.82,14.2,8.29,20.63,12.3
	c7.81,4.87,16.39,8.51,25.49,13.12c2.48-8.08,4.44-14.51,6.5-21.21c-4.78-2.43-8.38-4.26-12.82-6.52
	c-1.61,4.55-2.94,8.28-5.74,16.19c-4.85-17.46-33.7-19.55-17.73-43.39c0.65-0.97-0.89-3.46-1.48-5.21
	c-5.87-17.58-11.78-35.15-17.62-52.74c-1.45-4.37-2.67-8.82-4-13.23c-1.09,1.96-2.17,3.92-3.26,5.87c0-6.61,0-13.21,0-19.82
	c-1.97-0.35-3.94-0.69-5.91-1.04c-2.1,7.48-3.53,15.24-6.56,22.32c-1.53,3.58-5.63,6.4-9.12,8.73c-7.11,4.73-7.99,13.51-1.52,19.21
	c0.42,0.37,0.31,1.34,0.48,2.21c-2.98,0.14-5.8,0.27-9.1,0.42c1.53,2.38,2.51,3.93,4.53,7.07C246.62,239.21,240.3,238,233.18,236.63
	z M443.77,270.34c-1.49,0.28-2.98,0.56-4.47,0.84c0,2.99,0.46,6.07-0.08,8.95c-1.82,9.59-1.67,20.56-6.51,28.38
	c-11.24,18.14-11.03,28.04,5.34,42.26c18.01,15.64,21.64,37.15,9.63,56.75c-0.91,1.48-2.4,3.91-1.86,4.77
	c7.09,11.11,2.07,27.42,18.03,35.59c7.03,3.6,11.1,15.39,13.91,24.29c5.09,16.08-2.87,36.09,14.68,48.47
	c3.51,2.48,8.62,7.32,10.64,6.32c4.18-2.07,9.54-7.28,9.61-11.29c0.69-40.62,3.7-81.65-1.13-121.7c-2.1-17.39-6.81-31.51,0.37-49.53
	c4.64-11.64-2.05-27.62-2.92-41.7c-0.38-6.25,0.98-12.62,1.78-18.91c0.39-3.1,1.87-6.13,1.89-9.2c0.06-8.75-0.13-17.52-0.68-26.25
	c-0.68-10.91,1.28-23.5-3.55-32.25c-5.92-10.73-6.23-17.1,0.15-27.52c3.92-6.4,4.6-21.99,0.74-24.61
	c-12.37-8.39-27.53-12.66-40.95-18.24c-2.97,4.78-6.47,8.55-7.72,12.95c-1.28,4.5-2.07,12.92-0.11,13.93
	c13.33,6.93,10.28,14.87,4.26,24.97c-2.44,4.08-3.62,11.31-1.63,15.18c5.29,10.3,12.62,19.55,19.12,29.19
	c-19.63,16.44,0.48,31.18-2.37,46.05c4.1,0.35,7.24,0.62,9.46,0.81c-0.97,5.84-3.75,11.39-2.08,14.72
	c3.92,7.85,9.96,14.64,15.14,21.86c-1.09,1.09-2.17,2.18-3.26,3.27c-7.76-7.63-15.52-15.26-22.34-21.96
	c-6.14-0.75-12.05-1.46-17.8-2.16c-5.21,9.18,12.57,20.08-1.26,30.62c-2.91-11.07-5.37-20.44-8.03-30.53
	c-2.08,0.43-4.92,1.03-8.76,1.83c2.45-6.2,5.93-11.27,6.15-16.47C447.42,283.51,445.02,276.9,443.77,270.34z M457.92,143.41
	c-21.36,1.93-43.58,16.91-61.59-6.65c-9.42,13.23-20.36,20.05-35.39,18.8c-15.36-1.29-24.27-11.17-30.02-22.44
	c-10.73,8.51-20.81,16.52-31.23,24.79c22.16-0.7,34.85,6.5,33.7,19.13c-14.72-14.58-30.06,4.21-44.95-2.44
	c-0.75,1.04-1.5,2.07-2.25,3.11c4.78,5.85,9.57,11.7,13.5,16.51c-1.32,24.99,11.83,47.47,20.12,70.11
	c3.62,9.87,19.63,15.2,29.53,22.24c7.68-11.14,11.93-20.55,19.02-26.68c7.27-6.28,17.31-9.35,26.32-13.92
	c-6.34-6.87-9.19-15.32-3.65-25.24c1.25-2.25,2.63-6.96,2-7.34c-11.45-6.99-1.59-9.27,2.84-10.59c14.08-4.2,21.88-12.79,23.15-27.62
	c1.01-11.7,11-19.36,20.15-13.69c9,5.58,10.72-1.05,13.89-5.05C455.45,153.4,455.98,148.92,457.92,143.41z M262.76,138.97
	c-11.91,12.37-26.72,11.75-43.91,8.01c-11.83-2.57-25.31,0.69-37.71,3.11c-7.04,1.37-13.19,6.8-20.1,9.51
	c-14.19,5.55-18.91,16.77-9.55,29.14c7.55,9.98,7.99,17.13,0.2,27.1c-8.01,10.24-6.35,30.23,1.9,33.36
	c12.74,4.84,18.62,14.66,23.35,26.16c1.56,3.79,4.02,7.2,6.51,11.57c7.08-11.8,12.96-21.58,19.1-31.82
	c-3.52-1.13-6.14-1.97-10.16-3.25c4.05-1.49,6.41-2.36,8.77-3.24c-0.24-0.62-0.47-1.24-0.71-1.87c-4.42,0-8.85,0-13.27,0
	c-0.06-0.84-0.12-1.68-0.19-2.52c7.52-1.34,15.05-2.68,22.71-4.05c1.6-3.7,3.33-7.68,5.15-11.87c-6.18-0.96-12.02-1.87-16.89-2.63
	c1.54-11.48,2.94-21.91,4.26-31.78c8.81,0.69,15.99,0.88,18.61-10.86c1.46-6.56,4.81-16.08,16.25-8.98
	c4.91,3.05,11.09,4.07,17.34,6.24c0-3.14,0-5.27,0-8.18c3.47,0.93,6.8,1.82,10.5,2.82c1.31-4.41,2.39-8.05,3.45-11.62
	c3.98,0.97,6.83,1.67,9.1,2.22c1.2-4.81,2.14-8.59,3.08-12.37c-1.1,1.1-2.2,2.2-3.31,3.31C272.6,150.84,267.94,145.21,262.76,138.97
	z M524.26,317.73c-0.4,17.41-3.44,30.91,6.87,43.32c2.81,3.38,1.31,11.28,0.2,16.78c-1.94,9.63-6.92,18.91-7.4,28.5
	c-1.13,22.79-0.36,45.67-0.36,68.52c0,8.53,0,17.06,0,28.09c23.98-29.25,27.14-62.78,35.86-94.88c-6.8-4.42-14.14-9.19-22.67-14.74
	c9.4-6.86,18.59-13.57,25.11-18.33c-2.24-13.53-4.2-25.35-5.78-34.93C545.61,332.71,536.29,326.17,524.26,317.73z M147.34,317.44
	c0,9.18-1.52,14.85,0.25,19.16c9.08,22.12,4.39,43.21,0.83,65.94c-4.5,28.72-1.12,58.68-1.04,88.11c0.01,3.28,0.63,6.57,1.14,11.53
	c21.7-29,27.93-61.39,34.21-94.38c-6.33-4.18-13.56-8.95-22.01-14.53c9.42-6.89,18.62-13.63,25.28-18.51
	c-2.42-13.36-4.57-25.18-6.32-34.79C169.25,332.71,159.92,326.21,147.34,317.44z M524.53,270.99
	c-3.38,17.29,12.35,21.56,18.02,32.06c1.3-0.77,2.6-1.54,3.89-2.32c-4.5-7.35-9-14.7-13.51-22.05c1.52-2,3.27-4.3,5.86-7.7
	C533.1,270.99,529.16,270.99,524.53,270.99z M167.18,302.87c1.02-0.69,2.04-1.39,3.06-2.08c-4.51-7.37-9.02-14.75-13.6-22.23
	c1.33-1.71,3.1-3.98,7.61-9.76c-8.08,2.11-13.02,2.13-15.78,4.59c-1.7,1.51-1.46,7.87,0.33,10.13
	C154.3,290.46,160.97,296.49,167.18,302.87z M428.95,186.41c2.84,0.38,5.68,0.76,8.52,1.15c0.73-6,1.45-12,2.18-18
	c-2.91-0.21-8.27-0.94-8.35-0.57C430.11,174.71,429.61,180.58,428.95,186.41z M444.22,191.01c1.94,2,3.88,4,5.82,5.99
	c4.4-4.04,8.81-8.08,13.21-12.12c-2.08-2.19-4.16-4.39-6.24-6.58C452.75,182.54,448.49,186.77,444.22,191.01z M459.15,279.41
	c-0.56,4.55-1.16,9.48-1.88,15.36c5.75,0.83,10.99,1.59,16.23,2.35c0.44-1.45,0.89-2.9,1.33-4.34
	C469.66,288.37,464.49,283.96,459.15,279.41z"/>
</svg>
