<?xml version="1.0" encoding="utf-8"?>
<!-- Generator: Adobe Illustrator 23.0.3, SVG Export Plug-In . SVG Version: 6.00 Build 0)  -->
<svg version="1.1" id="Layer_1" xmlns="http://www.w3.org/2000/svg" xmlns:xlink="http://www.w3.org/1999/xlink" x="0px" y="0px"
	 viewBox="0 0 771 679" style="enable-background:new 0 0 771 679;" xml:space="preserve">
<style type="text/css">
	.st0{opacity:1; fill: #fff;}
</style>
<path class="st0" d="M162.31,510.84c11.83,1.39,25.49,3.01,39.59,4.67c0-18.71,3.96-37.98-1.3-54.29
	c-3.94-12.23-6.24-23.25-5.91-35.66c6.25-2.64,12.17-5.15,20.57-8.7c-5.8-7.13-10.86-13.35-17.62-21.65
	c6.83-10.51,15.23-23.44,23.64-36.38c-0.28-0.74-0.57-1.47-0.85-2.21c-9.51,4.98-19.02,9.96-29.66,15.53
	c-0.38-3.18-1.3-6.14-0.98-8.95c3.34-29.68,0.56-60.11,11.7-88.93c1.58-4.08-3.12-10.59-7.3-15.67c-0.18,2.18-0.36,4.36-0.55,6.55
	c-0.87,0.34-1.73,0.68-2.6,1.02c-2.24-5.79-4.48-11.57-6.72-17.36c-0.34,0.47-0.67,0.95-1.01,1.42c-2.87-3.09-5.73-6.19-8.6-9.28
	c11.92-9.31-2.67-21.46,3.06-31.81c0.55-0.99-5.2-7.34-8.71-8.11c-2.76-0.61-8.67,3.03-9.36,5.75c-0.79,3.13,2.34,7.48,4.29,11
	c1.38,2.49,4.25,4.25,5.23,6.8c0.42,1.09-2.71,5.03-3.51,4.83c-3.19-0.8-6.74-2.09-9-4.35c-7.36-7.33-10.42-16.98-2.99-24.73
	c4.45-4.65,13.71-7.67,20.16-6.78c10.84,1.5,13.66,10.84,12.63,21.28c-0.51,5.15-0.09,10.4-0.09,13.04
	c6.98,1.79,11.02,2.36,14.43,4.12c0.65,0.34-1.14,5.4-2.06,9.41c5.61,4.26,5.16,4.25,4.87,15.42c-0.07,2.66,3.94,5.43,6.08,8.15
	c2.22-2.85,6.6-5.97,6.29-8.5c-1.75-14.23-4.63-28.32-7.18-42.72c-6.37,2.12-11.02,3.67-15.66,5.22
	c13.25-8.71,14.26-19.05,7.57-32.21c-1.15-2.27,2.13-9.04,5.09-10.77c13.81-8.07,28.22-15.09,43.21-22.9
	c8.63,13.63,14.51,29.38,34.08,20.32c-4.75,3.32-9.49,6.64-13.63,9.54c4.97,11.02,9.71,21.55,13.47,29.89
	c-6.59,10.06-11.94,18.24-16.09,24.58c19.85,14.15,36.66,26.14,56.17,40.06c4.68-15.35,11.16-28.27,12-41.53
	c0.95-15.02,13.3-20.46,20.59-31.69c3.18,1.99,7.55,3.76,10.62,6.83c8.38,8.4,10.13,22.15,25.48,25.28
	c12.27,2.5,23.49,10.15,35.55,15.69c5.88-16.81,11.55-33.05,16.03-45.87c-4.63-4.86-8.85-9.29-13.77-14.47
	c9.72-6.5,18.31-12.26,26.91-18.01c-14.41,3.81-19.37-5.75-24.42-15.44c-0.72-1.39-3.93-2.71-3.75-3.16
	c7.25-18.06-6.3-18.11-18.63-22.27c4.69-2.71,9.38-5.43,15.76-9.11c-3.25-15.45-6.64-31.61-10.27-48.92
	c18.06-4.19,36.8-8.53,57.09-13.23c3.4,16.02,6.71,31.61,10.21,48.12c6.84,0,13.11,0,19.38,0c0.43,1.04,0.86,2.07,1.29,3.11
	c-5.44,3.17-10.89,6.34-15.09,8.78c1.51,12.36,2.91,23.85,4.28,35.08c3.19,4.05,7.01,8.92,12.43,15.82
	c11.08-41.69,21.88-82.33,33.05-124.37c4.39,2.16,8.23,4.06,11.81,5.82c-5.59,28.58-5.61,28.61,19.39,43.16
	c10.72,6.24,21.53,12.3,32.86,18.77c2.89-10.09,5.41-18.88,7.92-27.63c11.28,1.17,12.46,7.21,10,16.39
	c-20.3,75.97-41.57,151.72-59.96,228.15c-8.06,33.5-12.71,68.37-13.92,102.79c-0.76,21.44,7.55,43.26,12.28,64.8
	c4.76,21.66,10.8,43.05,14.99,64.81c2.57,13.36,2.72,27.18,4.06,41.95c-13.67,1.26-26.73,2.47-39.83,3.68
	c1.72,17.32,0.81,19.47-15.39,16.62c-17.13-3.01-34.6-7.3-50.29-14.57c-22.15-10.27-41.91-10.17-60.97,5.08
	c-11.01,8.81-23.31,10.92-36.63,8.6c-20.41-3.55-39.52-1.04-57.44,10.05c-14.53,8.99-29.24,8.54-42.61-2.4
	c-10.55-8.63-20.37-8.73-31.57-1.22c-10.62,7.12-21.03,5.56-32.53-0.64c-7.36-3.97-17.44-4.56-26.14-4.06
	c-22.21,1.29-26.71-1.86-31.86-23.15c-4.94-20.43-4.7-39.76,3.95-59.56C160.3,535.57,160.14,523.62,162.31,510.84z M284.31,283.54
	c6.39,11.35,4.71,21.06-1.1,32.36c-7.76,15.1-0.58,23.86,16.36,22.98c2.31-0.12,4.63-0.19,6.94-0.13
	c46.59,1.29,83.57,19.98,108.14,60.51c13.97-12.82,27.46-25.18,38.41-35.23c0.41-6.66,0.15-11.31,1.1-15.7
	c1.42-6.47,6.49-13.5,5.03-18.96c-2.96-11.11-9.26-21.33-14.29-32.16c-19.97-0.47-37.87-7.44-53-21.88
	c-12.51-11.94-25.58-23.28-38.66-35.12c-4.56,19.8-7.69,37.02-12.61,53.71c-4.22,14.3-9.89,28.61-29.82,28.96
	C322.62,295.81,294.67,296.13,284.31,283.54z M583.94,184.55c4.71-17.4,9.17-32.87,12.86-48.53c0.62-2.62-1.26-7.48-3.49-8.84
	c-17.26-10.55-34.9-20.5-53.6-31.31c-4.65,17.11-9.33,33-12.98,49.12c-0.59,2.61,2.59,7.51,5.34,9.2
	C548.58,164.32,565.47,173.83,583.94,184.55z M493.95,526.6c4.21-16.08,8.66-30.55,11.45-45.34c0.79-4.19-1.87-11.31-5.29-13.61
	c-12.98-8.73-26.65-16.61-40.69-23.51c-3.73-1.83-11.66-0.85-14.35,1.99c-8.9,9.38-5.76,47.35,4.87,54.72
	C463.47,510.22,478.36,517.61,493.95,526.6z M561.5,253.04c1.63-0.63,3.26-1.26,4.89-1.9c3.94-14.63,8.15-29.19,11.63-43.93
	c0.79-3.37,0.38-9.4-1.68-10.69c-17.66-11.08-35.83-21.36-54.49-32.25c-1.04,3.66-1.87,5.04-1.67,6.24c0.27,1.63,0.93,3.58,2.11,4.6
	c18.96,16.36,22.67,40.29,31.11,61.9C555.57,242.56,558.77,247.71,561.5,253.04z M258.31,536.17c4.16,7.91,6.75,17.6,9.7,17.7
	c24.04,0.88,48,9.37,72.38-1.24c12.76-5.55,14.08-11.72,8.69-24.45C321.62,547.52,292.04,534.4,258.31,536.17z M261.74,504.21
	c15.18,1.36,28.96,3.95,42.63,3.44c12.99-0.49,25.96-3.79,38.7-6.84c3.35-0.8,5.82-5.29,8.7-8.08c-0.87-1.04-1.75-2.07-2.62-3.11
	c-4.14,1.68-8.44,3.04-12.38,5.09c-15.34,7.99-28.92,7.26-43.91-3.08c-8-5.52-20.23-4.9-31.12-7.17
	C261.74,492.87,261.74,497.89,261.74,504.21z M525.85,585.89c1.91-0.9,3.82-1.79,5.73-2.69c-5.19-22.9-10.38-45.8-15.58-68.7
	c-1.53,0.12-3.05,0.24-4.58,0.36c-3.87,15.3-7.73,30.6-12.25,48.49C520.27,558.05,523.63,571.35,525.85,585.89z M286.79,531.35
	c9.8,0.7,18.47,1.53,27.15,1.9c18.28,0.79,20.72-2.38,16.3-19.87c-14.53,0-28.91,0-43.45,0
	C286.79,519.41,286.79,524.38,286.79,531.35z M332.63,562.97c-15.48,0-30.27,0-45.06,0c0.7,13.43,16.41,22.06,34.29,20.2
	C337.05,581.59,333.88,571.74,332.63,562.97z M280.77,530.73c-0.4-7.98-0.66-13.3-0.94-18.88c-13.09-1.19-24.75-2.25-37.72-3.42
	c0.37,7.02,0.65,12.33,0.98,18.71C255.65,528.34,267.32,529.45,280.77,530.73z M468.06,547.77c-4.15,3.01-7.33,5.33-12.28,8.93
	c11.34,1.11,19.96,1.96,28.38,2.78c8.26-20.71,4.85-25.17-27.65-36.51C460.3,531.13,463.91,538.87,468.06,547.77z M496.53,409.36
	c-9.69,8.63-18.04,16.07-27.26,24.28c11.72,6.7,22.1,12.63,34.37,19.64C501.11,437.66,499.01,424.67,496.53,409.36z M254.78,484.6
	c-8.39-0.53-16.32-2.29-23.71-1.01c-4.42,0.77-8.01,6.33-11.97,9.73c4,2.91,7.68,7.53,12.08,8.36c7.42,1.39,15.29,0.38,23.61,0.38
	C254.78,496.85,254.78,491.96,254.78,484.6z M395.52,488.89c-0.95,0.22-1.89,0.44-2.84,0.66c0,19.77,0,39.54,0,61.06
	c6.72-1.82,11.65-3.16,15.59-4.23C403.91,526.75,399.71,507.82,395.52,488.89z M556.81,287.3c-7.45,1.15-13.47,2.09-19.55,3.03
	c-3.38,12.97-8.64,26.24,10.51,32.91C550.76,311.36,553.72,299.59,556.81,287.3z M244.6,576.35c19.5,2.53,34.84-4.04,35.33-14.98
	c-11.61-1.09-23.23-2.18-35.33-3.32C244.6,564.97,244.6,570.28,244.6,576.35z M340.03,526.25c21.61-5.52,22.86-7.39,15.72-23.55
	C335.91,508.41,335.62,508.84,340.03,526.25z M255.52,534.1c-5.68-0.38-11.4-0.76-15.98-1.07c-2.07,6.5-3.84,12.07-5.89,18.49
	c7.17,0,14.61,0,22.49,0c0-3.24,0.06-5.97-0.02-8.7C256.06,540.53,255.82,538.25,255.52,534.1z M238.17,559
	c-16.85-4.59-19.29-2.32-17.01,15.63c5.36,0.53,10.96,1.09,17.01,1.68C238.17,569.68,238.17,564.72,238.17,559z M223.35,580.62
	c10.78,20.08,18.63,20.59,30,3.31C243.66,582.86,234.3,581.83,223.35,580.62z"/>
</svg>
