<?xml version="1.0" encoding="utf-8"?>
<!-- Generator: Adobe Illustrator 23.0.3, SVG Export Plug-In . SVG Version: 6.00 Build 0)  -->
<svg version="1.1" id="Layer_1" xmlns="http://www.w3.org/2000/svg" xmlns:xlink="http://www.w3.org/1999/xlink" x="0px" y="0px"
	 viewBox="0 0 771 679" style="enable-background:new 0 0 771 679;" xml:space="preserve">
<style type="text/css">
	.st0{opacity:0.4;}
</style>
<path class="st0" d="M47.9,261.75c3.7,1,7.44,1.86,11.08,3.02c4.08,1.3,7.98,3.27,12.13,4.2c3.91,0.88,5.85-1.06,4.08-5.12
	c-2.52-5.79-4.85-11.7-7.93-17.18c-4.81-8.56-7.65-16.88-2.27-26.39c1.21-2.14,0.15-5.49,0.41-8.26c0.4-4.24-0.19-9.17,1.79-12.55
	c6.21-10.63,3.86-21.2,1.38-31.9c-1.57-6.79-3.96-13.4-5.28-20.23c-2.05-10.67-6.39-20.29-11.99-29.45
	c-4.51-7.38-9.14-14.68-13.9-22.32c1.99-2.2,3.96-4.38,6.41-7.09c11.95,13.98,20.75,29.56,30.27,44.82
	c7.01-15.75,13.8-31.01,20.86-46.85c3.54,1.74,6.2,2.51,8.05,4.18c0.96,0.87,1.13,3.58,0.55,5.02
	c-4.51,11.28-9.49,22.38-13.88,33.71c-1.66,4.29-2.71,8.98-3.08,13.56c-0.49,6.07,0.84,11.69,5.61,16.39
	c4.82,4.74,8.89,10.24,13.65,15.82c1.85-2.96,3.7-6.39,5.99-9.49c5.62-7.61,11.62-14.95,17.13-22.63
	c4.16-5.79,7.99-11.83,11.65-17.96c10.4-17.43,20.43-29.73,31.18-37.71c2.29,1.28,4.71,2.64,7.27,4.08
	c-3.53,5.74-6.97,11.04-10.1,16.51c-3.09,5.4-5.88,10.98-8.12,17.11c6.14-4.08,12.27-8.16,18.56-12.34c2.1,1.81,3.96,3.41,6.13,5.27
	c-1.33,1.51-2.37,2.75-3.47,3.92c-10.25,10.94-20.67,21.72-30.71,32.85c-7.86,8.71-12.28,19.33-15.24,30.55
	c-0.3,1.13,0.6,3.47,1.54,3.88c10.98,4.83,17.31,13.21,19.24,25.15c0.54,0.27,1.08,0.54,1.63,0.81c0.59-1.17,1.05-2.44,1.8-3.5
	c6.01-8.5,14.2-13.72,24.11-16.84c3.95-1.24,7.65-3.77,11.04-6.28c13.83-10.23,22.63-23.43,22.52-41.23
	c-0.05-8.08,5.65-10.72,12.49-14.6c-0.73,10.02-1.39,18.99-2.14,29.26c8.95-5.98,17.23-11.44,25.37-17.09
	c0.87-0.6,1.22-2.27,1.41-3.5c0.37-2.47,0.64-4.97,0.65-7.46c0.08-20.01,10.55-35.61,21.47-51.11c3.75,0.89,4.22,2.72,2.88,6.19
	c-4.01,10.38-7.68,20.89-11.39,31.38c-0.54,1.52-0.62,3.21-1.09,5.83c1.96-1.04,3.17-1.62,4.32-2.31
	c6.57-3.94,13.11-7.93,19.69-11.86c5.48-3.27,5.77-3.18,9.61,2.49c-8.54,6.39-17.08,12.79-25.63,19.18c0.3,0.53,0.6,1.06,0.89,1.59
	c5.67-1.68,11.33-3.4,17.01-5.04c4.64-1.34,9.39-2.35,13.94-3.94c3.87-1.35,5.6-0.05,6.33,4.51c-7.1,2.92-14.38,5.98-21.71,8.92
	c-7.25,2.91-14.44,6.06-21.87,8.46c-8.61,2.78-12.77,10.01-18.23,16c0.2,0.53,0.4,1.07,0.59,1.6c4.82-1.2,9.97-1.7,14.4-3.75
	c9.2-4.26,18.32-8.86,26.92-14.21c7.79-4.85,15.11-3.1,23.52-0.63c-1.49,1.08-2.43,1.89-3.48,2.5
	c-16.13,9.31-31.72,19.72-49.98,24.73c-1.77,0.48-3.48,1.34-5.27,1.52c-9.23,0.89-15.52,6.79-21.83,13.72
	c6.47-0.56,13.14-0.31,19.38-1.83c21.97-5.37,44.51-8.55,65.61-17.34c6.1-2.54,12.71-3.9,19.17-5.45c1.51-0.36,3.37,0.72,5.07,1.13
	c-1.09,1.22-1.97,2.78-3.31,3.6c-20.7,12.7-43.72,19.34-66.94,25.41c-1.45,0.38-2.9,0.76-4.32,1.21c-0.25,0.08-0.39,0.48-1.1,1.42
	c2.18,0.3,3.99,0.7,5.82,0.78c9.16,0.37,18.32,0.99,27.47,0.83c6.13-0.11,9.61,3.41,13.32,7.06c-0.02,0.55-0.05,1.1-0.07,1.65
	c-13.41,0.55-26.86,0.61-40.21,1.78c-13.56,1.19-27.02,3.48-41.09,5.36c1.75,4.19,2.63,8.74,5.2,11.94
	c4.86,6.04,8.05,12.16,5.54,20.31c0.62-0.37,1.23-0.73,1.85-1.1c1.55,1.67,3.65,3.09,4.56,5.06c3.91,8.45,7.45,17.08,11.18,25.62
	c0.51,1.16,1.31,2.19,2.16,3.59c3.14-3.54,4.82-6.65,3.55-11.43c-1.46-5.52,1.76-10.02,5.44-14.43c-1.42-1.23-2.94-2.54-4.75-4.1
	c4.52-1.3,8.55-2.45,13.39-3.84c-4.64-3.74-8.47-6.82-12.48-10.05c8.69-2.2,17.89-2.66,24.91-6.81c7.1-4.21,12.04-12.07,18.64-19.1
	c10.41,8.17,20.95,16.44,31.58,24.78c-8.44,8.99-16.28,17.3-24.07,25.66c-1.47,1.58-3.08,3.16-4.08,5.02
	c-0.71,1.32-0.49,3.14-0.84,5.98c3.53-1.86,5.61-2.84,7.58-4.02c6.68-4.01,12.83-1.79,18.86,1.57c0.75,0.42,1.26,1.46,1.62,2.32
	c0.51,1.22,0.93,2.52,1.14,3.83c2.2,13.6,4.5,27.18,6.47,40.81c1.38,9.58-2.22,17.49-9.83,23.22c-11.48,8.64-11.99,20.23-8,32.1
	c5.76,17.18,12.7,33.96,19.23,50.88c7.85,20.33,24.26,27.93,44.52,29.92c7.27,0.71,13.07-0.64,17.54-7.25
	c3.37-5,8.07-8.69,7.73-15.88c-0.25-5.37,4.02-8.27,9.44-6.95c6.86,1.67,13.54,4.23,20.14,6.81c3.07,1.2,4.86,1.2,6.11-2.18
	c1.88-5.08,4.39-9.96,5.94-15.14c1.07-3.58-1.13-5.21-4.83-4.47c-0.65,0.13-1.32,0.17-1.98,0.29c-8.46,1.59-9.38,0.65-7.4-7.99
	c0.74-3.23,1.79-6.39,2.82-10.02c-3.98-2.35-8.07-4.76-13.19-7.77c4.51-3.96,8.3-7.6,12.44-10.81c2.08-1.61,2.93-2.88,2.46-5.71
	c-1.21-7.31,2.25-10.54,9.55-9.82c1.66,0.16,3.75,0.05,5.03-0.83c13.21-9.1,24.15-2.55,31.36,8.84c0.97,1.53,1.82,3.26,2.21,5.02
	c2.16,9.79,8.52,15.88,16.79,21c12.56,7.77,22.13,18.49,28.87,31.77c9.83,19.37,7.8,38.34-1.75,56.95
	c-2.95,5.74-7.12,10.84-10.56,16.34c-0.91,1.46-1.82,3.36-1.68,4.97c1.68,19.58,2.89,39.31,10.2,57.83
	c3.82,9.68,8.75,18.93,13.44,28.93c6.38-4.47,11.66-8.45,17.25-11.96c2.76-1.73,5.97-3.05,9.16-3.72
	c8.46-1.78,17.01-3.08,25.52-4.62c9.06-1.63,17.7-0.95,26.31,2.88c5.09,2.26,10.85,3.13,16.37,4.31c7.96,1.7,14.89,4.93,19.24,12.16
	c6.19,10.27,15.03,17.19,26.15,21.4c9.89,3.75,15.97,10.8,18.43,21.54c-4.63,0-8.91,0.02-13.18,0
	c-62.98-0.28-125.95-0.76-188.93-0.8c-144.65-0.1-289.29,0-433.94,0.07c-12.66,0.01-25.32,0.27-37.97,0.72
	c-3.88,0.14-4.28-1.59-4.36-4.74c-0.71-29.31-1.59-58.62-2.22-87.93c-0.03-1.47,1.49-3.78,2.85-4.34
	c7.05-2.89,14.29-5.29,21.43-7.96c5.26-1.97,11.01-3.29,15.52-6.39c3.69-2.54,7.11-6.88,8.43-11.12
	c2.62-8.36,5.97-16.08,10.77-23.43c2.3-3.53,2.86-8.24,3.99-12.47c0.42-1.57-0.18-3.43,0.32-4.95c2.91-8.82-0.05-16.15-5.13-23.27
	c-4.94-6.93-6.57-14.34-4.11-23.07c2.72-9.64,0.56-19.21-4.38-27.94c-7.62-13.48-15.35-26.89-23.1-40.29
	c-2.24-3.88-3.23-7.7-2.32-12.34c2-10.16,0.74-19.94-5.47-28.6c-3.88-5.41-3.64-11.5-3.73-17.71c-0.06-4.04-0.91-8.11-1.81-12.08
	c-1.3-5.71-2.98-11.34-4.49-17C46.81,262.78,47.35,262.26,47.9,261.75z M210.72,517.38c1.01-0.96,1.58-1.54,2.19-2.08
	c16.1-13.94,32.09-28,48.36-41.73c5.96-5.02,12.95-8.48,21.45-10.3c-0.75,1.5-1.16,2.33-1.58,3.15
	c-5.62,10.95-14.71,18.32-25.12,24.31c-14.42,8.29-24.06,20.98-33.35,35.96c14.75-5.01,23.33-18.23,37.63-21.34
	c-1.63,2.86-3.4,5.49-5.57,7.74c-5.78,6-12.35,11.35-17.47,17.85c-7.16,9.09-13.37,18.94-19.76,28.62c-0.76,1.15-0.8,3.72-0.02,4.79
	c2.21,3.05,5.03,5.66,6.82,7.61c6.4-4.81,11.73-10.56,18.31-13.44c19.85-8.72,39.5-9.07,58.42,3.79
	c10.44,7.1,21.55,13.24,32.6,19.39c12.28,6.83,25.62,8.73,39.12,5.02c9.55-2.63,18.33-2.21,27.75,0.68
	c10.1,3.1,20.51,3.67,30.58-1.76c3.67-1.98,4.42-3.96,3.97-7.71c-4.15-35.05-8.12-70.13-12.28-105.18c-0.19-1.61-1.3-3.42-2.53-4.55
	c-10.13-9.4-10.17-9.36-24.32-10.02c-1.33-0.06-2.66-0.14-3.99-0.2c-17.49-0.85-31.78-7.26-39.87-23.72
	c-6.23-12.66-12.42-25.37-17.91-38.36c-2.98-7.04-4.46-14.71-6.94-23.2c-13.09,16.01-29.11,13.8-45.66,8.82
	c-4.9,21.31-6.73,41.86-2.44,63.94c-6.69-7.74-11.19-15.08-12.18-23.96c-0.76-6.76-1.08-13.61-1.02-20.41
	c0.07-8.29,0.73-16.57,1.16-25.43c-5.08,1.18-9.59,2.19-14.07,3.31c-0.73,0.18-1.7,0.71-1.94,1.31c-2.09,5.41-4.62,10.74-5.89,16.35
	c-1.57,6.95-1.98,14.16-3.01,21.24c-1.41,9.65-1.45,9.64-11.28,10.78c-1.64,7.05-4.95,13.17-11.72,16.97
	c-0.88,0.49-1.1,2.56-1.23,3.94c-1.02,11.25-1.2,22.58-7.39,32.77C203.62,493.68,204.24,505.36,210.72,517.38z M251.19,348.03
	c-3.37-3.94-5.99-7.64-9.29-10.58c-1.53-1.36-5.09-2.37-6.5-1.51c-3.5,2.12-7.45,4.84-9.16,8.33
	c-5.74,11.72-14.22,18.91-27.49,19.89c-3.41,0.25-5.72,2.18-6.21,5.44c-1.23,8.15-2.89,16.35-2.96,24.54
	c-0.11,11.53,1.06,23.06,1.69,34.61c8.33,0.47,15.57,1.89,21.42-4.22c-1.52-1.67-3.05-3.35-4.03-4.43
	c2.01-5.22,4.35-9.71,5.42-14.48c1.44-6.46,2.2-13.11,2.7-19.72c0.89-11.59,5.55-20.7,15.82-26.66
	C238.6,355.75,244.5,352.07,251.19,348.03z M212.25,216.73c-0.75,3.32-1.83,5.88-1.8,8.42c0.11,9.72-0.71,19.18-2.65,28.83
	c-1.31,6.53,1.02,14.15,3.02,20.9c2.42,8.14,2.29,15.47-1.72,23.03c-2.31,4.36-3.85,9.2-5.2,13.98c-0.84,2.99-0.68,6.27-0.96,9.42
	c0.54,0.28,1.09,0.57,1.63,0.85c2.82-2.38,6.15-4.37,8.36-7.23c6.24-8.08,12.15-16.33,22.97-18.77c2.67-0.6,5.28-1.49,8.1-2.3
	c-4.75-10.28-9.31-20.06-13.77-29.88c-2.09-4.6-5.22-9.35,1.69-13.33c-6.04-5.01-9.83-10.44-8.94-17.99
	c0.27-2.29,0.61-4.59,0.6-6.88c-0.01-1.29-0.27-3.21-1.11-3.75C219.42,220.12,216.09,218.68,212.25,216.73z M441.7,561.16
	c0.79,7.61,1.46,14.36,2.22,21.1c0.08,0.75,0.51,1.62,1.05,2.13c3.73,3.46,7.54,6.85,11.02,9.98c2.68-4.67,5.29-9.23,7.85-13.7
	c-3.05-2.8-7.44-5.11-9.01-8.67C452.3,566.25,447.83,564.02,441.7,561.16z M432.2,501.09c0.3-0.01,0.6-0.02,0.91-0.03
	c4.39-12.26,8.78-24.53,13.33-37.22c-5.66,1.19-11.24,2.36-17.34,3.64C430.15,478.87,431.18,489.98,432.2,501.09z M438.16,446.83
	c-2.19-2.41-3.81-4.19-5.84-6.43c-1.65,2.67-3.02,4.9-4.96,8.05C431.49,447.83,434.37,447.4,438.16,446.83z"/>
</svg>
