<?xml version="1.0" encoding="utf-8"?>
<!-- Generator: Adobe Illustrator 23.0.3, SVG Export Plug-In . SVG Version: 6.00 Build 0)  -->
<svg version="1.1" id="Layer_1" xmlns="http://www.w3.org/2000/svg" xmlns:xlink="http://www.w3.org/1999/xlink" x="0px" y="0px"
	 viewBox="0 0 771 679" style="enable-background:new 0 0 771 679;" xml:space="preserve">
<style type="text/css">
	.st0{opacity:0.4;}
</style>
<path class="st0" d="M134.56,515.85c-0.05-0.01-0.34-0.07-0.6-0.12c0.37-3.1,2.5-4.82,4.76-6.4c4.37-3.04,9.26-4.57,14.54-5.02
	c0.6-0.05,1.16-0.71,1.74-1.08c0.38-0.24,0.77-0.48,1.38-0.86c0.49-2.81,1.25-5.99,1.56-9.21c0.5-5.16,0.78-10.34,1.01-15.52
	c0.16-3.68,0.06-7.36,0.17-11.04c0.02-0.75,0.43-1.49,0.76-2.56c-2.26-0.2-4.22-0.41-6.19-0.53c-2.63-0.16-5.27-0.25-7.9-0.34
	c-0.82-0.03-1.07-0.28-1.05-1.21c0.08-3.93-0.04-7.87,0.03-11.81c0.04-2.2,0.33-4.4,0.45-6.61c0.19-3.63,0.3-7.26,0.5-10.89
	c0.17-3.02,0.49-6.03,0.63-9.04c0.05-1.04-0.25-2.09-0.4-3.13c-0.01-0.1-0.07-0.21-0.05-0.31c0.37-1.74,0.82-3.47,1.08-5.23
	c0.15-1.01-0.09-2.07-0.02-3.09c0.15-2.18,0.41-4.36,0.57-6.55c0.12-1.67,0.13-3.36,0.24-5.03c0.15-2.28,0.38-4.56,0.52-6.85
	c0.11-1.62,0.27-3.26,0.16-4.88c-0.11-1.64,0.72-3.2,0.56-4.65c-0.18-1.7,1.98-3.22,0.25-4.9c-0.04-0.04,0.2-0.31,0.23-0.48
	c0.16-1.02,0.36-2.05,0.41-3.07c0.03-0.67-0.47-1.76-0.22-1.94c0.98-0.71,2.13-1.44,3.29-1.6c2.34-0.33,4.73-0.28,7.1-0.4
	c0.31-0.02,0.62-0.14,1.07-0.25c-0.14-0.32-0.19-0.59-0.34-0.78c-3.56-4.43-4.66-9.76-4.95-15.17c-0.19-3.61,0.86-7.27,0.89-10.92
	c0.03-3.71,1.82-6.71,3.49-9.66c1.8-3.2,4.65-5.63,8.1-7.18c2.14-0.96,2.41-1.74,1.67-3.88c-0.95-2.76-1.94-5.52-2.58-8.36
	c-1.78-7.91-3.36-15.9-3.77-24c-0.26-5.3,0.3-10.66,0.65-15.98c0.26-4.02,1.15-7.88,2.89-11.6c1.41-3.03,3.65-5.16,6.15-7.17
	c4.87-3.9,10.61-3.94,16.4-3.86c0.88,0.01,1.8,0.21,2.64,0.04c0.45-0.09,1.11-0.79,1.11-1.21c-0.01-3.76-0.35-7.52-0.21-11.27
	c0.19-5.07,0.62-10.14,1.11-15.2c0.34-3.45,0.9-6.88,1.49-10.29c0.48-2.77,0.99-5.55,1.77-8.24c1.11-3.85,2.46-7.63,3.73-11.42
	c0.44-1.3,0.87-2.63,1.49-3.85c1.69-3.31,3.29-6.69,5.27-9.81c2.34-3.69,4.99-7.2,7.63-10.69c4.12-5.44,8.95-10.1,15.21-13.09
	c5.25-2.51,10.74-3.24,16.46-2.2c0.26,0.05,0.52,0.02,0.69,0.03c0.07-2.23,0.12-4.37,0.19-6.5c0.28-7.55,1.98-14.8,5.39-21.51
	c1.61-3.16,3.81-6.08,6.07-8.84c2.99-3.67,6.32-7.05,9.46-10.6c2.59-2.94,5.35-5.77,7.6-8.95c1.7-2.4,2.9-5.21,4-7.96
	c0.84-2.12,1.17-4.44,1.74-6.76c-1.04-0.24-1.93-0.44-2.81-0.64c-0.02-0.15-0.03-0.29-0.05-0.44c0.88-0.19,1.77-0.38,2.69-0.58
	c-1.7-1.86-3.68-1.85-5.85-1.06c-3.22,1.18-5.44,3.7-7.99,5.79c-3.07,2.52-6.22,4.9-9.97,6.42c-1.54,0.62-2.88,1.74-4.47,2.73
	c-0.18-0.6-0.3-1.03-0.31-1.06c-2.2-0.06-4.25-0.32-6.24-0.09c-0.89,0.1-1.96,1.04-2.39,1.89c-0.33,0.64,0.23,1.73,0.35,2.42
	c-1.79-0.68-2.27-1.75-0.88-3.49c1.75-2.17,1.75-4.9,2.64-7.33c0.77-2.11,0.73-4.5,1.27-6.72c0.34-1.41,1.09-2.72,1.67-4.06
	c0.19-0.45,0.45-0.87,0.66-1.31c0.63-1.31,1.25-2.63,1.87-3.95c0.07-0.15,0.16-0.3,0.19-0.46c0.34-2.3,1.81-3.99,3.02-5.85
	c2.38-3.65,4.69-7.36,6.92-11.11c1.41-2.39,3.71-3.53,6.07-4.46c4.82-1.89,9.7-3.66,14.61-5.3c5.29-1.77,10.74-3.1,15.95-5.07
	c4.67-1.76,8.34-0.24,12.07,2.29c4.19,2.84,8.46,5.58,12.77,8.24c2.8,1.73,5.74,2.37,9.15,1.5c9.22-2.35,18.47-1.15,27.64,0.52
	c3.28,0.6,6.41,1.99,9.66,2.83c0.96,0.25,2.23,0.17,3.11-0.26c8.21-4.08,16.81-5.47,25.92-4.39c4.48,0.54,9.04,0.89,13.54,0.74
	c4.47-0.16,8.51-2.19,12.38-4.39c3.74-2.12,7.47-4.25,11.18-6.41c3.67-2.14,7.46-1.44,11.27-0.56c6.35,1.47,12.09,4.49,18.02,7.04
	c2.89,1.24,5.89,2.21,8.73,3.55c7.71,3.65,12.33,9.88,14.82,17.93c1.24,4,2.81,7.91,4.24,11.85c0.62,1.71,1.22,3.43,1.87,5.12
	c0.15,0.4,0.43,0.99,0.73,1.04c1.64,0.3,2.34,1.61,2.93,2.84c0.52,1.08,0.66,2.36,0.83,3.57c0.03,0.21-0.53,0.6-0.88,0.76
	c-2.56,1.13-5.25,0.72-7.83,0.28c-2.86-0.49-5.65-1.44-8.47-2.18c-0.33-0.09-0.68-0.09-1.1,0.12c3.38,2.99,7.69,3.71,11.86,4.75
	c-0.04,0.17-0.09,0.33-0.13,0.5c-2.45-0.65-4.93-1.2-7.34-1.99c-4.71-1.53-8.05-5.08-11.7-8.17c-3.46-2.93-7.04-5.6-11.99-4.84
	c-0.36,0.06-0.73,0.13-1.23,0.22c0.16,0.57,0.22,1.06,0.43,1.49c2.56,5.26,4.9,10.66,7.8,15.72c1.84,3.21,4.34,6.12,6.88,8.84
	c6.57,7.05,12.9,14.3,16.83,23.2c2.36,5.33,3.44,11.05,2.99,16.96c-0.08,1.1,0.03,2.21-0.08,3.31c-0.15,1.46,0.37,1.97,1.87,1.89
	c5.45-0.3,10.75,0.8,15.57,3.16c6.65,3.26,11.85,8.41,16.33,14.25c2.04,2.66,3.94,5.45,5.76,8.27c3.31,5.14,5.55,10.78,7.22,16.65
	c1.11,3.92,2.28,7.83,3.1,11.81c1.14,5.51,2,11.08,2.94,16.63c0.51,2.99,1.16,5.99,1.35,9.01c0.25,3.95,0.12,7.93,0.12,11.89
	c0,1.52-0.08,3.05-0.14,4.86c3.53-0.36,7.13-1.19,10.52,0.36c3.24,1.48,6.39,3.19,9.57,4.8c-0.08,0.16-0.15,0.33-0.23,0.49
	c-0.63-0.29-1.25-0.58-2.29-1.07c0.37,0.6,0.47,0.88,0.67,1.06c4.61,4.25,7.65,9.33,9.42,15.43c1.6,5.51,2.31,11,1.94,16.64
	c-0.19,2.9-0.91,5.77-1.43,8.65c-0.72,3.96-1.44,7.92-2.27,11.85c-0.5,2.37-1.16,4.7-1.86,7.02c-0.33,1.08-1.42,2.12-1.33,3.11
	c0.17,1.93-0.88,3.33-1.36,4.96c-0.06,0.22,0.39,0.71,0.7,0.89c1.09,0.64,2.23,1.21,3.35,1.79c2.03,1.04,3.61,2.37,4.08,4.83
	c0.14,0.75,1.29,1.26,1.76,2.01c4.02,6.51,5.44,13.69,4.2,21.13c-0.92,5.53-3.37,10.58-8.21,14.35c4.09,1.34,8.19,0.08,12.15,0.99
	c-4.43,0.11-8.86,0.22-13.29,0.32c-0.02,0.26-0.04,0.53-0.06,0.79c0.57,0.14,1.14,0.41,1.7,0.4c3.26-0.04,6.52-0.12,9.78-0.24
	c2.9-0.11,3.16,0.02,3.38,2.8c0.41,5.28,0.74,10.56,1.14,15.84c0.54,7.25,1.36,14.48,1.62,21.74c0.4,10.92,0.41,21.86,0.63,32.79
	c0.11,5.57,0.25,11.15,0.49,16.72c0.06,1.32-0.35,1.6-1.57,1.56c-3.7-0.11-7.41-0.12-11.11-0.16c-0.6-0.01-1.2,0.04-1.48,0.05
	c-0.12,4.08-0.51,8.05-0.3,11.98c0.46,8.76,1.27,17.5,1.82,26.25c0.11,1.74,0.91,1.94,2.3,1.9c2.69-0.08,5.39-0.24,8.06-0.04
	c4.24,0.32,7.07,3.03,9.54,6.34c-5.26-6.55-12.16-6.63-19.55-5.2c0.32,1.41,1.3,1.66,2.48,1.67c4.19,0.04,8.32,0.47,11.94,2.8
	c1.51,0.97,2.78,2.3,4.16,3.47c0.58,0.5,1.16,1,1.7,1.54c0.3,0.3,0.74,0.69,0.72,1.02c-0.15,2.26,0.5,4.8-1.49,6.56
	c-1.65,1.45-1.28,3.43-0.54,4.57c1.96,3.01,2.1,6.45,2.97,9.69c1.51,5.57,1.91,11.29,1.71,17.07c-0.2,5.46-3.6,6.27-7.71,4.64
	c-3.71-1.48-6.83-3.96-9.21-7.24c-0.92-1.27-1.69-2.64-2.62-3.9c-0.4-0.54-1.03-0.9-1.56-1.34c-0.35,0.53-0.91,1.02-0.99,1.59
	c-0.23,1.46-0.39,2.95-0.32,4.42c0.53,11.96,1.15,23.92,1.67,35.88c0.48,11.09,0.85,22.18,1.27,33.28c0.04,0.94,0.17,1.89,0.04,2.81
	c-0.17,1.27,0.3,2.01,1.45,2.42c4.27,1.53,7.02,4.7,9.36,8.43c1.86,2.96,3.21,6.09,4.04,9.51c-3.15-7.12-6.14-14.35-14.85-17.31
	c0.16,1.72,0.2,3.03,0.44,4.29c0.09,0.44,0.62,0.93,1.06,1.14c5.11,2.45,9,6.1,11.32,11.34c0.11,0.25,0.18,0.56,0.36,0.74
	c3,2.86,2.65,6.81,3.43,10.4c0.24,1.12,0.56,2.23,0.9,3.57c-1.32,0.1-2.56,0.29-3.79,0.28c-8.01-0.08-16.02-0.19-24.02-0.32
	c-11.16-0.18-22.33-0.37-33.49-0.58c-0.52-0.01-1.32-0.22-1.49-0.58c-0.68-1.42-1.05-2.77-2.51-3.94c-2-1.6-3.39-4.03-4.85-6.23
	c-2.26-3.4-5.21-6.12-8.16-8.85c-3.85-3.57-8.63-3.92-13.52-3.94c-7.18-0.04-14.37-0.12-21.55-0.1c-9.61,0.03-19.23,0.2-28.84,0.2
	c-7.29,0-14.59-0.16-21.88-0.31c-1.25-0.03-2.5-0.56-3.75-0.55c-1.91,0.02-3.82,0.52-5.71,0.44c-4.52-0.19-9.02-0.71-13.54-0.9
	c-7.17-0.3-14.35-0.49-21.52-0.62c-8.28-0.15-16.57-0.15-24.85-0.28c-10.94-0.17-21.88-0.61-32.82-0.53
	c-14.25,0.1-28.5,0.71-42.75,0.89c-10.05,0.13-20.11-0.12-30.17-0.16c-6.63-0.02-13.26,0.08-19.89,0.06
	c-5.57-0.02-11.14-0.21-16.7-0.17c-3.29,0.02-6.63,0.05-9.86,0.6c-9.14,1.56-15.08,7.08-18.36,15.63c-0.4,1.03-0.86,2.05-1.13,3.11
	c-0.28,1.11-0.36,2.26-0.33,3.45c-2.02,2.03-4.85,1.45-7.43,1.55c-5.79,0.22-11.59,0.18-17.39,0.13
	c-6.96-0.06-13.92-0.08-20.87-0.42c-5.79-0.28-11.55-0.99-17.33-1.53c-0.31-0.03-0.82-0.16-0.86-0.32
	c-0.33-1.43-0.56-2.88-0.93-4.89c-1.23-0.71-0.32-2.21,0.12-3.63c0.32-1.01,0.73-1.99,1.1-2.99c0.02-0.05,0.02-0.14,0.05-0.15
	c2.09-1.15,1.59-4.09,3.73-5.31c0.8-0.45,1.22-1.58,1.79-2.42c1.6-2.38,3.96-3.79,6.41-5.1c0.29-0.15,0.58-0.36,0.76-0.62
	c0.68-0.98,1.32-1.99,2.04-3.09c-0.3-0.19-0.63-0.41-0.98-0.64c1.44-1.52,1.98-3.04,1.55-5.2c-0.35-1.77,0.27-3.73,0.43-5.61
	c0.05-0.63,0.01-1.27,0.02-1.9c0.04-3.77,0.08-7.53,0.14-11.3c0.01-0.43,0.15-0.86,0.25-1.28c0.08-0.32,0.4-0.74,0.29-0.92
	c-1.24-2.15,1.09-4.27-0.02-6.49c-0.34-0.68,0.22-1.78,0.28-2.69c0.13-1.96,0.18-3.92,0.29-5.88c0.19-3.23,0.39-6.46,0.6-9.69
	c0.11-1.64,0.33-3.29,0.32-4.93c-0.01-1.14-0.66-2.24-0.09-3.43c0.34-0.72,0.56-1.53,0.67-2.32c0.09-0.59-0.07-1.22-0.13-2.02
	c0.13-0.07,0.44-0.23,0.69-0.36c-0.26-1.25-0.36-2.54-0.82-3.68c-0.79-1.98,0.39-3.89-0.04-5.83c-0.23-1.01-0.3-2.06-0.44-3.08
	c-0.04-0.27-0.21-0.62-0.1-0.8c1.17-1.94,0.23-4.27,1.16-6.26c0.15-0.33-0.08-0.84-0.19-1.66c-0.63,2.18-0.99,4.03-1.71,5.74
	c-1.02,2.42-2.25,4.76-3.5,7.08c-0.93,1.74-2.02,3.39-3.05,5.07c-1.77,2.87-7.6,3.33-9.76,0.73c-1.42-1.71-2.56-3.46-2.88-5.81
	c-0.17-1.26-1.1-2.39-1.34-3.86c-0.54-3.37,0.81-6.43,1.09-9.65c0.16-1.91,1.6-3.68,1.97-5.61c0.3-1.57,1.11-3,1.25-4.5
	c0.14-1.49-0.41-3.08-0.81-4.58c-0.43-1.63-1.21-3.19-1.51-4.83C133.88,517.9,134.36,516.87,134.56,515.85z M507.74,434.58
	c5.37,0.59,11.6-0.59,12.98-5.43c-0.97-0.03-1.86-0.14-2.74-0.07c-3.95,0.31-7.85,0.11-11.63-1.15c-3.63-1.21-4.71-2.87-4.64-7.15
	c2.71,2.4,5.86,3.38,9.2,4.03c3.78,0.74,6.93-0.84,8.93-3.53c-3.64,1.4-7.24,2.7-11.1,1.45c-2.4-0.77-4.75-1.67-7.08-2.62
	c-0.36-0.15-0.5-0.86-0.74-1.31c0.12-0.11,0.24-0.22,0.36-0.33c2.82,3.07,6.54,4.1,10.36,4.1c3.89,0,7.57-1.2,10.3-4.79
	c-1.87-0.47-3.5-0.76-5.14,0.03c-5.67,2.73-10.75,1-15.63-2.11c-0.77-0.49-1.37-1.2-0.42-2.15c0.77-0.76,1.43-1.64,2.23-2.35
	c3.61-3.19,8.73-3.73,13.03-1.46c0.62,0.33,1.32,0.53,1.98,0.78c0.08-0.14,0.16-0.29,0.24-0.43c-0.49-0.41-1.02-0.77-1.46-1.22
	c-4.81-4.89-9.73-4.19-14.54-1.82c-0.36,0.18-0.8,0.22-1.2,0.33c-0.06-0.46-0.19-0.92-0.16-1.37c0.03-0.37,0.23-0.73,0.39-1.08
	c2.46-5.62,7.45-7.48,13.51-6.97c1.49,0.13,2.95,0.56,4.5,0.87c-4.4-4.94-12.22-5.07-18.8-0.12c-0.37-0.69-0.98-1.32-1.01-1.97
	c-0.09-2.03,0.08-4.08,0.06-6.12c-0.01-1.69-0.13-3.39-0.2-5.08c-0.39,2.32-0.42,4.62-0.53,6.91c-0.13,2.69-0.39,5.38-0.46,8.07
	c-0.06,2.35,0.08,4.71,0.12,7.06c0.03,1.93,0.08,3.86,0.07,5.78c-0.01,3.73-0.06,7.47-0.1,11.2c-0.02,2.31-0.15,4.62-0.07,6.92
	c0.05,1.47,0.49,2.92,0.55,4.39c0.16,3.92,0.18,7.84,0.31,11.75c0.02,0.5,0.32,0.99,0.48,1.48c0.29-3.06,0.36-5.95,0.46-8.83
	c0.09-2.67-0.57-5.42,0.71-8.07c4.09,4.47,12.6,5.89,16.13,2.63c-2.23,0.17-4.3,0.43-6.36,0.44c-0.95,0.01-1.9-0.46-2.86-0.71
	L507.74,434.58z M241.22,421.31c0.11,0.61,0.39,1.26,0.28,1.83c-0.12,0.62-0.66,1.14-0.93,1.74c-2.73,6.12-11.28,8.33-16.92,5.53
	c-0.46-0.23-0.94-0.44-1.61-0.75c0.89,2.18,2.9,4.08,6.42,5.43c5.63,2.16,9.83-0.65,13.64-4.58c-0.06,1-0.37,1.78-0.41,2.57
	c-0.23,4.17-0.42,8.34-0.56,12.51c-0.02,0.49,0.34,1,0.52,1.5c0.14-0.06,0.29-0.11,0.43-0.17c0.23-2.16,0.55-4.31,0.68-6.47
	c0.34-5.88,0.58-11.77,0.88-17.66c0.15-2.92,0.39-5.84,0.55-8.76c0.11-2.02,0.13-4.04,0.19-6.03c-0.12-0.05-0.66-0.18-0.66-0.32
	c-0.01-1.06,0.01-2.13,0.17-3.18c0.3-1.99,0.78-3.95,1.03-5.94c0.1-0.78-0.35-1.62-0.32-2.43c0.12-3.29,0.32-6.58,0.52-9.87
	c0.09-1.51,0.27-3.01,0.41-4.51c-0.19-0.11-0.38-0.22-0.57-0.32c-0.36,0.49-1.01,0.97-1.04,1.48c-0.19,3.13-0.25,6.27-0.35,9.41
	c-0.09,2.89-0.17,5.78-0.26,8.72c0.13-0.01-0.05,0.04-0.19,0c-0.15-0.04-0.35-0.15-0.39-0.27c-0.77-2.25-2.89-3.1-4.58-4.37
	c-2.31-1.72-4.95-2-7.73-1.56c-3.31,0.52-5.84,2.4-8.33,4.48c-1.06,0.88-1.25,1.65-0.82,2.91c1.1-0.56,2.09-1.13,3.13-1.6
	c6.33-2.88,13.57-2.22,17.44,5.17c0.13,0.25,0.08,0.58,0.11,0.88c-0.24,0.03-0.52,0.14-0.73,0.07c-2.07-0.71-4.11-1.54-6.2-2.15
	c-3.6-1.05-7.25-1.84-10.63,0.68c-1.68,1.25-3.33,2.52-4.94,3.86c-0.38,0.32-0.53,0.92-0.78,1.39c0.11,0.1,0.23,0.2,0.34,0.3
	c0.56-0.3,1.14-0.57,1.67-0.92c1.38-0.91,2.62-2.13,4.11-2.75c5-2.08,10.06-2.23,15.05,0.19c0.25,0.12,0.5,0.28,0.76,0.32
	c1.82,0.27,2.18,0.71,2.1,3.12c-3.18-3.86-7.49-4.11-11.66-4.33c-4.61-0.25-8.06,2.31-11.51,5.8c0.98,0.13,1.57,0.37,2.03,0.23
	c0.88-0.28,1.7-0.77,2.52-1.2c4.55-2.39,9.06-1.95,13.5,0.24c1.31,0.65,2.55,1.51,3.66,2.46c0.59,0.5,1.54,1.5,0.46,2.21
	c-2.13,1.41-4.3,3.09-6.7,3.7c-3.26,0.83-6.67,0.24-9.93-0.87c-1.25-0.42-2.64-0.45-3.97-0.66c-0.09,0.26-0.17,0.52-0.25,0.77
	c2.04,1.14,4.06,2.32,6.13,3.4c3.05,1.59,6.21,1.96,9.39,0.41c1.53-0.74,2.96-1.68,4.46-2.49c0.35-0.19,0.8-0.21,1.21-0.23
	c0.07,0,0.26,0.5,0.23,0.52c-0.33,0.22-0.69,0.4-1.04,0.6c-0.45,0.6-1.01,1.16-1.35,1.82c-2.4,4.67-9.23,7.43-14.97,5.2
	c-1.76-0.68-3.47-1.49-5.19-2.24c0.2,1.58,1.52,1.9,2.59,2.67c3.42,2.45,7.15,2.67,10.85,1.46
	C237.43,428.88,240.38,425.96,241.22,421.31z M392.77,391.24c1.29-1.82,2.58-3.65,3.87-5.47c-0.07-0.05-0.14-0.1-0.2-0.16
	c-3.49,3.66-6.98,7.32-10.47,10.98c0.07,0.07,0.13,0.13,0.2,0.2c1.56-1.15,3.12-2.3,4.68-3.45c-2.35,2.15-4.67,4.34-7.08,6.43
	c-0.86,0.74-1.05,1.24-0.21,2.12c1.63,1.72,3.22,3.49,4.74,5.31c1.7,2.05,3.65,3.95,4.63,6.52c0.09,0.24,0.34,0.61,0.51,0.61
	c1.42-0.02,1.67,1.25,2.31,2.05c0.43,0.54,0.73,1.2,1.17,1.95c5.18-5.63,10.26-10.32,15.99-14.3c1.98-1.38,1.87-1.54,0.16-3.42
	c-0.07-0.08-0.12-0.19-0.19-0.27c-2.45-2.97-4.76-6.07-7.4-8.87c-1.83-1.94-4.08-3.49-6.18-5.16c-0.91-0.72-1.68-0.42-2.42,0.43
	C395.56,388.27,394.15,389.74,392.77,391.24z M482.72,399.51c2.36,1.1,3.93,2.96,5.17,5.34c-0.69-0.02-1.18-0.03-1.68-0.05
	c-0.01,0.14-0.03,0.28-0.04,0.43c0.65,0.1,1.4,0.02,1.92,0.34c0.55,0.33,0.88,1.04,1.3,1.58c-3.78-2.4-7.75-3.07-12-2.64
	c-3.37,0.34-6.15,1.94-8.7,4.03c-0.26,0.21-0.56,0.78-0.46,0.94c0.19,0.31,0.68,0.66,1.02,0.63c1.86-0.13,3.78-0.12,5.55-0.63
	c2.39-0.7,4.74-1.1,7.18-0.61c2.43,0.49,4.53,1.55,6.01,3.61c-2.11-1.34-3.99-3.16-7.1-3.12c2.83,1.58,5.33,2.98,7.93,4.44
	c-0.06,0.11-0.11,0.4-0.28,0.55c-1.79,1.66-3.87,2.94-6.33,2.9c-3.51-0.06-7.01-0.4-10.51-0.73c-1.69-0.16-3.08-0.04-3.5,2.4
	c6.56,3.98,13.5,4.99,20.93,2.08c0.11,0.12,0.22,0.25,0.33,0.37c-0.85,0.71-1.7,1.42-2.55,2.13c2.79-0.58,2.79-0.58,3.21-0.15
	c-2.95,3.04-6.29,5.42-10.67,5.78c-4.18,0.34-8.23-0.17-12.08-2.39c1.7,4.84,6.7,8.22,11.37,7.72c4.28-0.45,8.41-1.37,11.45-4.83
	c0.22-0.26,0.67-0.32,1.17-0.55c-0.2,2.43-0.53,4.54-0.53,6.65c0.01,3.91,0.21,7.82,0.34,11.73c0.03,0.88,0.18,1.66,1.65,1.62
	c-0.15-1.42-0.42-2.75-0.41-4.09c0.03-5.27,0.21-10.54,0.21-15.81c0-7.38-0.09-14.75-0.18-22.13c-0.11-8.64-0.27-17.29-0.39-25.93
	c-0.01-0.99-0.36-1.44-1.71-1.15c0.24,5.83,0.47,11.66,0.72,17.75c-0.52-0.26-0.92-0.39-1.24-0.62c-1.41-1.04-2.76-2.19-4.22-3.16
	c-3.04-2.04-6.43-1.44-9.63-0.73c-1.9,0.42-3.76,1.56-5.35,2.76c-1.46,1.1-2.5,2.73-2.54,5.07c1.46-0.82,2.7-1.49,3.91-2.2
	c3.77-2.2,7.26-1.98,10.75,0.68c-0.52-0.18-1.08-0.29-1.54-0.56c-2.63-1.56-5.31-1.33-7.9-0.05c-1.57,0.78-2.98,1.89-4.47,2.86
	c0.08,0.15,0.15,0.3,0.23,0.45c3.91-2.28,8-3.43,12.51-2.19C481.89,400.14,482.34,399.7,482.72,399.51z M350.47,253.95
	c-1.08,0.73-2.32,1.29-3.2,2.21c-2.93,3.05-6.04,5.99-8.49,9.39c-3.51,4.88-5.8,10.47-7.72,16.17c-0.31,0.92-0.87,1.76-1.12,2.68
	c-1.16,4.26-1.66,8.62-1.9,13.02c-0.27,4.92-0.32,9.8,0.94,14.61c1.94,7.39,5.75,13.84,10.05,20.04
	c4.27,6.16,9.97,10.82,16.85,13.49c8.96,3.48,18.27,2.79,27.36,0.08c6.39-1.9,11.63-5.74,16.54-10.25
	c3.87-3.56,7.24-7.42,9.62-12.05c2.74-5.32,4.33-11.06,5.05-17.01c0.59-4.81,0.77-9.62-0.24-14.41c-0.09-0.43-0.13-0.88-0.11-1.32
	c0.16-4.26-1.32-8.22-2.47-12.19c-0.77-2.68-2.25-5.18-3.59-7.67c-1.4-2.6-2.8-5.25-4.58-7.59c-2.91-3.82-6.45-7.02-10.45-9.76
	c-4.42-3.04-9.15-5.45-14.12-7.31c-3.58-1.34-7.36-1.74-11.13-0.35c-5.88,2.18-11.79,4.29-16.86,8.15c1.8-1.4,3.43-3.16,5.43-4.12
	c3.9-1.86,8.02-3.26,12.04-4.86c0.31-0.12,0.6-0.32,0.9-0.48c-7.77,0.89-14.08,4.71-19.96,9.38c0.07,0.16,0.14,0.32,0.21,0.48
	C349.84,254.18,350.15,254.06,350.47,253.95z M264.13,594.19c0,0.06,0,0.11,0,0.17c4.19-0.05,8.39-0.03,12.58-0.19
	c2.92-0.11,5.81-0.57,8.12-2.63c2.1-1.88,4.48-3.45,5.53-6.34c0.48-1.33,1.13-2.91,1.92-3.82c1.13-1.31,0.81-2.5,0.84-3.71
	c0.16-6.17,0.18-12.35,0.25-18.53c0.12-11.7,0.23-23.4,0.36-35.1c0.04-3.92,0.11-7.84,0.21-11.75c0.07-2.97,0.28-5.93,0.31-8.9
	c0.07-7.05,0.17-14.1,0.07-21.15c-0.05-3.57-0.28-7.17-0.81-10.69c-0.9-5.93-4.17-8.47-10.33-9.17c-2.2-0.25-4.47,0.11-6.71,0.09
	c-2.58-0.02-5.15-0.21-7.72-0.21c-7-0.02-14-0.01-21,0.03c-11.71,0.07-23.42,0.28-35.12,0.19c-4.62-0.04-8.82,1.19-12.87,3.07
	c-2.73,1.27-4.13,3.97-4.83,6.65c-1.12,4.31-1.97,8.73-2.41,13.16c-0.71,7.14-0.99,14.33-1.46,21.49c-0.25,3.8-0.58,7.6-0.79,11.41
	c-0.3,5.5-0.53,11-0.79,16.49c-0.09,1.87-0.2,3.75-0.32,5.62c-0.47,7.46,0.81,14.94-0.53,22.4c-0.6,3.33-0.78,6.8-0.63,10.18
	c0.2,4.56,0.88,9.11,1.4,13.65c0.06,0.53,0.28,1.09,0.58,1.53c2.42,3.57,5.72,5.75,10.09,6.03c2.47,0.16,4.95,0.16,7.43,0.2
	c9.77,0.15,19.54,0.41,29.31,0.38C245.92,594.74,255.02,594.4,264.13,594.19z M493.23,462.52c-2.12-0.06-4.32-0.04-6.51-0.21
	c-7.15-0.55-14.29-1.42-21.45-1.67c-4.62-0.16-9.11,1.28-12.97,3.94c-3.56,2.45-4.57,6.41-5.17,10.39
	c-1.14,7.67-1.17,15.39-0.87,23.14c0.45,11.54,0.96,23.09,0.87,34.63c-0.1,13.37-0.89,26.73-1.22,40.09
	c-0.11,4.33,0,8.64,1.91,12.78c1.72,3.73,4.42,6.18,8.25,6.99c3.31,0.7,6.78,0.79,10.19,0.84c4.88,0.06,9.75-0.23,14.63-0.25
	c8.11-0.03,16.22,0.15,24.33,0.04c8.93-0.11,17.86-0.4,26.79-0.7c3.44-0.12,6.96,0.14,10.21-1.51c2.37-1.2,4.73-2.8,5.25-5.3
	c0.93-4.52,1.32-9.18,1.56-13.8c0.25-4.83,0.02-9.69,0.08-14.54c0.06-5.2,0.26-10.41,0.32-15.61c0.04-3.9-0.01-7.8-0.08-11.7
	c-0.07-4.07-0.2-8.13-0.33-12.2c-0.13-4.02-0.32-8.03-0.44-12.05c-0.09-3.27-0.02-6.55-0.19-9.82c-0.19-3.84-0.46-7.69-0.88-11.51
	c-0.3-2.71-0.92-5.39-1.35-8.09c-0.58-3.67-1.59-7-4.3-9.88c-2.28-2.44-4.78-3.93-7.95-4.6c-4.2-0.88-8.42-0.86-12.7-0.81
	c-7.35,0.09-14.7-0.19-22.05-0.3c-1.25-0.02-2.5,0.06-3.74,0.1c0.07,0.14,0.14,0.28,0.2,0.42c-0.36,0.59-0.72,1.18-1.09,1.79
	c0.83,1.28,1.67,2.64,2.57,3.96c0.84,1.25,1.43,1.17,2.09-0.19c0.48-0.99,0.89-2.03,1.52-2.93c0.32-0.45,1.04-0.62,1.58-0.91
	c0.19,0.44,0.49,0.87,0.56,1.33c0.22,1.42,0.35,2.86,0.52,4.29c0.19,0.06,0.39,0.12,0.58,0.18c0.86-1.08,1.73-2.16,2.58-3.25
	c0.93-1.2,1.83-1.27,2.45-0.4c-0.56,2.29-1.1,4.22-1.46,6.18c-0.06,0.34,0.51,1.08,0.91,1.19c2.38,0.65,3.69,2.73,5.58,3.98
	c1.26,0.83,2.92,1.07,4.44,1.42c0.26,0.06,0.9-0.59,1.03-1.01c0.37-1.19,0.58-2.44,0.85-3.67c1,0.03,2.04,0.13,3.06,0.08
	c2.04-0.11,2.45,0.09,2.57,2.16c0.47,8.1,0.9,16.2,1.25,24.31c0.08,1.92,0.34,3.68,1.36,5.36c2.45,4.02,2.08,7.85-1.03,11.4
	c-0.79,0.91-0.18,1.32,0.55,1.77c5.3,3.27,10.59,6.55,15.87,9.84c0.36,0.23,0.64,0.58,0.96,0.88c-0.08,0.11-0.16,0.21-0.24,0.32
	c-3.47-2.08-6.94-4.16-10.4-6.24c3.15,2.74,6.49,5.15,9.84,7.53c1.19,0.85,1.25,3.17,0.34,4.31c-1.25,1.55-2.64,1.2-4.18,0.78
	c-1.9-0.51-2.58,0.09-2.27,2.03c0.08,0.48,0.51,0.92,0.85,1.32c0.46,0.54,1.19,0.94,1.44,1.56c1.22,2.98,2.47,5.96,3.43,9.02
	c1.75,5.59,2.52,11.31,2.21,17.22c-0.24,4.47-0.72,8.88-1.8,13.21c-0.1,0.4-0.29,0.91-0.61,1.1c-1.58,0.96-3.21,1.84-4.93,2.81
	c-0.17,1.9-0.39,3.87-0.49,5.85c-0.05,0.96-0.38,1.42-1.37,1.43c-1.6,0.02-3.25,0.34-4.79,0.04c-1.02-0.2-2.46-1.08-2.7-1.94
	c-0.46-1.68-0.38-3.58-0.22-5.36c0.14-1.46-1.01-1.84-1.5-3.23c-0.23,0.69-0.32,0.84-0.31,0.98c0.02,0.38,0.07,0.76,0.14,1.13
	c0.29,1.64-0.17,2.21-1.85,2.34c-0.6,0.05-1.2,0.16-1.81,0.22c-1.76,0.16-4.55-1.64-4.72-3.34c-0.17-1.79-1.29-1.6-2.34-1.4
	c-2.27,0.43-4.51,1.02-6.93,1.58c0.32,0.67,0.68,1.23,0.84,1.85c0.15,0.56,0.18,1.18,0.09,1.75c-0.49,3.1-2.33,4.14-5.26,3.04
	c-1.06-0.4-2.13-0.78-3.4-1.25c0.03,0.72,0.05,1.25,0.07,1.78c0.07,1.7-0.43,2.13-2.15,2.34c-2.11,0.25-3.79-0.89-5.28-1.89
	c-1.62-1.09-2.83-2.86-4.05-4.45c-2.48-3.24-5.99-4.29-9.76-4.77c-0.59-0.08-1.64-0.23-1.6,1.09c0.05,1.51-0.07,3.02-0.11,4.47
	c-2.47,0.14-4.89-0.88-7,1.12c-0.11-0.51-0.06-1.08-0.32-1.3c-0.72-0.63-1.57-1.11-2.36-1.65c-0.36,0.54-0.96,1.05-1.02,1.62
	c-0.18,1.7-0.15,3.42-0.2,5.13c-2.18-0.64-4.34-1.43-6.36,0.12c-0.44-0.7-0.88-1.43-1.35-2.14c-0.5-0.77-0.97-1.55-1.52-2.27
	c-0.91-1.19-1.65-2.85-2.86-3.37c-2-0.85-2.59-2.38-2.97-4.07c-0.53-2.36-0.8-4.78-1.14-7.17c-0.08-0.56-0.08-1.14-0.02-1.7
	c0.27-2.29,0.65-4.56,0.84-6.86c0.28-3.29,0.22-6.61,0.67-9.87c0.71-5.1,2.63-9.87,4.75-14.54c1.03-2.28-0.27-4.53-2.8-4.61
	c-1.57-0.04-3.23-0.54-3.52-1.93c-0.24-1.14,0.43-2.97,1.34-3.76c2.21-1.92,4.74-3.49,7.23-5.06c2.38-1.5,4.89-2.79,7.32-4.21
	c0.63-0.37,1.17-0.89,1.75-1.34c-0.2-0.01-0.4-0.02-0.6-0.04c-0.31-0.63-0.63-1.26-0.93-1.9c-1.5-3.11-1.92-6.33-1.34-9.77
	c0.56-3.27,1.8-6.46,1.2-9.9c-0.28-1.61-0.44-3.25-0.46-4.88c-0.05-3.87,0.02-7.74,0.04-11.61c0-0.16,0.05-0.32,0.09-0.48
	c0.52-2.05,1.04-4.1,1.69-6.64c1.02,0.03,2.51,0.24,3.94,0.07c1.49-0.18,1.95,0.23,2.03,1.72c0.05,0.94,0.46,2.42,1.08,2.65
	c0.92,0.34,2.46,0.16,3.23-0.44c1.89-1.46,3.42-3.36,5.25-4.96c1.24-1.08,1.34-3.6,1.7-5.52c0.2-1.1-0.11-2.3-0.21-3.76
	c2.22,1.97,4.22,3.75,6.21,5.52c0.18-0.11,0.36-0.22,0.55-0.33C493.12,466.38,493.17,464.57,493.23,462.52z M397.11,104.6
	c2.16-2.43,5.25-3.03,8.1-3.93c9.17-2.86,18.15-1.67,27,1.74c-0.21-0.43-0.46-0.7-0.76-0.88c-5.18-2.99-10.78-4.1-16.71-3.78
	c-5.64,0.31-10.93,2.12-16.21,3.93c-7.06,2.42-12.05,7.14-15.25,13.82c-0.25,0.53-0.55,1.04-0.82,1.55
	c3.57-5.16,8.54-8.6,13.56-12.01c-0.87,0.94-1.94,1.66-2.87,2.53c-3.11,2.95-6.53,5.67-9.16,9.01c-2.76,3.51-4.13,7.92-4.77,12.35
	c-0.78,5.45-0.73,10.85,1.96,15.99c1.99,3.8,4.25,7.38,7.19,10.46c1.99,2.09,4.15,4.22,6.65,5.58c9.61,5.22,19.96,5.54,30.48,3.75
	c3.7-0.63,7.14-2.11,10.06-4.45c2.91-2.34,5.62-4.93,8.27-7.57c1.3-1.29,2.57-2.79,3.31-4.44c1.15-2.59,2.09-5.35,2.65-8.13
	c0.61-3.07,2.37-5.88,1.61-9.3c-0.83-3.71-0.91-7.54-3.93-10.5c-1.58-1.56-2.61-3.67-3.93-5.5c-3.44-4.8-6.85-9.53-12.62-12.01
	c-6.8-2.91-13.78-3.91-21.01-2.76C405.41,100.79,401.11,102.31,397.11,104.6z M331.78,100.49c-4.73-0.04-8.49,0.49-12.27,1.47
	c-3.24,0.84-6.19,2.21-9.14,3.69c-4.6,2.32-8.02,5.86-10.94,10.04c-1.92,2.74-2.97,5.8-4.18,8.84c-2.11,5.3-2.89,10.62-1.01,16.14
	c0.6,1.78,1.02,3.64,1.84,5.31c1.35,2.75,2.59,5.69,4.53,7.99c5.11,6.06,11.8,9.93,19.38,12.08c5.78,1.63,11.63,2.19,17.34-0.5
	c1.1-0.52,2.18-1.06,3.32-1.48c3.78-1.41,7.5-2.91,10.66-5.54c4.94-4.1,9.28-8.6,10.8-15.13c0.11-0.46,0.44-0.88,0.68-1.31
	c0.38-0.66,0.96-1.27,1.11-1.98c0.32-1.5,0.51-3.04,0.59-4.57c0.1-1.99,0.24-4,0.03-5.97c-0.67-6.45-3.5-11.96-7.61-16.89
	c-2.64-3.16-6.14-5.1-9.6-7.17C342.26,102.48,336.81,100.83,331.78,100.49z M392.34,565.73c0.33-1.14,0.69-1.89,0.73-2.66
	c0.09-1.95,0.03-3.9,0.05-5.85c0.01-0.67,0.19-1.34,0.14-2c-0.06-0.96-0.24-1.92-0.4-2.88c-0.13-0.83-0.16-1.72-0.48-2.48
	c-0.88-2.1-2.2-4.07-2.78-6.24c-0.87-3.28-1.25-6.7-1.85-10.05c-0.39-2.18-0.73-4.14,1.07-6.16c1.22-1.36,1.08-4.07-0.64-4.27
	c-1.89-0.23-3.91-0.29-5.72,0.18c-0.6,0.16-0.7,2.2-1.03,3.38c-0.04,0.16-0.08,0.32-0.11,0.49c-1.14,6.37-3.95,12.03-7.21,17.54
	c-0.39,0.66-0.76,1.63-0.58,2.29c0.56,1.97,1.37,3.86,2.14,5.77c0.41,1.02,1.01,1.96,1.35,3c1.12,3.4,2.13,6.84,3.26,10.24
	c0.13,0.39,0.7,0.87,1.11,0.9c1.08,0.09,2.21-0.22,3.25-0.03C387.52,567.39,390.16,566.99,392.34,565.73z M251.41,396.31
	c-1.32,3.27-3.23,50.63-2.05,51.94c0.1-0.44,0.24-0.78,0.26-1.13c0.24-4.94,0.45-9.88,0.71-14.82c0.02-0.44,0.31-0.87,0.47-1.3
	c0.4,0.21,0.87,0.36,1.19,0.65c1.46,1.33,2.74,2.73,4.78,3.4c2.51,0.82,4.98,0.85,7.52,0.74c4.06-0.18,7.22-1.55,8.08-5.97
	c-8.97,2.45-18.65-0.37-20.34-6.4c7.43-0.45,15.34,1.32,21.81-4.52c-3.02-0.68-5.82-1.31-8.59-0.17c-5.01,2.05-8.85-0.84-13.05-2.74
	c0.88-0.93,1.52-1.85,2.37-2.47c4.37-3.2,9.25-3.52,14.4-2.47c1.49,0.31,3.09,0.13,4.63,0.18c0.04-0.18,0.08-0.36,0.12-0.54
	c-2.77-2.56-6.24-3.82-9.89-4.16c-3.67-0.34-7.07,1.36-10.81,2.94c0.43-1.45,0.54-2.5,1.03-3.33c1.99-3.34,5.44-4.6,8.84-5.84
	c2.46-0.9,5.01-0.94,7.5-0.17c1.08,0.33,2.05,1.04,3.43,1.76c-2.88-3.73-4.55-8.1-10.19-7.72c-4.86,0.33-8.46,2.35-11.25,6.6
	C252.04,399.19,251.75,397.86,251.41,396.31z M357.41,563.89c1.25,0.16,2.28,0.31,3.32,0.43c2.41,0.28,3.49-0.54,3.97-2.9
	c0.72-3.56,0.72-7.09,0.09-10.68c-0.19-1.09,0.19-2.41,0.65-3.47c0.45-1.03,1.27-1.93,2.04-2.79c3.16-3.59,5.71-7.55,7.15-12.15
	c0.71-2.28,1.28-4.61,1.83-6.59c-0.95-0.61-1.54-1.05-2.18-1.4c-0.76-0.42-1.57-1.12-2.33-1.09c-1.82,0.08-3.63,0.5-5.43,0.83
	c-1.02,0.18-1.49,0.83-1.82,1.86c-1.56,4.88-3.17,9.74-4.91,14.56c-1,2.76-1.95,5.47-1.96,8.48c-0.02,4.46-0.28,8.92-0.43,13.38
	C357.36,562.84,357.4,563.33,357.41,563.89z M388.9,603.66c0.1,0.75,0.21,1.17,0.2,1.58c-0.04,1.61,0.63,2.8,2.31,2.64
	c1.64-0.16,3.26-0.74,4.85-1.25c0.95-0.3,1.26-1.14,1.28-2.12c0.03-2.07,0.11-4.13,0.18-6.35c0.38,0.28,0.69,0.5,1.1,0.8
	c-0.14-0.58-0.28-1.47-0.36-1.46c-2.09,0.16-1.1-1.09-1.02-2.01c0.04-0.44-0.3-0.91-0.46-1.36c-0.15-0.4-0.42-0.79-0.43-1.2
	c-0.07-1.93-0.07-3.85-0.1-5.78c0-0.14-0.07-0.28-0.12-0.47c-0.24,0.25-0.42,0.44-0.61,0.64c-0.11-0.05-0.24-0.06-0.3-0.13
	c-1.32-1.54-2.76-2.23-4.92-1.55c-1.93,0.6-4.02,0.71-6.05,0.96c-2.45,0.3-2.9,0.88-2.25,3.37c0.48,1.85,1.07,3.67,1.65,5.63
	c-0.2,0.15-0.54,0.4-0.89,0.66c0.18,0.53,0.39,0.99,0.49,1.46c0.21,0.95-0.21,1.1-1.11,0.98c-1.77-0.24-3.57-0.46-5.35-0.44
	c-1.64,0.01-2.65,1.08-2.88,2.69c-0.2,1.43,1.15,1.7,2.03,2.2c2.13,1.21,4.3,2.37,6.52,3.43c0.5,0.24,1.35,0.22,1.83-0.05
	C385.92,605.72,387.24,604.75,388.9,603.66z M357.58,589.19c-0.86-0.78-1.54-1.43-2.25-2.04c-0.2-0.17-0.47-0.31-0.73-0.38
	c-3-0.73-5.99-1.49-9-2.14c-1.57-0.34-2.07,0.2-1.87,1.71c0.27,2.02,0.6,4.03,0.73,6.05c0.13,2,0.52,4.06-0.85,5.88
	c-0.73,0.98-1.17,1.96-0.31,3.27c0.61,0.93-1.08,3.88-2.16,3.81c-2.32-0.15-2.37,2.05-3.84,2.89c4.17,2.19,6.99-0.16,10.08-2.45
	c0.11,0.65,0.28,1.1,0.25,1.53c-0.3,4.41-0.06,4.65,4.31,4.24c0.22-0.02,0.44-0.07,0.66-0.08c3.86-0.24,4.67-2.72,4.8-5.99
	c0.08-1.88-0.28-3.77-0.33-5.66c-0.03-1.23,0.41-2.53,0.16-3.7C356.69,593.6,356.63,591.16,357.58,589.19z M393.69,498.76
	c-0.63-0.02-0.94,0.02-1.23-0.05c-0.53-0.11-1.08-0.48-1.55-0.39c-4.03,0.8-8.07,1.17-12.18,0.63c-1.09-0.14-1.8,0.31-1.77,1.59
	c0.04,1.65,0.01,3.31-0.01,4.96c-0.02,2.37-0.04,4.73-0.09,7.1c-0.04,1.89-0.11,3.79-0.18,6.15c2.71-0.51,4.92-0.85,7.08-1.38
	c0.47-0.11,1.03-0.85,1.11-1.36c0.42-2.78,0.77-5.57,0.98-8.37c0.08-1.15-0.27-2.32-0.42-3.49c0.13-0.06,0.26-0.12,0.39-0.18
	c0.22,0.3,0.49,0.57,0.66,0.9c1.59,3.08,3.03,6.23,4.77,9.21c1.04,1.77,2.83,2.97,4.98,2.61c1.74-0.29,3.4-1.14,5.07-1.73
	c-0.25-0.73-0.42-1.07-0.49-1.43c-0.25-1.32-0.59-2.53-1.57-3.59c-1.11-1.19-2.23-2.48-2.9-3.93
	C395.26,503.64,394.53,501.09,393.69,498.76z M368.23,419.01c-0.75,0.36-1.02,0.54-1.33,0.62c-3.18,0.84-3.44,1.11-3.81,4.37
	c-0.09,0.82,0.02,1.66-0.04,2.48c-0.09,1.38,0.5,2.08,1.89,2.07c1.41-0.01,1.94,0.8,1.95,2.07c0.02,1.27,0.12,2.54-0.03,3.79
	c-0.16,1.28,0.27,1.74,1.51,1.99c2.92,0.61,5.81,0.4,8.7-0.07c1.22-0.2,2.44-0.62,3.56-1.16c1.08-0.52,1.01-1.33-0.04-1.93
	c-0.71-0.41-1.49-0.73-2.19-1.15c-1.84-1.1-2.35-2.56-1.39-4.44c0.75-1.46,1.51-2.98,2.59-4.19c1.13-1.26,2.18-2.34,1.34-4.18
	c-1.65-0.54-2.79,0.24-3.88,1.42c-0.59,0.65-1.13,1.78-2.4,0.68c-1.47-1.27-1.84-2.03-0.92-3.32c0.79-1.11,1.79-2.08,2.73-3.09
	c2.22-2.37,2.23-2.36-0.04-4.54c-0.04-0.04-0.07-0.08-0.11-0.12c-0.62-0.64-1.39-0.73-1.8,0.05c-1.05,1.97-2.09,2.82-3.56,0.38
	c-0.02-0.04-0.09-0.07-0.14-0.08c-2.14-0.22-4.29-0.44-6.85-0.69c0.62,1.44,1.1,2.57,1.61,3.77c-0.1,0.1-0.25,0.25-0.39,0.41
	c-1.72,1.95-1.59,2.49,0.76,3.56C366.63,418.04,367.27,418.46,368.23,419.01z M336.88,577.11c0.24,0.17,0.32,0.29,0.41,0.29
	c0.44,0.02,0.88,0.05,1.32,0c3.46-0.37,6.89-0.15,10.01,1.41c3.29,1.64,6.89,1.84,10.36,2.61c0.8,0.18,1.68,0.24,2.47,0.09
	c2.32-0.43,4.77-1.32,4.79-3.08c0.03-1.77,0.04-3.55-0.18-5.3c-0.28-2.27-2.4-4.05-4.66-4.26c-2.25-0.21-4.53-0.35-6.75-0.75
	c-4.02-0.72-8-1.65-12.01-2.4c-0.57-0.11-1.64,0.11-1.77,0.45C339.46,569.81,338.18,573.49,336.88,577.11z M349.51,561.66
	c0.08-0.13,0.17-0.25,0.25-0.38c-0.18-0.24-0.55-0.54-0.5-0.72c0.26-1.04,0.68-2.04,0.94-3.07c0.38-1.54,0.73-3.1,0.98-4.66
	c0.51-3.15,0.67-6.39,1.5-9.45c1.18-4.34,2.89-8.53,4.29-12.81c0.68-2.07,1.18-4.21,1.78-6.38c-2.13-0.73-4.03-1.41-5.96-2.02
	c-1.17-0.37-1.74,0.1-2.11,1.34c-1.64,5.55-3.39,11.07-5.12,16.59c-0.86,2.72-1.13,5.44-0.71,8.31c0.6,4.07,0.89,8.19,1.36,12.72
	C346.98,561.24,348.25,561.45,349.51,561.66z M541.76,593.5c-0.06-0.2-0.11-0.4-0.17-0.6c-1,0.18-1.99,0.51-2.99,0.53
	c-7.72,0.18-15.45,0.29-23.17,0.43c-5.84,0.11-11.67,0.32-17.51,0.32c-5.74,0-11.48-0.22-17.22-0.34c-3.14-0.07-6.29-0.22-9.43-0.18
	c-3.75,0.05-7.49,0.41-11.24,0.35c-2.6-0.04-5.27-0.27-7.51-1.94c-0.71-0.53-1.48-0.98-2.22-1.47c2.39,2.65,5.22,4.51,8.75,5.18
	c8.3,1.58,16.71,1.39,25.09,1.39c10.1,0,20.21-0.01,30.31-0.23c7.12-0.15,14.35,1.23,21.31-1.45
	C537.73,594.74,539.76,594.16,541.76,593.5z M390.7,491.06c0.17-0.06,0.33-0.13,0.5-0.19c0.88-2.45,1.23-4.78-0.37-7.22
	c-1.13-1.73-1.77-3.79-2.64-5.7c-0.25-0.55-0.43-1.23-0.86-1.59c-2.74-2.25-3.57-5.63-5.19-8.53c-0.27-0.49-0.11-1.34-0.47-1.66
	c-1.94-1.68-2-4.27-3.22-6.3c-0.91-1.51-1.2-3.38-2-4.97c-0.76-1.51-1.72-2.95-2.79-4.27c-2.27-2.81-4.63-5.56-7.04-8.24
	c-0.46-0.51-1.4-0.97-2.02-0.87c-1.8,0.3-3.56,0.9-5.76,1.49c1.48,1.74,2.61,3.13,3.81,4.46c2.92,3.23,6.08,6.27,8.76,9.69
	c6.32,8.06,11.66,16.72,15.6,26.22C388.08,486.01,389.46,488.51,390.7,491.06z M401.74,574.98c-0.18-0.12-0.57-0.25-0.57-0.39
	c-0.08-1.67-1.28-2.77-1.94-4.13c-0.92-1.9-1.81-1.43-3.09-0.8c-4.85,2.39-9.87,3.53-15.23,1.95c-1.01-0.3-2.05-0.47-3.04-0.8
	c-1.12-0.37-1.71,0.03-1.89,1.12c-0.4,2.51-0.77,5.02-1.16,7.53c-0.13,0.86,0.12,1.36,1.11,1.41c1.53,0.08,3.06,0.24,4.58,0.37
	c4.75,0.41,9.47,0.44,14.01-1.39C397.23,578.76,399.91,577.63,401.74,574.98z M373.91,469.81c-2.52,2.42-3.53,5.12-4.99,7.57
	c-2.52,4.24-5.58,8.16-8.46,12.18c-0.81,1.13-0.65,1.55,0.66,1.94c4.23,1.25,7.35-0.92,9.76-3.75c2.5-2.95,4.32-6.48,6.38-9.8
	c0.28-0.45,0.45-1.24,0.24-1.66C376.42,474.17,375.2,472.12,373.91,469.81z M387.42,371.79c0.02-0.24,0.03-0.48,0.05-0.72
	c-5.54-2.49-11.58-4.09-15.91-8.8c-5.02,4.4-10.64,7.31-16.85,9.28C365.61,371.62,376.51,371.7,387.42,371.79z M518.75,497.86
	c0.06-2.16,0.01-4.32,0.22-6.46c0.26-2.6-0.15-4.63-2.41-6.48c-1.72-1.4-3.67-1.31-5.71-2.53c0.61,2.94,1.41,5.31,0.64,7.92
	c-0.89,3.01-3.08,3.87-5.91,4.19c0.25,0.67,0.44,1.12,0.59,1.58c1.17,3.58,2.74,4.23,6.25,2.63c0.59-0.27,1.25-0.46,1.89-0.53
	C515.88,498.01,517.45,497.95,518.75,497.86z M357.31,110.59c-1.31-2.56-3.41-4.25-5.57-5.64c-2.17-1.4-4.75-2.14-7.12-3.26
	c-2.39-1.12-4.69-2.43-7.1-3.48c-1.11-0.49-2.42-0.8-3.62-0.76c-2.47,0.08-4.93,0.56-7.41,0.67c-9.94,0.43-18.36,4.35-25.04,11.55
	c-3.39,3.66-6.02,8.04-7.38,13c-0.29,1.06-0.56,2.14-0.83,3.21c0.14,0.04,0.28,0.08,0.42,0.13c0.88-2.05,1.66-4.14,2.66-6.13
	c2.79-5.59,6.1-10.76,11.92-13.74c0.54-0.28,1.09-0.53,1.62-0.83c6.42-3.65,13.33-5.37,20.7-5.35c7.06,0.02,13.4,2.42,19.4,5.88
	C352.39,107.24,354.69,108.89,357.31,110.59z M381.46,162.1c-3.74-4.86-7.82-9.12-9.48-15.07c-2.13,5.22-4.3,10.39-8.8,14.53
	C369.55,161.75,375.35,161.92,381.46,162.1z M483.15,485.68c-1.54-0.29-2.91-0.58-4.3-0.8c-1.28-0.21-2.13,0.61-2.16,1.68
	c-0.09,3.25-0.01,6.51,0.17,9.75c0.06,1.19,0.71,1.9,2.25,1.66c1.93-0.31,3.77,0.17,5.37,1.53c0.44,0.38,1.6,0.48,2.06,0.16
	c0.88-0.6,2.26-1.91,2.08-2.34c-0.59-1.35-0.65-3.13-2.43-3.88c-1.98-0.84-3.01-2.51-3.11-4.67
	C483.02,487.74,483.12,486.71,483.15,485.68z M415.03,370.54c-3.2-6.62-4.55-13.47-3.6-20.91c0.93-7.25,2.95-14.04,6.44-20.51
	c-1.16,0.71-2.32,1.42-3.02,2.45c-3.27,4.78-4.99,10.22-5.91,15.85c-0.77,4.74-0.75,9.57,0.38,14.31c0.52,2.19,1.16,4.36,1.66,6.56
	C411.54,370.77,412.51,371.36,415.03,370.54z M430.35,338.98c-3.17,6.55-3.21,24.41,0.14,29.51c0.04-1.29,0.07-2.13,0.08-2.97
	c0-0.31-0.21-0.75-0.07-0.91c1.73-2.02,0.34-4.87,1.88-6.92c-0.06-4.79-0.03-9.59-0.25-14.38
	C432.06,341.85,432,340.11,430.35,338.98z M518.32,203.9c0.09,1.5,0.24,3,0.25,4.51c0.03,5.07,0.38,10.18-0.09,15.2
	c-0.56,5.92-1.87,11.76-2.83,17.65c-0.32,1.96-0.55,3.93-0.82,5.89C520.99,235.99,523.37,217.23,518.32,203.9z M456.1,338.96
	c-1.63,1.21-1.72,2.7-1.91,4.13c-0.33,2.48-0.8,4.97-0.87,7.46c-0.05,1.89,0.42,3.79,0.68,5.69c0.49,3.55,0.62,7.19,2.6,10.47
	C458.52,357.44,458.29,348.33,456.1,338.96z M200.34,464.02c0.1,0.18,0.19,0.37,0.29,0.55c0.67-0.33,1.32-0.7,2.01-0.97
	c1.41-0.54,2.83-1.41,4.28-1.47c6.67-0.28,13.35-0.35,20.02-0.47c6.67-0.13,13.35-0.27,20.02-0.34c3.25-0.03,6.5,0.1,9.76,0.12
	c3.81,0.03,7.62,0.02,11.44,0.02c0.01-0.27,0.01-0.55,0.02-0.82c-1.9-0.06-3.8-0.05-5.69-0.18c-9.11-0.64-18.22-0.63-27.33-0.14
	c-0.38,0.02-0.76,0.14-1.14,0.19c-1.44,0.22-2.89,0.66-4.33,0.6c-2.31-0.09-4.61-0.45-6.91-0.79c-7.27-1.05-14.33-0.58-21.01,2.8
	C201.27,463.4,200.81,463.73,200.34,464.02z M386.73,459.5c0.9-1.75,1.56-3.25,2.42-4.63c2.02-3.27,2.68-6.96,3.48-10.61
	c0.23-1.07-1.4-2.43-3.04-2.77c-1.32-0.27-1.22,0.88-1.49,1.54c-1.57,3.88-3.09,7.78-4.58,11.7c-0.17,0.44-0.21,1.16,0.04,1.47
	C384.45,457.28,385.49,458.24,386.73,459.5z M313.48,340.79c-2.77,3.51-4.28,22.72-0.48,28.2
	C315.29,359.4,314.57,350.1,313.48,340.79z M356.76,234.91c-0.07-0.22-0.14-0.43-0.22-0.65c-2.35,0.86-4.75,1.6-7.04,2.59
	c-5.38,2.31-10.83,4.12-16.82,3.44c-2.08-0.24-4.17-0.37-6.26-0.49c-1.47-0.08-2.39,0.63-2.67,2.29c0.46,0.22,0.94,0.63,1.43,0.66
	c4.23,0.24,8.49,0.83,12.68,0.47c4.66-0.4,8.73-2.9,12.77-5.19C352.62,236.9,354.71,235.94,356.76,234.91z M317.8,84.61
	c0.78-0.09,1.3-0.13,1.82-0.21c4.09-0.62,8.16-1.46,12.27-1.81c5.28-0.45,10.57-0.38,15.7,1.46c3.16,1.13,6.39,2.08,9.6,3.08
	c0.56,0.17,1.16,0.18,1.75,0.26C344.5,78.11,328.04,78.26,317.8,84.61z M490.13,503c2.98,2.27,5.71,4.35,8.69,6.62
	c1.38-1.38,2.7-3.16,4.43-4.33c1.92-1.3,0.91-2.22-0.02-3.13c-1.09-1.07-2.17-2.32-4.12-1.41c-0.63,0.29-1.64-0.26-2.48-0.35
	c-0.87-0.1-1.9-0.44-2.6-0.11C492.72,500.92,491.59,501.95,490.13,503z M288.32,341.22c-3.04,5.13-4.03,22.59-1.53,26.53
	C290.61,359.11,289.53,350.33,288.32,341.22z M504.56,369.87c0.09,0.12,0.19,0.24,0.28,0.36c0.46-0.46,1.08-0.85,1.33-1.4
	c0.41-0.92,0.55-1.96,0.85-2.94c0.74-2.36,1.57-4.69,2.23-7.06c0.23-0.83,0.04-1.78,0.14-2.66c0.27-2.66,1-5.34,0.79-7.95
	c-0.26-3.19-1.15-6.35-2.06-9.44c-0.7-2.39-1.79-4.67-2.78-6.97c-1.61-3.72-3.61-7.19-6.86-9.74c-0.47-0.37-1.12-0.53-1.77-0.82
	c5.15,7.23,10.69,13.96,11.17,23.22C508.33,353.15,508.73,361.8,504.56,369.87z M368.81,399.29c0.97,1.86,1.89,3.73,2.95,5.52
	c0.19,0.33,1.04,0.56,1.44,0.42c2.01-0.7,3.83-0.5,5.37,0.97c1.51,1.44,2.92,2.98,4.33,4.52c3.2,3.51,6.38,7.05,9.56,10.58
	c0.12-0.1,0.23-0.2,0.35-0.3c-1.13-3.09-3.48-5.37-5.54-7.8c-2.49-2.94-5.44-5.51-7.78-8.55c-2.03-2.65-4.71-4.23-7.43-5.86
	C371.06,398.2,369.97,398.06,368.81,399.29z M481.32,366.91c0.13-0.02,0.27-0.04,0.4-0.07c0.53-4.3,1.35-8.6,1.5-12.91
	c0.13-3.99-0.44-8.01-0.78-12.01c-0.04-0.49-0.52-0.94-0.79-1.4c-0.21,0.02-0.42,0.04-0.63,0.06c-0.58,2.84-1.48,5.65-1.66,8.52
	c-0.19,2.96,0.32,5.97,0.53,9.09c-0.2-0.37-0.35-0.63-0.57-1.02C480.02,360.53,480.67,363.72,481.32,366.91z M279.56,68.04
	c0.17-0.06,0.55-0.31,0.93-0.31c2.31,0.01,4.63,0.1,6.94,0.11c0.54,0,1.08-0.17,2.07-0.34c-3.28-1.64-6.01-2.19-8.84-1.59
	c-2.14,0.45-4.19,1.32-6.32,1.82c-2.27,0.53-2.55,0.96-3.42,3.59c2.36-0.9,4.78-1.82,7.2-2.75c0.05,0.13,0.11,0.25,0.16,0.38
	c-1.91,0.86-3.82,1.72-5.72,2.59c0.08,0.17,0.16,0.34,0.24,0.52c0.81-0.31,1.59-0.69,2.42-0.9c1.59-0.39,3.22-1.04,4.8-0.94
	c3,0.19,5.97,0.93,8.97,1.26c1.12,0.12,2.73,0.71,3.15-1.35c-1.11-0.62-2.12-1.62-3.22-1.73C285.78,68.08,282.6,68.13,279.56,68.04z
	 M450.65,70.26c2.3,1.41,2.81,1.41,4.71,0.63c3.07-1.25,6.31-2.08,9.51-0.91c3.23,1.18,6.3,2.83,9.41,4.34
	c0.99,0.48,1.85,1.2,2.82,1.72c0.23,0.12,0.76,0.01,0.94-0.19c0.2-0.23,0.33-0.82,0.18-0.99c-0.92-1.07-1.79-2.25-2.91-3.06
	c-3.94-2.82-8.37-4.4-13.21-4.74C458,66.77,454.61,68.82,450.65,70.26z M388.07,221.27c-0.12-0.5-0.11-0.63-0.17-0.7
	c-0.21-0.25-0.43-0.51-0.68-0.72c-3.18-2.68-5.42-5.96-7.04-9.83c-0.99-2.36-2.57-4.52-4.18-6.54c-1.71-2.15-5.78-2.26-7.81-0.38
	c-1.94,1.8-2.87,4.19-3.7,6.66c-0.66,1.93-1.59,3.77-2.4,5.65c0.17,0.09,0.33,0.18,0.5,0.27c1.59-2.91,3.32-5.76,4.72-8.76
	c0.91-1.95,2.46-3.49,4.58-3.65c1.56-0.12,3.23,1.13,4.12,3.05c1.26,2.7,2.44,5.45,3.83,8.09
	C381.58,217.7,384.3,219.91,388.07,221.27z M441.57,284.53c10.38-3.75,20.61-1.29,30.99,0.72C465.84,278,447.8,278.8,441.57,284.53z
	 M366.73,510.74c-3.29-0.09-3.28-0.09-3.57,2.47c-0.06,0.58-0.19,1.15-0.29,1.73c-0.99-0.08-1.83-0.32-2.6-0.18
	c-1.66,0.31-2.92,0.03-3.68-1.63c-0.43-0.93-1.06-0.87-1.62-0.09c-1.37,1.91-0.2,5.14,2.07,5.74c0.8,0.21,1.63,0.5,2.43,0.47
	c1.63-0.07,3.48,0.08,4.82-0.64c1.09-0.59,1.84-2.23,2.24-3.56C366.92,513.74,366.69,512.25,366.73,510.74z M381.35,225.75
	c-3.6-3.7-7.55-7.04-9.41-12.05c-1.34,2.33-2.42,4.77-4.01,6.82c-1.62,2.1-3.74,3.82-5.42,5.49c2.89-1.02,6.01-2.4,9.27-3.2
	C375.37,221.92,378.26,224.21,381.35,225.75z M445.57,268.36c0.07,0.16,0.14,0.32,0.22,0.48c0.51-0.13,1.01-0.3,1.52-0.39
	c2.11-0.38,4.27-1.22,6.32-1.01c6.52,0.67,12.99,1.76,19.19,4.04c0.62,0.23,1.26,0.38,1.89,0.57c0.07-0.15,0.14-0.31,0.21-0.46
	c-1.62-1.09-3.16-2.33-4.87-3.23c-6.21-3.27-12.83-3.87-19.6-2.43C448.73,266.29,447.2,267.53,445.57,268.36z M353.04,489.21
	c-2.8,1.24-4.62,3.73-6.81,5.77c-0.13,0.12-0.08,0.42-0.16,0.63c-0.57,1.59-0.98,3.27-1.77,4.74c-0.72,1.34-0.82,2.44,0.37,4.13
	c0.64-1.27,1.14-2.26,1.64-3.26c0.15-0.29,0.25-0.63,0.47-0.86c1.01-1.07,2.07-2.11,3.09-3.17c1.13-1.17,2.41-1.89,4.13-1.6
	c0.65,0.11,1.34,0.05,1.8,0.07C354.85,493.45,354,491.45,353.04,489.21z M327.17,71.13c0,0.32,0,0.64,0,0.96
	c2.02,0.15,4.03,0.32,6.05,0.46c2.36,0.16,4.78,0.02,7.07,0.52c5.35,1.16,10.52,2.89,15.26,5.73c0.6,0.36,1.39,0.41,2.09,0.6
	c0.04-0.15,0.07-0.3,0.11-0.44c-4.32-3.45-8.98-6.27-14.42-7.62C337.92,70,332.54,70.42,327.17,71.13z M340.1,600.21
	c-0.05-0.26-0.09-0.51-0.14-0.77c-1.31-0.11-2.7,0.02-3.92-0.39c-2.6-0.87-4.45,0.54-5.76,2.16c-0.8,0.99-1.05,3.36-0.39,4.33
	c0.79,1.17,2.78,1.58,4.3,2.19c0.26,0.11,0.89-0.31,1.14-0.65c0.39-0.5,0.59-1.15,0.9-1.72c0.47-0.86,0.96-1.71,1.45-2.56
	c0.2-0.35,0.38-0.74,0.67-1.03C338.9,601.22,339.52,600.73,340.1,600.21z M227.52,248.08c-2.7-6.93-5.26-13.68-5.96-21.23
	c-0.71-7.75,0.38-15.13,1.85-22.97c-0.32,0.65-0.49,0.97-0.63,1.31c-0.13,0.3-0.21,0.62-0.31,0.93c-1.94,5.65-2.24,11.54-2.37,17.43
	c-0.05,2.24,0.6,4.5,0.57,6.75c-0.08,5.09,1.5,9.78,3.24,14.42C224.5,246.33,225.63,247.72,227.52,248.08z M419.22,82.22
	c-0.82-0.26-1.64-0.5-2.44-0.78c-3.61-1.26-7.36-1.99-11.08-1.08c-6.53,1.6-12.99,3.51-19.45,5.42c-1.34,0.4-2.51,1.35-3.76,2.05
	c0.08,0.24,0.17,0.48,0.25,0.72C394.46,83.77,406.46,80.83,419.22,82.22z M238.75,371.02c-0.76-1.71-1.45-3.24-2.14-4.78
	c-0.09-0.2-0.24-0.37-0.34-0.57c-0.7-1.5-1.74-2.93-2.02-4.5c-1.59-8.81,0.94-16.95,4.47-24.87c1.22-2.74,2.67-5.38,4.21-8.44
	c-2.91,3.72-6.17,9.59-8.19,16.19c-2.17,7.1-2.56,14.18-0.91,21.38c0.34,1.48,0.95,2.94,1.67,4.29
	C236.16,370.95,237.27,371.66,238.75,371.02z M522.26,346.71c-0.18,0-0.36,0-0.55,0c-0.2,0.44-0.54,0.86-0.59,1.31
	c-0.31,2.78-0.76,5.57-0.77,8.35c-0.02,3.95,1.13,7.68,2.57,11.36c0.91,2.34,2.27,3.06,4.7,2.02
	C523.35,362.68,520.98,355.14,522.26,346.71z M240.56,308.14c0.08-0.06,0.16-0.12,0.23-0.18c-0.76-2.37-1.45-4.76-2.29-7.1
	c-2.18-6.11-1.97-12.35-1.11-18.63c0.63-4.58,1.34-9.15,1.95-13.73c0.13-0.96-0.04-1.96-0.07-2.94c-0.18-0.01-0.37-0.01-0.55-0.02
	c-0.11,0.56-0.25,1.11-0.31,1.68c-0.23,1.97-0.41,3.95-0.65,5.92c-0.7,5.92-1.4,11.84-2.11,17.75c-0.65,5.42,0.58,10.42,3.36,15.06
	C239.47,306.71,240.04,307.41,240.56,308.14z M398.11,225.26c-0.02,0.15-0.05,0.3-0.07,0.45c0.53,0.27,1.04,0.56,1.59,0.79
	c4.37,1.89,9.06,2.77,13.7,2.79c6.64,0.03,13.29-0.68,19.93-1.24c1.84-0.15,3.63-0.9,5.44-1.37c-0.03-0.18-0.05-0.36-0.08-0.54
	C425.07,227.68,411.53,229.63,398.11,225.26z M243.19,325.14c-0.11-0.11-0.23-0.21-0.34-0.32c-0.39,0.34-0.87,0.61-1.15,1.02
	c-2.16,3.18-4.63,6.21-6.35,9.61c-4.02,7.9-6.32,16.25-4.75,25.24c0.37,2.13,1.2,4.18,1.82,6.27c0.2-0.04,0.4-0.08,0.59-0.12
	C228.74,351.07,233.68,337.54,243.19,325.14z M294.17,256.22c-3.48-4.09-18.8-4.41-21.73,0.54
	C279.61,255.21,286.84,256.74,294.17,256.22z M301.31,283.8c-7.37-3.81-23.2-3.15-29.67,2.63
	C281.28,282.74,291.31,284.05,301.31,283.8z M327.97,371.32c0.11,0.14,0.21,0.27,0.32,0.41c0.74-0.58,1.81-1.01,2.17-1.77
	c3.04-6.55,4.2-13.45,3.42-20.64c-0.69-6.3-2.37-12.34-5.25-18.01c-0.12-0.23-0.41-0.37-0.62-0.55c-0.12,0.07-0.24,0.15-0.36,0.22
	c0.37,0.82,0.78,1.62,1.11,2.45c0.8,2.05,1.91,4.06,2.27,6.19c0.77,4.55,1.17,9.16,1.66,13.76c0.52,4.89-0.36,9.56-2.52,13.97
	C329.51,368.71,328.71,370,327.97,371.32z M272.21,270.79c0.05,0.13,0.11,0.27,0.16,0.4c2.79-0.78,5.53-1.87,8.37-2.25
	c2.85-0.38,5.83-0.33,8.68,0.05c2.72,0.36,5.35,1.38,8.01,2.1c0.02-0.07,0.04-0.13,0.06-0.2c-0.58-0.24-1.16-0.48-1.73-0.72
	c0.03-0.1,0.05-0.19,0.08-0.29c1.29,0.18,2.59,0.37,4,0.57c-0.12-0.31-0.14-0.49-0.24-0.59c-0.18-0.2-0.41-0.36-0.62-0.54
	c-2.41-2.04-5.49-2.33-8.35-2.61c-2.84-0.28-5.78,0.56-8.67,0.6C278.22,267.38,275.71,270.3,272.21,270.79z M220.71,350.88
	c-0.13-0.04-0.27-0.07-0.4-0.11c-0.1,0.3-0.24,0.59-0.31,0.9c-0.77,3.91-1.92,7.68-3.85,11.2c-1.4,2.56-2.79,5.13-4.12,7.72
	c-0.19,0.38-0.09,0.91-0.12,1.37c0.52,0,1.06,0.09,1.54-0.03c0.33-0.08,0.61-0.45,0.87-0.72c2.43-2.49,3.5-5.7,4.6-8.86
	C220.21,358.65,220.7,354.79,220.71,350.88z M474.7,562.75c4.79-2.85,17.15-10.87,17.84-13.76
	C485.29,551.45,476.7,557.99,474.7,562.75z M546.08,369.33c-0.76-3.25-1.53-6.38-2.22-9.53c-0.71-3.19-1.35-6.4-2.02-9.6
	c-0.08-0.01-0.15-0.02-0.23-0.04c0.09,3.48,0.18,6.95,0.26,10.4c-0.06-0.02-0.35-0.1-1.11-0.31c0.31,2.35,0.45,4.46,0.9,6.51
	C542.24,369.46,543.43,370.07,546.08,369.33z M353.13,504.59c0.03,0.17,0.05,0.34,0.08,0.5c0.5,0.18,0.99,0.47,1.51,0.51
	c2.62,0.24,5.24,0.53,7.87,0.58c3.31,0.06,3.32-0.04,4.31-3.65c-2.81-0.08-5.63,0.24-8.25-0.35
	C355.83,501.55,354.78,503.46,353.13,504.59z M473.17,256.4c-3.19-5.09-16.69-5.64-21.37-1.17
	C458.98,253.54,465.99,255.21,473.17,256.4z M344.32,226.69c-0.03-0.21-0.07-0.43-0.1-0.64c-6.82,1.13-13.63,2.26-20.45,3.39
	c0,0.13,0.01,0.26,0.01,0.39c1.31,0.04,2.63,0.08,3.94,0.12c0,0.22,0,0.43,0,0.65c-2.56,0.04-5.13,0.26-7.66,0.05
	c-2.57-0.21-5.12-0.83-7.67-1.27c3.92,2.05,17.85,2.41,21.83,0.75c-1.25,0.15-2.12,0.29-3,0.34c-0.78,0.04-1.56-0.03-2.34-0.06
	c0-0.17,0-0.34,0.01-0.52C334.06,228.92,339.6,229.65,344.32,226.69z M464.83,320.61c0.13-0.18,0.25-0.36,0.38-0.55
	c-0.97-0.92-1.78-2.19-2.93-2.7c-3.48-1.57-7.22-1.99-11-1.41c-2.12,0.33-3.98,2.65-3.87,4.5
	C453.22,318.21,459.02,317.14,464.83,320.61z M416.51,174.11c5.92,3.78,24.56-3.35,26.51-10.17c-1.45,0.97-2.68,1.67-3.77,2.54
	c-6.02,4.8-12.73,7.68-20.57,7.5C417.96,173.96,417.24,174.06,416.51,174.11z M274.51,173.12c-4.54,5.09-4.85,17.94-1.33,23.31
	c0.2-1.75,0.65-3.17,0.47-4.51C272.86,185.75,272.4,179.64,274.51,173.12z M489.28,521.73c-1.52-0.83-2.77-1.29-3.76-2.08
	c-2.41-1.94-4.77-1.33-7.23-0.22c-0.87,0.39-0.98,0.85-0.62,1.67c0.64,1.46,3.4,3.08,5.06,2.67
	C484.79,523.26,486.78,522.52,489.28,521.73z M175.61,367.78c-0.3-1.3-0.84-2.59-0.85-3.89c-0.02-3.74,0.06-7.49,0.33-11.21
	c0.1-1.34,0.71-2.69,1.29-3.94c0.66-1.43,0.68-3.47-0.48-4.61c-0.03,0.94-0.05,1.59-0.07,2.28c-1.11,0.07-1.58,0.48-1.92,2.01
	c-0.15,0.7-0.24,1.42-0.29,2.13c-0.26,3.56-0.62,7.11-0.71,10.68C172.83,363.69,173.96,365.85,175.61,367.78z M227.26,194.02
	c-1.76,0.09-2.12,0.36-2.92,1.96c-2.56,5.11-4.37,10.5-5.24,16.12c-1.18,7.57-1.07,15.17,0.59,22.69c0.12,0.54,0.2,1.09,0.34,1.62
	c0.13,0.5,0.32,0.99,0.49,1.48C217.98,222.55,217.68,207.64,227.26,194.02z M370.05,362c-3.79,1.68-7.69,3.54-11.71,5.14
	c-2.65,1.06-5.45,1.75-8.17,2.63c-0.46,0.15-0.87,0.47-1.52,0.82C353.83,372.18,368.74,365.79,370.05,362z M507.08,346.37
	c1.65-4.52-7.53-22.91-11.51-23.84C500.9,329.82,504.07,337.84,507.08,346.37z M262.03,344.21c-0.48,3.9-1,7.79-1.42,11.69
	c-0.49,4.64,0.1,9.97,1.2,11.53C263.12,359.7,262.66,351.98,262.03,344.21z M319.94,282.62c0.32-8.67,3.25-17.02-0.37-25.28
	c-0.02,0.48-0.03,0.98,0.1,1.44c1.03,3.96,0.69,7.89-0.19,11.81c-0.32,1.4-0.75,2.78-0.98,4.2
	C318.06,277.43,318.09,280.02,319.94,282.62z M505.87,548.74c-0.12,0.12-0.24,0.24-0.36,0.36c1.69,2.37,3.51,4.6,6.06,6.18
	c1.87,1.16,3.85,2.25,5.45,3.73c2.22,2.05,4.13,4.44,6.2,6.66c0.61,0.66,1.31,1.24,1.97,1.86c0.11-0.1,0.21-0.2,0.32-0.3
	c-0.68-1.25-1.2-2.63-2.06-3.73c-2.72-3.5-5.72-6.67-9.88-8.6c-1.98-0.92-3.78-2.27-5.54-3.59
	C507.17,550.64,506.58,549.6,505.87,548.74z M504.76,402.22c0.56-0.28,1.14-0.53,1.68-0.85c1.81-1.04,3.79-1.31,5.75-0.79
	c1.95,0.53,3.85,1.32,5.71,2.14c1.36,0.61,2.28,0.42,2.94-0.91C517.33,396.76,506.57,397.78,504.76,402.22z M413.36,244.92
	c-0.01-0.23-0.03-0.46-0.04-0.7c-0.38-0.01-0.75-0.03-1.13-0.03c-5.87-0.04-11.27-1.99-16.52-4.3c-3.62-1.6-7.05-3.66-10.57-5.5
	c-0.37-0.19-0.79-0.3-1.19-0.44c0.27,0.66,0.7,0.98,1.16,1.25c2.2,1.27,4.4,2.54,6.6,3.8c4.96,2.84,9.99,5.5,15.87,5.82
	C409.47,244.93,411.42,244.89,413.36,244.92z M194.2,370.88c3.06-2.56,5.94-21.28,4.38-25.43c-0.25,2.02-0.4,4.07-0.78,6.07
	c-1.13,5.85-2.37,11.67-3.53,17.52C194.14,369.63,194.21,370.26,194.2,370.88z M519.93,519.85c-1.75-0.52-3.57-1.71-4.95-1.32
	c-2.27,0.64-4.24,2.3-6.42,3.58C511.03,524.44,517.73,523.15,519.93,519.85z M294.37,266.11c-1.68-0.36-3.35-0.96-5.05-1.05
	c-6.98-0.39-13.34,2.08-19.6,4.71c-2.16,0.91-3.57,2.77-4.41,5.15C273.67,267.59,283.27,264.79,294.37,266.11z M289.19,219.95
	c-8.05-6.26-12.35-14.83-15.1-24.69c-1.38,3.15-0.24,5.32,2.26,7.51c-0.9-0.26-1.27-0.37-1.86-0.54
	C277.96,209.53,282.29,215.78,289.19,219.95z M389.27,170.72c0.01-0.19,0.01-0.37,0.02-0.56c-8.37-2.29-16.82-0.69-25.23-0.79
	c0,0.2-0.01,0.4-0.01,0.6C372.45,170.22,380.86,170.47,389.27,170.72z M297.49,321.63c-1.39-2.71-2.94-5.01-6.29-5.26
	c-3.38-0.26-6.3,0.6-9.14,3.15C287.82,317.6,292.73,318.97,297.49,321.63z M207.73,439.47c0.7-0.72,1.2-1.08,1.5-1.56
	c0.6-0.97,1.03-2.04,1.65-3.01c0.56-0.88,0.25-1.42-0.49-1.92c-1.8-1.2-3.33-0.82-4.84,1.41c-0.49,0.71-1.1,1.96-0.8,2.45
	C205.32,437.82,206.5,438.45,207.73,439.47z M406.9,229.44c9.68,1.65,19.37,3.23,28.91-0.72
	C426.19,229.84,416.57,230.53,406.9,229.44z M210.46,391.6c-1.59-0.1-3.39,1.43-3.43,2.92c-0.03,1.3,1.93,2.84,3.71,2.91
	c1.66,0.07,2.66-0.87,2.75-2.58C213.59,392.93,212.47,391.73,210.46,391.6z M196.69,318.38c-4.44-1.13-12.42,2.38-13.08,5.91
	c3.12-2.86,6.33-5.1,10.58-5c-1.98,0.76-3.97,1.53-6.08,2.34c2.74-0.33,5.3-0.95,7.82-0.84c2.48,0.11,4.92,0.96,7.49,1.51
	c-2.08-2.54-5.18-2.44-8.29-3.34C195.93,318.66,196.23,318.55,196.69,318.38z M483.58,317.13c-2.61-2.46-5.67-1.92-7.89-0.5
	c-1.77,1.13-2.34,3.1-1.7,4.2C477.22,319.58,480.4,318.35,483.58,317.13z M525.07,321.82c-1.74-1.59-3.28-2.24-5.05-1.93
	c-1.67,0.29-3.32,0.76-4.93,1.28c-2.66,0.86-3.17,1.88-2.53,4.75C516.06,323.01,519.98,321.33,525.07,321.82z M285.54,396.2
	c0.37-0.05,0.9,0.03,1.07-0.18c0.59-0.72,1.06-1.54,1.54-2.34c0.11-0.18,0.23-0.5,0.15-0.62c-0.71-0.99-1.31-2.16-2.26-2.83
	c-0.87-0.62-1.95-0.23-2.8,0.65c-0.9,0.94-1.24,1.85-0.66,3.09C283.17,395.26,283.88,396.31,285.54,396.2z M237.5,394.6
	c0.04-0.22,0.07-0.43,0.11-0.65c-1.11-0.37-2.22-1.07-3.32-1.04c-3,0.09-6.01,0.43-9,0.78c-2.05,0.24-3.98,2.71-3.96,5.36
	C225.97,394.32,231.38,393.08,237.5,394.6z M407.03,71.35c-8.24,0.31-15.46,3.78-22.72,7.13c0.08,0.25,0.16,0.51,0.24,0.76
	c1.64-0.52,3.31-0.93,4.89-1.58c1.62-0.67,3.08-1.77,4.74-2.33C398.43,73.9,402.75,72.66,407.03,71.35z M310.81,92.9
	c-6.5,0.25-14.24,6.24-15.09,11.32c2.2-2.16,4.21-4.57,6.65-6.41C304.82,95.96,307.7,94.67,310.81,92.9z M485.97,537.66
	c-4.29-0.64-14.42,8.18-14,12.25C475.77,544.64,480.58,540.83,485.97,537.66z M359.08,161.18c2.09,0.55,3.43,0.53,4.46-0.94
	c0.5-0.72,1.15-1.33,1.74-1.98c2.52-2.8,3.93-6.15,4.72-9.83C367.46,153.45,363.8,157.53,359.08,161.18z M207.08,420.41
	c-0.01,2.61,0.97,3.89,2.89,3.91c1.12,0.01,2.64-1.52,2.64-2.67c0-1.53-1.85-3.14-3.64-3.1
	C207.74,418.58,206.71,418.9,207.08,420.41z M422.74,257.43c-3.91,7.03-2.66,14.13-0.11,21.24
	C421.61,271.58,420.81,264.49,422.74,257.43z M519.95,412.42c-2.17-1.06-3.94-2.12-5.84-2.81c-3.31-1.2-6.6-1.15-9.63,0.92
	c-0.39,0.26-0.61,0.78-0.9,1.17c0.09,0.17,0.19,0.34,0.28,0.51c4.15-2.65,8.14-1.83,12.2,0.03
	C517.06,412.7,518.44,412.37,519.95,412.42z M399.51,449.8c-1.53,2.64,1.97,11.46,5.99,15.79
	C403.39,460.03,401.45,454.91,399.51,449.8z M176.98,352.55c-0.14-0.01-0.28-0.02-0.42-0.03c-0.17,1.11-0.45,2.21-0.48,3.33
	c-0.08,3.39-0.18,6.78-0.03,10.16c0.06,1.38,0.69,2.74,1.17,4.08c0.11,0.32,0.65,0.48,1,0.72c0.14-0.36,0.44-0.75,0.39-1.09
	c-0.19-1.39-0.49-2.77-0.79-4.41c0.38-0.33,0.35-0.3-0.37-1.13c-0.27-0.31-0.45-0.79-0.48-1.21c-0.11-1.2-0.18-2.41-0.16-3.61
	C176.82,357.09,176.91,354.82,176.98,352.55z M552.54,319.11c-2.96-1.07-5.97-1.6-9.07-1.04c-1.69,0.3-3.55,2.36-3.85,4.29
	C543.63,319.77,548.1,319.61,552.54,319.11z M394.42,64.49c-2.34-0.57-10.89,3.27-13.14,6.35c1.77-0.33,3.39-0.27,4.6-0.94
	C388.87,68.25,391.68,66.25,394.42,64.49z M455.21,420.75c-0.35,1.2-0.03,2.25,1.57,2.42c1.31,0.13,3.51-1.31,3.6-2.23
	c0.08-0.88-2.2-3.48-3.13-3.59C456.23,417.23,455.33,418.66,455.21,420.75z M246.38,595.5c-0.01,0.16-0.02,0.32-0.03,0.48
	c8.91-0.05,17.83,0.77,26.74-0.09c0-0.24,0-0.48-0.01-0.72C264.18,595.28,255.28,595.39,246.38,595.5z M328.71,175.26
	c-0.02-0.21-0.04-0.41-0.07-0.62c-6.13,0.6-12.15,0.28-18.04-1.72c2.08,1.31,4.24,2.32,6.47,3.16c0.48,0.18,1.2-0.41,1.8-0.39
	c2.55,0.09,5.1,0.34,7.66,0.37C327.25,176.09,327.98,175.55,328.71,175.26z M518.35,272.21c1.22-1.84,2.2-3.64,3.49-5.17
	c1.26-1.49,2.79-2.78,4.3-4.04c1.5-1.25,3.13-2.36,4.7-3.54C524.72,260.5,517.65,268.19,518.35,272.21z M210.74,404.89
	c-1.73-0.54-2.46-0.16-3.52,1.84c-0.68,1.27-1.22,2.65,0.26,3.64c2.08,1.4,2.91-0.85,4.09-1.51
	C211.28,407.49,211.02,406.26,210.74,404.89z M159.75,462.58c-0.42-0.66-0.45-0.8-0.53-0.83c-4.21-1.78-8.6-0.59-12.91-0.71
	c-0.19-0.01-0.4,0.54-0.59,0.82c0.34,0.18,0.67,0.5,1.02,0.52c1.98,0.14,3.96,0.28,5.94,0.3
	C154.9,462.72,157.13,462.63,159.75,462.58z M231.62,326.99c-1.59-5.47-7.8-7.69-11.99-4.68
	C223.95,322.78,228.21,323.69,231.62,326.99z M284.99,437.05c0.91-1.2,1.65-2.18,2.4-3.17c-0.87-0.74-1.7-1.6-2.69-2.22
	c-0.45-0.28-1.36-0.3-1.79-0.02c-1.4,0.91-1.44,1.81-0.47,4.21C283,437.26,284.16,437.17,284.99,437.05z M288.76,280.69
	c-6.73-1.57-17.83,1.4-21.17,7.78C273.49,282.67,280.78,280.77,288.76,280.69z M196.61,371.33c3.46-8.54,4.98-17.37,3.7-26.58
	C200.03,353.73,199.66,362.7,196.61,371.33z M587.63,510.63c-1.01,0.22-1.71,0.33-2.38,0.54c-2.15,0.65-2.35,1.44-0.85,3.31
	c0.89-0.65,1.78-1.29,3.08-2.23c-0.31,0.96-0.45,1.4-0.67,2.08c2.01-0.07,3.82-0.14,6.11-0.22c-0.84-0.53-1.27-0.8-1.9-1.19
	c0.58-0.15,0.93-0.23,1.38-0.35c-1.62-1.76-3.39-0.41-5.12-0.41C587.39,511.63,587.48,511.28,587.63,510.63z M287.09,407.42
	c-0.16-1.07-0.23-1.83-0.41-2.56c-0.12-0.46-0.3-1.04-0.65-1.27c-1.16-0.74-2.34-0.44-3.03,0.63c-0.51,0.79-1.08,2.09-0.76,2.75
	c0.46,0.98,1.59,1.9,3,1.38C285.96,408.08,286.64,407.65,287.09,407.42z M282.13,445.71c0.7,0.95,1.25,2.48,2.14,2.72
	c1.75,0.47,3.37-0.76,3.39-1.96c0.02-1.36-1.31-3.06-2.44-3.13C283.97,443.27,282.53,444.38,282.13,445.71z M423.4,176.03
	c3.48,0.7,10.93-1.48,14.36-4.29c3.01-2.47,5.88-5.12,8.79-7.71c0.18-0.16,0.23-0.48,0.34-0.72c-3.67,2.72-6.91,5.93-10.65,8.36
	C432.44,174.14,428.07,175.68,423.4,176.03z M332.34,479.87c0.44,3.22,1.65,6.02,3.85,8.4c0.97,1.06,1.81,2.27,2.54,3.51
	c0.6,1.01,0.96,2.17,1.42,3.26c0.22-0.11,0.43-0.22,0.65-0.33C339.51,488.94,335.04,484.88,332.34,479.87z M459.68,392.79
	c-0.3-0.58-0.59-1.14-0.86-1.71c-0.49-1.02-1.22-1.57-2.39-1.24c-1,0.29-2.09,0.76-1.84,1.96c0.27,1.27,0.52,2.74,2.21,3.17
	C458.8,395.49,459.23,394.11,459.68,392.79z M433.64,202.03c0.85-0.53,1.53-0.72,1.75-1.15c0.44-0.87,0.61-1.87,0.92-2.8
	c0.44-1.35-0.26-2.28-1.61-2.09c-1.72,0.24-3.17,2.4-2.59,4.08C432.34,200.75,433.03,201.28,433.64,202.03z M381.93,101.62
	c4.26-3.86,9.45-5.99,14.81-8.07C393.21,92.2,383.94,97.34,381.93,101.62z M533.13,448.81c0.83-0.74,1.97-1.33,2.4-2.26
	c0.42-0.9-1.57-2.83-2.59-2.83c-1.66-0.01-2.77,1.08-2.75,2.71C530.2,447.36,531.64,448.47,533.13,448.81z M285.48,423.42
	c0.14-1,0.18-1.6,0.31-2.18c0.34-1.5-0.81-3.76-1.67-3.28c-1.15,0.64-2.23,1.63-2.91,2.74c-0.23,0.36,0.69,1.84,1.41,2.27
	C283.38,423.44,284.54,423.3,285.48,423.42z M459.24,381.1c-0.23-1.67-1.27-3.04-2.69-3.12c-0.45-0.03-1.06,0.37-1.37,0.76
	c-0.41,0.52-0.66,1.2-0.88,1.84c-0.13,0.38-0.18,0.89-0.03,1.24c0.41,0.93,2.56,1.76,3.66,1.22
	C458.54,382.74,458.81,381.77,459.24,381.1z M533.67,406.16c0.09-1.61-0.61-2.79-1.69-2.86c-1.29-0.08-3.16,1.29-3.21,2.36
	c-0.05,1.09,1.37,2.58,2.53,2.66C532.65,408.42,533.59,407.56,533.67,406.16z M383.31,440.54c-3.69,0.1-6.95,0.2-10.4,0.29
	c1.19,2.34,2.98,2.52,4.98,2.08C379.73,442.51,381.94,442.9,383.31,440.54z M437.22,320.28c-1.89-2.37-4.28-3.49-7.19-3.35
	c-1.4,0.07-2.78,0.47-3.21,1.8C430.25,319.25,433.62,319.75,437.22,320.28z M334.39,460.19c0.21,0.2,0.43,0.41,0.64,0.61
	c4.31-4.53,8.63-9.06,12.94-13.59c-0.1-0.1-0.19-0.21-0.29-0.31c-2.03,1.35-3.99,2.74-5.53,4.74c-1.36,1.76-2.98,3.33-4.49,4.98
	C336.57,457.81,335.48,459,334.39,460.19z M500.29,568.08c2.04,3.73,4.22,7.08,9.04,6.78c-3.69-2.04-6.73-4.8-9.25-8.69
	c-0.5,1.2-0.79,1.93-1.09,2.65c0.08,0.05,0.16,0.11,0.24,0.16C499.53,568.71,499.85,568.45,500.29,568.08z M376.1,603.97
	c-0.11,0.16-0.22,0.32-0.34,0.48c0.35,0.38,0.64,0.87,1.07,1.12c2.05,1.19,4.13,2.33,6.22,3.46c1.67,0.91,4.62-0.29,5.14-2.14
	c0.12-0.43-0.1-0.96-0.2-1.71c-1.07,0.81-2.23,1.24-2.55,2.02c-0.89,2.17-2,1.3-3.16,0.48c-0.84-0.6-1.56-1.41-2.44-1.93
	C378.66,605.06,377.36,604.56,376.1,603.97z M531.57,422.52c1.65,0.07,2.41-0.54,2.46-1.94c0.05-1.46-0.96-2.34-2.72-2.38
	c-1.1-0.03-2.28,1.06-2.31,2.13C528.97,421.6,529.97,422.45,531.57,422.52z M457.39,436.27c0.14-0.06,0.67-0.16,0.93-0.47
	c0.83-0.99,0.29-4.24-0.8-4.96c-0.28-0.19-0.76-0.29-1.06-0.18c-1.29,0.46-1.83,1.53-1.85,2.82
	C454.58,434.51,456.21,436.25,457.39,436.27z M316.32,210.37c1.13-0.31,2.04-0.49,2.9-0.81c0.81-0.3,1.18-0.71,0.66-1.74
	c-1.17-2.33-3.01-2.58-4.62-0.43c-0.35,0.47-0.76,1.29-0.57,1.66C314.99,209.62,315.77,209.95,316.32,210.37z M260.45,343.43
	c-1.97,6.62-1.47,13.15-1.15,19.66c0.19,0.01,0.38,0.02,0.57,0.03C260.07,356.64,260.26,350.15,260.45,343.43z M506.37,547.96
	c0.66,0.83,1.16,1.88,2,2.45c3.41,2.33,6.91,4.52,10.38,6.76c0.08-0.12,0.16-0.24,0.25-0.36
	C515.31,553.2,510.92,550.54,506.37,547.96z M308.38,215.81c-0.54,0.5-1.55,1.05-1.86,1.87c-0.26,0.68,0.06,1.98,0.61,2.44
	c0.53,0.45,1.97,0.54,2.47,0.13c0.8-0.66,1.21-1.83,1.64-2.85c0.07-0.17-0.58-0.74-0.99-0.98
	C309.84,216.17,309.32,216.1,308.38,215.81z M285.83,252.54c-6.25-2.29-15.72,0.85-17.17,6.05
	C273.59,253.45,279.36,251.93,285.83,252.54z M307.11,320.29c3.14-0.43,6.57-0.9,9.99-1.36
	C314.97,316.02,309.05,317.04,307.11,320.29z M404.88,215.96c0.44-1.15-0.36-1.48-1.33-1.61c-1.09-0.14-3.49,1.76-3.27,2.77
	c0.16,0.76,0.93,1.8,1.6,1.96C403.32,219.4,404.8,217.72,404.88,215.96z M387.76,432.6c0.17-0.03,0.33-0.05,0.5-0.08
	c-0.33-0.9-0.5-1.9-1.01-2.67c-1.02-1.54-2.23-2.95-3.41-4.48c-1.24,0.69-1.4,3.39,0.11,4.49
	C385.21,430.78,386.49,431.68,387.76,432.6z M421.91,195.05c-2.08-1.07-3.43-0.54-4.3,1.48c-0.28,0.64,0.16,1.73,0.57,2.45
	c0.16,0.28,1.28,0.31,1.72,0.05c0.59-0.36,1.04-1.06,1.36-1.71C421.59,196.64,421.69,195.86,421.91,195.05z M411.14,209.33
	c1.54-1.17,2.57-2.28,1.83-3.93c-0.24-0.55-1.41-1.24-1.75-1.07c-1,0.49-1.79,1.39-2.67,2.13
	C409.41,207.4,410.27,208.35,411.14,209.33z M451.03,192.32c-0.25-1.25-1.29-1.51-2.25-1.22c-0.86,0.26-1.8,0.87-2.3,1.61
	c-0.68,1.01,0.18,2.18,1.62,2.67c1.23,0.42,1.83,0.03,2.06-1.25C450.27,193.56,450.68,193.03,451.03,192.32z M402.19,241.39
	c4.41,2.06,8.95,2.68,13.64,1.56c0.02-0.19,0.03-0.37,0.05-0.56C411.31,242.06,406.75,241.73,402.19,241.39z M428.49,207.97
	c-0.67-0.98-1.02-2.1-1.63-2.27c-1.35-0.36-3.65,1.49-3.22,2.52c0.35,0.86,1.6,1.82,2.47,1.84
	C426.85,210.06,427.61,208.79,428.49,207.97z M207.26,449.5c0.64-0.92,1-1.59,1.5-2.12c0.81-0.85,0.53-1.56-0.29-2
	c-0.54-0.29-1.46-0.46-1.92-0.19c-0.88,0.52-1.69,1.3-2.22,2.17c-0.11,0.18,1,1.24,1.66,1.75
	C206.38,449.41,206.99,449.42,207.26,449.5z M235.67,418.92c-0.01-0.18-0.03-0.35-0.04-0.53c-5.39,1.18-10.33-2.54-15.74-1.23
	c4.58,0.95,9.2,1.6,13.82,2.17C234.34,419.4,235.01,419.06,235.67,418.92z M273.57,417.53c0.02-0.23,0.04-0.46,0.05-0.69
	c-2.46-0.07-4.93-0.35-7.37-0.16c-2.66,0.2-5.25,1.31-7.99,0.56c-0.51-0.14-1.05-0.19-2.03-0.37c3.45,1.9,5.37,2.22,8.47,1.18
	c2.03-0.68,4.02-0.96,6.14-0.62C271.73,417.58,272.66,417.5,273.57,417.53z M437.21,215.24c-1.64-0.44-2.81,0.09-3.78,1.14
	c-0.86,0.93-1.06,2.03-0.41,3.16c0.22,0.38,0.65,0.93,0.94,0.9c0.44-0.04,1.02-0.42,1.23-0.82
	C435.9,218.29,436.47,216.88,437.21,215.24z M459.09,406.43c0.01-0.96-1.24-2.37-2.21-2.24c-0.97,0.13-2.24,0.12-2.42,1.52
	c-0.14,1.07,1.38,2.53,2.6,2.55C458.27,408.27,459.07,407.76,459.09,406.43z M500.52,527.84c-1.85-0.71-3.57-1.53-5.38-2.03
	c-1.85-0.52-3.76-0.48-5.39,0.18c2.6,0.82,5.27,1.51,7.81,2.53C498.89,529.06,499.77,529.08,500.52,527.84z M341.15,611.89
	c1.39-0.64,3.09-1.35,4.7-2.24c0.42-0.23,0.53-1.04,0.78-1.58c-0.52,0.12-1.21,0.06-1.54,0.38c-2.23,2.14-4.69,2.43-7.43,1.18
	c-0.15-0.07-0.33-0.2-0.46-0.16c-0.33,0.1-0.63,0.28-0.95,0.43c0.21,0.26,0.36,0.68,0.63,0.77
	C338.12,611.08,339.4,611.4,341.15,611.89z M351.12,171.19c4.96-2.86,10.36-1.55,15.66-3.05
	C357.23,167.53,353.04,168.31,351.12,171.19z M323.69,218.43c0.28,0.21,0.7,0.75,1.22,0.87c1.56,0.36,3.73-0.96,3.54-2.27
	c-0.1-0.64-1.24-1.34-2.05-1.62C325.22,215.01,323.96,216.33,323.69,218.43z M518.86,539.75c-3.37-3.28-8.72-5.52-12.15-4.18
	C510.71,536.94,514.92,538.39,518.86,539.75z M311.76,198.56c-0.59-1.39-2-2-3.28-1.45c-1.14,0.48-2.02,1.92-1.65,2.7
	c0.52,1.12,2.24,1.34,4.01,0.47c-0.09-0.54-0.18-1.11-0.28-1.76C310.97,198.54,311.36,198.55,311.76,198.56z M500.8,562.98
	c-1.05-0.54-1.04-0.54-1.69,0.51c-1.89,3.07-3.48,6.37-6.38,8.71c-0.13,0.11-0.14,0.37-0.2,0.57
	C496.08,570.19,499.11,567.22,500.8,562.98z M260.27,317.81c2.9,0.95,5.76,1.88,8.62,2.82C267.22,317,262.29,315.49,260.27,317.81z
	 M444.53,205.88c-1.94-0.5-3.92,0.67-4.2,2.53c-0.03,0.19,0.03,0.57,0.12,0.59c1.09,0.26,2.21,0.67,3.28,0.56
	c0.33-0.03,0.55-1.51,0.75-2.34C444.58,206.8,444.52,206.34,444.53,205.88z M532.43,393.35c-0.16-1.29,0.21-2.64-1.53-2.64
	c-1.01,0-2.57,1.39-2.25,2.22c0.33,0.84,1.17,1.86,1.96,2.03C531.57,395.18,532.72,394.6,532.43,393.35z M303.38,208.02
	c-0.04-0.22-0.07-0.43-0.11-0.65c-0.74-0.31-1.47-0.77-2.24-0.88c-1.02-0.15-2.82,1.72-2.47,2.62c0.27,0.69,1.55,1.7,1.74,1.58
	C301.43,209.96,302.38,208.94,303.38,208.02z M531.46,531.6c-0.8-2.14-0.78-4.97-4.16-4.95C526.41,529.57,526.9,529.83,531.46,531.6
	z M223.24,273.66c-0.32-2.62-8.35-11.62-10.43-11.6C216.18,265.81,219.76,269.79,223.24,273.66z M243.81,310.4
	c-1.87-5.75-3.73-11.5-5.62-17.31C238.82,299.32,240.82,305.04,243.81,310.4z M535.11,434.82c-1.12-0.89-1.73-1.55-2.49-1.91
	c-0.6-0.28-1.59-0.49-2.01-0.19c-0.5,0.36-0.97,1.49-0.75,1.95c0.31,0.65,1.27,1.37,1.94,1.36
	C532.76,436.01,533.72,435.36,535.11,434.82z M342.34,514.51c0.09,0.3,0.17,0.6,0.26,0.9c1.42,0.1,3.08,0.66,4.17,0.12
	c0.71-0.35,0.6-2.35,0.86-3.61c-0.19-0.03-0.39-0.07-0.58-0.1c-0.13,0.68-0.26,1.36-0.34,1.78c-0.41-0.4-1.07-1.26-1.23-1.18
	C344.37,513.01,343.37,513.79,342.34,514.51z M343.06,216.15c0.01-0.19,0.03-0.38,0.04-0.57c-0.9-0.26-2.01-0.96-2.67-0.66
	c-0.98,0.44-1.71,1.54-2.4,2.46c-0.15,0.2,0.19,1.02,0.52,1.24c0.34,0.23,1.07,0.28,1.39,0.05
	C341.04,217.91,342.03,217,343.06,216.15z M358.53,177.33c-0.07,0.2-0.14,0.41-0.22,0.61c2.05,0.83,4.11,1.66,6.4,2.58
	C364.26,177.27,361.13,175.89,358.53,177.33z M313.75,316.46c-4.32-2.51-6.09-1.01-8.44,3.88
	C307.64,318.01,310.25,316.32,313.75,316.46z M154.04,515.16c0.28-0.84,0.59-1.79,0.93-2.84c-1.76-0.92-4.83-0.88-6.02,0.29
	C150.61,513.44,152.29,514.28,154.04,515.16z M461.23,186.65c-1.26,0.95-2.32,1.62-3.17,2.5c-0.24,0.25,0.01,1.26,0.34,1.69
	c0.7,0.89,1.63,1.5,2.68,0.84C461.13,190.12,461.17,188.68,461.23,186.65z M458.1,201.13c-1.79-0.49-2.93,0.14-3.4,1.76
	c-0.27,0.92-0.46,1.95,0.71,2.33c1.12,0.36,1.88-0.23,2.14-1.38C457.75,202.96,457.91,202.09,458.1,201.13z M286.46,205.01
	c1.73-0.17,3.36-0.16,3.59-1.75c0.19-1.36-1.35-1.36-2.31-1.55c-0.94-0.18-2.59,1.3-2.39,2.23
	C285.45,204.43,286.21,204.78,286.46,205.01z M333.19,204.29c-1.05,0.88-1.92,1.61-2.78,2.33c0.88,0.53,1.7,1.27,2.65,1.52
	c1.06,0.28,2.47-1.07,2.18-2.08C335.05,205.44,334.1,205.04,333.19,204.29z M327.08,197.02c-0.03-0.24-0.06-0.49-0.09-0.73
	c-0.79-0.38-1.73-1.24-2.33-1.04c-0.96,0.32-1.69,1.33-2.51,2.04c0.67,0.47,1.43,1.42,1.99,1.31
	C325.18,198.39,326.11,197.58,327.08,197.02z M349.49,580.22c-3.83-2.7-7.88-2.67-12.12-1.65
	C341.44,579.13,345.42,579.67,349.49,580.22z M289.41,315.35c-3.47-1.42-10.13,2.57-11.01,6.58
	C281.29,318.29,284.91,316.34,289.41,315.35z M389.04,582.28c-4.76-0.14-9.52-0.28-14.27-0.42c-0.01,0.14-0.01,0.29-0.02,0.43
	C379.47,583.43,384.23,583.51,389.04,582.28z M415.39,217.3c2.03,1.94,2.22,1.91,3.74-0.41c0.08-0.12,0.25-0.18,0.37-0.29
	c0.7-0.64,0.67-0.94-0.14-1.3C417.82,214.63,416.62,215.21,415.39,217.3z M283.79,145.38c-0.43-2.26-0.83-4.25-1.17-6.24
	c-0.31-1.87-0.55-3.74-0.82-5.62C280.81,138.3,281.48,142.17,283.79,145.38z M286.29,379.3c-1.35-0.88-2.42,0.12-3.45,0.98
	c-0.27,0.22-0.31,1.24-0.22,1.28c1.17,0.44,1.92,2.08,3.11,1.55C285.94,381.7,286.1,380.61,286.29,379.3z M212.4,380.94
	c-1.5-0.45-3.15,0.12-3.74,1.42c-0.22,0.49-0.24,1.21-0.05,1.7c0.11,0.28,0.91,0.55,1.26,0.42c0.67-0.23,1.41-0.62,1.79-1.17
	C212.09,382.69,212.15,381.82,212.4,380.94z M358.39,227.2c3.33-0.9,9.6-6.81,9.78-8.77C365.07,221.2,361.85,224.09,358.39,227.2z
	 M516.61,540.33c2.82,2.69,5.64,5.39,8.77,8.38C524.41,545.78,520.48,541.96,516.61,540.33z M430.45,320
	c1.98,1.22,3.95,2.48,5.98,3.62c0.33,0.19,0.98-0.19,1.69-0.36C435.96,320.68,433.29,320.2,430.45,320z M310.81,174.49
	c-4.47-3.46-8.66-6.7-12.86-9.95C301.85,168.19,305.37,172.35,310.81,174.49z M455.13,319.06c-0.02,0.15-0.05,0.3-0.07,0.44
	c3.1,0.77,6.19,1.54,9.29,2.31c0.04-0.15,0.07-0.29,0.11-0.44C461.52,319.92,458.65,318.23,455.13,319.06z M214.01,324.81
	c3.1-1.74,5.99-3.36,8.71-4.89C220.7,319.14,215.78,321.64,214.01,324.81z M146.89,554.63c-0.14-0.17-0.29-0.34-0.43-0.51
	c-2.2,2.3-4.71,3.84-8.06,3.35c1.63,0.98,3.4,1.55,4.98,0.58C144.73,557.22,145.73,555.8,146.89,554.63z M453.61,252.08
	c0.01,0.27,0.03,0.55,0.04,0.82c1.67-0.36,3.33-0.8,5.01-1.06c1.74-0.27,3.5-0.37,5.26-0.55
	C460.35,250.4,456.93,250.77,453.61,252.08z M370.36,187.59c-0.09,0.2-0.17,0.4-0.26,0.59c0.86,1.23,1.73,2.47,2.54,3.63
	c0.39-0.74,0.81-1.31,1-1.95c0.16-0.52,0.19-1.56,0.05-1.6C372.61,187.93,371.48,187.79,370.36,187.59z M267.58,151.27
	c-0.83-3.67-1.58-6.97-2.33-10.28C265.56,144.41,264.38,148.16,267.58,151.27z M389.77,181.15c-2.79,1.87-5.59,3.73-8.38,5.6
	c0.09,0.13,0.18,0.26,0.28,0.39C384.97,186.02,387.65,184.01,389.77,181.15z M383.2,175.23c-1.96-0.59-3.88,0.06-5.13,2.12
	c-0.31,0.52-1.43,1.16-0.51,1.82C379.57,177.76,381.44,176.46,383.2,175.23z M370.46,514.8c0.25,0.03,0.5,0.07,0.76,0.1
	c0.34-2.24,0.68-4.48,1.02-6.72c-0.22-0.03-0.43-0.07-0.65-0.1C369.86,510.09,370.79,512.55,370.46,514.8z M283.87,212.75
	c0.33,1.89,6.63,7.79,8.6,7.78c-1.56-1.36-3-2.59-4.41-3.86C286.65,215.39,285.27,214.06,283.87,212.75z M385.61,177.08
	c-2.67-1.05-5.07-0.05-6.37,2.71C381.49,178.83,383.43,178.01,385.61,177.08z M518,323.45c2.81,0.23,5.37,0.45,7.93,0.66
	C524.04,322.24,520.15,322.04,518,323.45z M419.38,262.17c-1.28,2.2-1.13,8.2,0.24,10C419.53,268.83,419.46,265.56,419.38,262.17z
	 M153.09,510.57c-3.89-0.93-7.32-0.25-8.11,1.56C147.63,511.62,150.28,511.11,153.09,510.57z M529.93,379.93
	c0.85,1.11-0.51,3.35,1.88,3.05c2.02-0.25,0.88-1.86,0.82-2.97C531.79,379.98,531,379.96,529.93,379.93z M506.48,285.42
	c-0.33-0.04-0.65-0.08-0.98-0.12c-0.1,3.5-0.21,6.99-0.31,10.49c0.13,0.01,0.26,0.02,0.39,0.04
	C505.88,292.36,506.18,288.89,506.48,285.42z M358.02,185.7c-3.09-1.87-5.73-4.16-7.42-7.69
	C350.59,181.09,353.83,184.39,358.02,185.7z M294.93,280.92c3.08,0.94,6.16,1.88,9.33,2.85
	C301.55,281.41,298.38,280.75,294.93,280.92z M247.94,433.01c-0.11-0.01-0.22-0.02-0.32-0.03c-0.1,3.51-0.21,7.03-0.31,10.54
	c0.11,0,0.22,0,0.32,0C247.73,440.02,247.83,436.51,247.94,433.01z M458.2,446.08c-0.67-0.64-1.25-1-1.2-1.18
	c0.6-2.25-0.97-1.24-2.02-1.49c0.06,1.09,0.11,1.97,0.15,2.84C456.02,446.2,456.91,446.15,458.2,446.08z M466.91,81.94
	c0.01-0.26,0.01-0.51,0.02-0.77c-1.76-0.05-3.53-0.13-5.29-0.12c-0.23,0-0.45,0.48-0.67,0.74c0.3,0.15,0.6,0.44,0.89,0.43
	C463.53,82.17,465.22,82.05,466.91,81.94z M506.51,571.19c-1.68-2.16-4.1-3.78-4.67-6.78C500.54,566.09,502.39,568.78,506.51,571.19
	z M523.53,370.55c0.47,1.21,0.87,2.23,2.14,2.17c0.96-0.05,2.27,0.27,2.62-1.43C526.77,371.05,525.33,370.83,523.53,370.55z
	 M435.2,214.1c-1.7-0.06-3.19,0.36-3.85,1.96c-0.41,0.98-0.72,2.17,0.49,3.33C431.93,216.83,432.89,215.04,435.2,214.1z
	 M449.83,69.38c0.08,0.19,0.16,0.39,0.24,0.58c2.23-0.95,4.46-1.89,6.69-2.84c-0.06-0.14-0.12-0.28-0.17-0.42
	C454.2,67.27,451.74,67.66,449.83,69.38z M328.53,367.76c1.48-2.42,2.77-4.89,2.74-7.76c-0.16-0.05-0.32-0.09-0.47-0.14
	C330.04,362.5,329.29,365.13,328.53,367.76z M274.57,184.61c-0.13,0.02-0.25,0.04-0.38,0.06c0.39,3.58,0.78,7.16,1.17,10.74
	c0.17-0.02,0.34-0.04,0.51-0.06C275.44,191.78,275,188.2,274.57,184.61z M466.76,530.91c0.17,0.04,0.33,0.08,0.5,0.13
	c0.79-0.94,1.59-1.89,2.38-2.83c-0.1-0.19-0.21-0.37-0.31-0.56c-0.88,0.21-2.07,0.16-2.53,0.71
	C466.38,528.87,466.75,530.04,466.76,530.91z M557.22,323.33c-1.53-2.11-3.57-3.08-6.04-3.07c-0.06,0.15-0.13,0.29-0.19,0.44
	C553.07,321.58,555.15,322.45,557.22,323.33z M336.41,475.09c1.91-0.81,3.45-1.46,5.19-2.2
	C339.25,471.86,337.26,472.63,336.41,475.09z M305.08,226.61c2.43,1.47,5.01,2.15,7.76,2.01c0.03-0.15,0.06-0.29,0.09-0.44
	C310.31,227.66,307.7,227.13,305.08,226.61z M355.66,182.57c2.04,1.68,3.94,3.72,6.97,3.52
	C360.3,184.91,357.98,183.74,355.66,182.57z M386.63,168.6c-4.12-1.44-7.87-0.85-11.62-0.34
	C378.73,168.37,382.46,168.48,386.63,168.6z M248.39,423.48c-0.1-0.03-0.19-0.06-0.29-0.09c-0.2,2.66-0.4,5.32-0.6,7.97
	c0.22,0.01,0.43,0.03,0.65,0.04C248.24,428.77,248.31,426.12,248.39,423.48z M393.52,471.81c0.19,0.04,0.38,0.07,0.58,0.11
	c0.18-1.18,0.42-2.35,0.53-3.54c0.11-1.19,0.09-2.39,0.12-3.59c-0.13-0.01-0.26-0.03-0.38-0.04
	C394.08,467.11,393.8,469.46,393.52,471.81z M346.96,92.13c-0.07,0.16-0.13,0.32-0.2,0.48c2.62,1.11,5.24,2.23,7.86,3.34
	c0.08-0.19,0.16-0.38,0.24-0.57C352.23,94.3,349.6,93.21,346.96,92.13z M393.32,429.6c-0.41-1.9-1.37-2.64-3.69-2.97
	C390.59,427.98,391.37,429.33,393.32,429.6z M322.68,263.47c0.17-0.05,0.33-0.1,0.5-0.14c-0.66-2.33-1.33-4.65-1.99-6.98
	c-0.19,0.05-0.37,0.11-0.56,0.16C321.32,258.83,322,261.15,322.68,263.47z M344.29,242.27c0.08,0.17,0.16,0.34,0.24,0.51
	c2.62-1.31,5.24-2.61,7.85-3.92c-0.07-0.15-0.14-0.29-0.21-0.44C349.54,239.71,346.91,240.99,344.29,242.27z M251.86,389.14
	c0.08-2.56,0.15-5.12,0.23-7.68C251.27,383.97,251.33,386.54,251.86,389.14z M441.47,96.67c-0.16,0.19-0.32,0.38-0.48,0.57
	c2.06,1.79,4.13,3.58,6.19,5.37c0.12-0.14,0.23-0.27,0.35-0.41C445.51,100.36,443.49,98.51,441.47,96.67z M374.68,186.8
	c0.03-0.16,0.06-0.32,0.08-0.48c-1.58-0.22-3.16-0.46-4.74-0.62c-0.27-0.03-0.57,0.34-0.86,0.53c0.3,0.23,0.59,0.65,0.89,0.65
	C371.59,186.91,373.14,186.83,374.68,186.8z M211.95,378.85c-0.01-0.24-0.02-0.48-0.03-0.73c-1.17,0.08-2.35,0.08-3.49,0.3
	c-0.25,0.05-0.36,0.86-0.63,1.58C209.47,379.54,210.71,379.2,211.95,378.85z M411.27,72.89c-0.06-0.18-0.08-0.32-0.12-0.33
	c-2.42-0.4-4.8-0.35-7.08,0.71C406.45,73.15,408.84,73.02,411.27,72.89z M282.31,379.01c0.2,0.07,0.39,0.13,0.59,0.2
	c0.84-0.53,1.68-1.05,2.52-1.58c0.02-0.15,0.04-0.31,0.07-0.46c-0.87-0.08-1.82-0.39-2.58-0.14
	C282.53,377.16,282.5,378.32,282.31,379.01z M291.74,160.07c-0.09,0.24-0.18,0.49-0.27,0.73c1.81,0.71,3.62,1.42,5.43,2.12
	c0.08-0.21,0.16-0.41,0.25-0.62C295.34,161.57,293.54,160.82,291.74,160.07z M254.41,407.28c0.07,0.17,0.14,0.34,0.2,0.52
	c1.92-0.59,3.84-1.19,5.76-1.78c-0.05-0.15-0.09-0.29-0.14-0.44C258.23,405.93,256.14,406,254.41,407.28z M495.03,528.39
	c-1.76-0.89-3.54-1.76-5.83-0.43C491.4,528.12,493.22,528.26,495.03,528.39z M322.49,271.51c0.12,0,0.24,0,0.36,0
	c0.06-2.09,0.12-4.18,0.18-6.26c-0.12-0.01-0.24-0.01-0.36-0.02C322.61,267.33,322.55,269.42,322.49,271.51z M358.98,454.77
	c0.28-2.49-0.63-4.03-2.66-5.17C357.22,451.36,358.04,452.93,358.98,454.77z M390.41,610.89c1.24-0.45,2.25-0.82,3.27-1.19
	c-0.04-0.13-0.09-0.26-0.13-0.39c-1.18-0.13-2.36-0.26-3.71-0.41C390.02,609.54,390.17,610.04,390.41,610.89z M499.52,307.53
	c0.22,0.07,0.44,0.15,0.65,0.22c0.77-2.17,1.55-4.35,2.32-6.52c-0.13-0.05-0.26-0.1-0.39-0.15
	C501.25,303.23,500.39,305.38,499.52,307.53z M419.66,261.29c0.93-2.08,1.87-4.16,2.8-6.25
	C421.26,257.01,419.42,258.68,419.66,261.29z M527.39,530.49c-0.17,0.29-0.34,0.57-0.51,0.86c1.35,0.75,2.71,1.49,4.06,2.24
	c0.09-0.16,0.19-0.32,0.28-0.49C529.94,532.23,528.67,531.36,527.39,530.49z M360.09,215.55c0.15,0.08,0.3,0.17,0.46,0.25
	c1.02-2.11,2.05-4.22,3.07-6.33c-0.15-0.07-0.3-0.14-0.44-0.22C362.15,211.36,361.12,213.46,360.09,215.55z M315.75,228.69
	c0,0.17,0,0.33,0,0.5c2.01,0.24,4.01,0.49,6.02,0.73c0.02-0.22,0.04-0.44,0.07-0.66C319.8,229.07,317.78,228.88,315.75,228.69z
	 M564.98,363.86c-0.16-0.05-0.32-0.1-0.47-0.15c-0.45,1.56-0.9,3.13-1.46,5.07C565.48,367.43,564.15,365.31,564.98,363.86z
	 M421.12,84.28c0.03-0.13,0.05-0.27,0.08-0.4c-2.12-0.4-4.24-0.8-6.36-1.19c-0.03,0.2-0.07,0.4-0.1,0.59
	C416.87,83.61,418.99,83.95,421.12,84.28z M497.12,394.29c0.03,0,0.06-0.01,0.09-0.01c0.08-2.58,0.15-5.16,0.23-7.74
	c-0.17,0-0.34,0.01-0.51,0.01C496.99,389.13,497.05,391.71,497.12,394.29z M274.48,460.79c0,0.23-0.01,0.47-0.01,0.7
	c1.87-0.13,3.75-0.25,5.62-0.38c0-0.15-0.01-0.3-0.01-0.45C278.21,460.71,276.34,460.75,274.48,460.79z M360.69,175.73
	c-0.03-0.19-0.05-0.38-0.08-0.57c-0.96-0.03-1.92-0.12-2.87-0.05c-0.28,0.02-0.54,0.47-0.81,0.73c0.37,0.21,0.77,0.63,1.1,0.58
	C358.94,176.3,359.81,175.97,360.69,175.73z M295.33,193.86c-0.04-0.06-0.09-0.13-0.13-0.19c0.55-0.34,1.11-0.68,1.66-1.02
	c-0.09-0.17-0.19-0.33-0.28-0.5c-0.9,0.42-1.8,0.85-2.81,1.32c0.88,1.15,1.52,1.71,2.45,0.83c0.09-0.08,0.07-0.29,0.12-0.57
	C295.94,193.79,295.63,193.82,295.33,193.86z M465.71,208c0.23,0.1,0.46,0.2,0.68,0.3c0.61-1.42,1.22-2.84,1.83-4.26
	c-0.22-0.09-0.45-0.19-0.67-0.28C466.95,205.18,466.33,206.59,465.71,208z M542.73,370.25c0.1,1.79,1.1,2.06,3.48,0.79
	C545.11,370.79,544,370.54,542.73,370.25z M566.28,348.58c-0.11,0.02-0.22,0.05-0.33,0.07c-0.07,2.32-0.14,4.63-0.2,6.95
	c0.11,0,0.22,0,0.32,0C566.14,353.26,566.21,350.92,566.28,348.58z M473.28,178.91c-0.08,0-0.17,0-0.25-0.01
	c-0.09,2.91-0.17,5.83-0.26,8.74c0.08,0,0.17,0,0.25,0.01c0.04-1.47,0.09-2.95,0.13-4.42C473.2,181.79,473.24,180.35,473.28,178.91z
	 M472.66,508.77c-0.23,0.07-0.45,0.14-0.68,0.21c0.44,1.37,0.89,2.74,1.33,4.11c0.22-0.07,0.44-0.14,0.66-0.21
	C473.54,511.52,473.1,510.14,472.66,508.77z M533.89,423.61c-1.54-0.25-2.78-0.44-4.2-0.67
	C531.44,424.74,532.32,424.91,533.89,423.61z M431.28,91.18c-0.07,0.23-0.15,0.46-0.22,0.69c1.43,0.4,2.86,0.81,4.29,1.21
	c0.07-0.23,0.13-0.47,0.2-0.7C434.12,91.98,432.7,91.58,431.28,91.18z M373.13,200.69c-2.02-0.89-3.19-0.54-4.18,1.06
	C370.46,201.37,371.8,201.03,373.13,200.69z M453.6,203.49c0.58-1.09,1.11-2.09,1.67-3.15C453.09,200.31,452.56,201.31,453.6,203.49
	z M461.41,124.58c-0.13,0.01-0.26,0.01-0.39,0.02c0.31,1.74,0.62,3.47,0.93,5.21c0.22-0.05,0.44-0.09,0.66-0.14
	C462.21,127.98,461.81,126.28,461.41,124.58z M287.68,200.34c-2.3-0.25-3.37,0.6-2.98,2.46
	C285.69,201.99,286.72,201.14,287.68,200.34z M356.7,469.41c-0.13-0.04-0.25-0.07-0.38-0.11c-0.54,1.55-1.07,3.1-1.61,4.65
	c0.22,0.07,0.45,0.13,0.67,0.2C355.83,472.57,356.26,470.99,356.7,469.41z M529.87,436.7c1.89,1.76,2.92,1.82,4.29,0.37
	C532.82,436.95,531.42,436.83,529.87,436.7z M513.42,506.94c-0.23,0.04-0.47,0.08-0.7,0.12c0.22,1.41,0.44,2.81,0.66,4.22
	c0.22-0.04,0.44-0.07,0.66-0.11C513.83,509.77,513.62,508.36,513.42,506.94z M283.62,191.19c0.73-1.2,1.17-1.93,1.62-2.66
	c-0.8-0.05-1.76,0.07-2.05,0.57C282.93,189.54,283.43,190.41,283.62,191.19z M309.59,195.54c-2.42-0.48-2.99-0.13-3.1,1.85
	C307.5,196.78,308.47,196.2,309.59,195.54z M266.2,430.35c0.02-0.08,0.03-0.16,0.05-0.25c-1.9-0.3-3.8-0.59-5.71-0.89
	c-0.02,0.19-0.04,0.37-0.06,0.56C262.39,429.96,264.3,430.15,266.2,430.35z M403.38,213.1c-2.2,0-3.06,0.72-3.09,2.26
	c0.11,0,0.25,0.04,0.32-0.02C401.46,214.67,402.29,213.98,403.38,213.1z M242.88,380.69c1.09-0.22,1.98-0.4,3.17-0.64
	C243.7,378.75,243.23,378.84,242.88,380.69z M356.85,68.82c-0.11,0.24-0.23,0.47-0.34,0.71c1.15,0.44,2.31,0.88,3.46,1.31
	c0.07-0.18,0.14-0.36,0.21-0.53C359.07,69.81,357.96,69.32,356.85,68.82z M453.33,360.15c0.22-0.03,0.45-0.06,0.67-0.09
	c-0.17-1.65-0.33-3.31-0.5-4.96c-0.18,0.02-0.35,0.03-0.53,0.05C453.09,356.82,453.21,358.48,453.33,360.15z M378.46,127.36
	c0.08,0.02,0.16,0.04,0.23,0.06c0.25-0.82,0.48-1.66,0.75-2.47c0.26-0.76,0.56-1.49,0.85-2.24c-0.22-0.05-0.44-0.1-0.66-0.15
	C379.25,124.16,378.85,125.76,378.46,127.36z M441.82,269.56c0.1,0.21,0.21,0.42,0.31,0.63c0.94-0.67,1.88-1.33,2.82-2
	c-0.11-0.16-0.22-0.32-0.32-0.47C443.7,268.34,442.76,268.95,441.82,269.56z M425.92,204.67c-2.57-0.03-3.28,0.54-2.69,2.03
	C424.05,206.08,424.86,205.47,425.92,204.67z M337.51,216.11c1.01-0.87,1.77-1.52,2.79-2.39
	C338.77,213.97,337.48,213.96,337.51,216.11z M519.77,507.96c-0.22-0.03-0.44-0.06-0.66-0.09c-0.15,1.12-0.29,2.23-0.44,3.35
	c0.16,0.02,0.33,0.05,0.49,0.07C519.36,510.18,519.57,509.07,519.77,507.96z M511.04,523.5c-0.03,0.18-0.06,0.36-0.08,0.55
	c1.41,0.23,2.82,0.46,4.22,0.7c0.02-0.17,0.04-0.33,0.07-0.5C513.84,524,512.44,523.75,511.04,523.5z M524.58,474.6
	c0-0.2,0.01-0.41,0.01-0.61c-1.08,0.02-2.16,0.05-3.24,0.07c0,0.15,0,0.29,0,0.44C522.43,474.53,523.5,474.57,524.58,474.6z
	 M364.19,483.63c-0.14-0.12-0.27-0.23-0.41-0.35c-0.86,1.25-1.73,2.49-2.59,3.74c0.12,0.09,0.25,0.17,0.37,0.26
	C362.43,486.07,363.31,484.85,364.19,483.63z M334.93,609.95c0.12-0.24,0.23-0.48,0.35-0.72c-1.1-0.41-2.2-0.81-3.31-1.22
	c-0.06,0.14-0.12,0.28-0.17,0.42C332.85,608.94,333.89,609.45,334.93,609.95z M483.03,541.47c-0.12-0.17-0.24-0.35-0.35-0.52
	c-1,0.8-2.01,1.59-3.01,2.39c0.08,0.11,0.17,0.22,0.25,0.32C480.95,542.94,481.99,542.2,483.03,541.47z M481.07,560.6
	c-0.08-0.14-0.16-0.28-0.24-0.42c-1.19,0.83-2.37,1.66-3.56,2.48c0.08,0.11,0.15,0.22,0.23,0.34
	C478.69,562.2,479.88,561.4,481.07,560.6z M208.16,443.39c-1.6-0.58-2.4,0.39-3.3,1.15c0.07,0.15,0.14,0.29,0.2,0.44
	C206.07,444.47,207.07,443.95,208.16,443.39z"/>
<path class="st0" d="M277.93,526.57c0.63,1.47,1.6,2,3.01,1.17c1.07-0.63,2.08-1.36,3.11-2.05c0.27-0.18,0.53-0.39,0.8-0.59
	c1.11-0.81,2.5-0.99,3.25,0.06c0.35,0.49-0.33,2.06-0.95,2.79c-0.89,1.06-2.15,1.81-3.55,2.94c0.75,0.19,1.1,0.4,1.4,0.35
	c3.32-0.63,3.76,0.92,4.43,3.1c0.26,0.84,0.48,1.71,0.55,2.59c0.05,0.54-0.04,1.4-0.37,1.58c-0.48,0.26-1.32,0.24-1.82-0.02
	c-1.19-0.62-2.27-1.44-3.4-2.18c-0.1,0.1-0.2,0.2-0.3,0.31c0.25,0.37,0.49,0.75,0.74,1.11c1.07,1.53,2.29,2.99,2.04,5.05
	c-0.06,0.45-0.02,1.25-0.17,1.29c-0.55,0.13-1.3,0.21-1.71-0.07c-1.47-1.02-2.83-2.2-4.64-3.25c0.22,0.73,0.22,1.7,0.7,2.14
	c1.46,1.35,0.95,2.84,0.54,4.32c-0.07,0.26-1.02,0.57-1.34,0.42c-1.22-0.59-2.35-1.37-3.62-2.15c0.01,0.77-0.16,1.82,0.07,2.78
	c1.89,7.98,3.84,15.95,4.53,24.15c0.12,1.37,0.19,2.75,0.16,4.12c-0.01,0.41-0.42,0.81-0.65,1.22c-0.18-0.06-0.36-0.11-0.53-0.17
	c-0.06,0.47-0.11,0.94-0.2,1.68c-4.74,0.06-9.42,0.12-14.1,0.16c-2.37,0.02-4.75-0.03-7.12,0.04c-0.5,0.02-1.43,0.49-1.41,0.69
	c0.05,0.68,0.32,1.43,0.75,1.95c0.35,0.43,1.03,0.73,1.6,0.8c2.88,0.33,5.77,0.64,8.66,0.8c0.69,0.04,1.41-0.49,2.11-0.77
	c0.92-0.36,1.81-0.78,2.75-1.08c1.23-0.39,2.52-0.42,3.23,0.85c0.67,1.2,0.02,2.3-0.65,3.38c-2.12,3.41-5.46,4.31-9.1,4.31
	c-3.19,0-6.38-0.35-9.57-0.54c-1.6-0.09-3.2-0.27-4.79-0.25c-2.95,0.04-5.95,0.35-8.07-2.81c0.4-1.39,1.16-3.08,1.27-4.81
	c0.05-0.72-1.16-2.03-1.99-2.21c-2.19-0.48-4.49-0.5-6.75-0.65c-0.26-0.02-0.78,0.3-0.76,0.4c0.08,0.52,0.2,1.08,0.48,1.51
	c0.45,0.67,1.24,1.16,1.53,1.87c1.37,3.36-0.82,6.09-3.94,6.96c-1.07,0.3-2.37-0.34-3.55-0.29c-3.35,0.15-6.73,0.17-10.01,0.73
	c-4.48,0.76-8.89,1.23-13.48,0.95c-2.48-0.15-3.38-1.71-4.7-2.94c-1.16-1.09-0.39-3.51,1.11-4.19c0.4-0.18,0.81-0.32,1.16-0.46
	c-0.06-0.72-0.06-1.36-0.18-1.99c-0.26-1.42-0.51-2.85-0.94-4.23c-0.11-0.35-0.88-0.66-1.37-0.68c-1.32-0.06-2.65,0.01-3.97,0.1
	c-1.39,0.09-2.88,0.55-3.68-1.52c0.83-1.54,1.88-3.3,2.71-5.16c0.31-0.68,0.09-1.6,0.1-1.99c0.43-0.39,0.75-0.54,0.85-0.78
	c1.82-4.61,3.67-9.21,5.41-13.85c0.91-2.41,1.85-4.85,2.33-7.37c0.22-1.19-0.63-2.57-1-3.87c-0.63,0.2-1.66,0.26-1.8,0.64
	c-0.41,1.11-0.6,2.35-0.63,3.54c-0.04,1.43,0.17,2.86,0.27,4.25c-3.46,0.64-5.45-0.98-5.93-4.22c-0.32-2.16,0.25-4.1,0.94-6.04
	c0.57-1.61,1.37-3.13,1.95-4.73c0.22-0.61,0.29-1.41,0.1-2.02c-0.54-1.76-1.25-3.46-1.91-5.18c-0.07-0.19-0.2-0.41-0.37-0.51
	c-2.23-1.28-2.46-3.27-1.82-5.44c0.6-2.01,1.49-3.94,2.09-5.95c0.52-1.75,0.79-3.58,1.2-5.36c0.31-1.33,0.81-2.64,0.96-3.98
	c0.09-0.83-0.08-1.91-0.57-2.53c-2.46-3.14-3.36-4.35-0.81-7.42c0.24-0.28,0.35-0.67,0.63-1.22c0.18,0.49,0.3,0.83,0.39,1.08
	c1.97-4.34,6.08-6.17,9.99-8.2c3.1-1.61,6.15-3.37,9.39-4.64c3.27-1.28,4.26-4.52,6.51-6.63c2.76-2.58,4.81-6.1,8.94-6.95
	c0.79-0.16,1.52-0.64,2.24-1.04c3.44-1.9,7.16-3.26,11.02-3.21c2.22,0.02,4.69,1.2,6.58,2.52c3.75,2.63,7.75,5.1,10.18,9.26
	c0.7,1.21,1.79,2.19,2.62,3.34c1.86,2.55,5.01,3.3,7.24,5.31c1.5,1.35,2.88,2.83,4.38,4.18c0.68,0.61,1.53,1.02,2.28,1.55
	c0.45,0.32,1.06,0.6,1.26,1.04c1.7,3.81,4.69,7.05,5.15,11.41c0.05,0.43,0.01,1.03-0.25,1.31c-1.57,1.75-2.95,3.77-5.39,4.46
	c-1.19,0.34-1.32,1.14-1.17,2.17c0.36,2.45,0.58,4.92,2.14,7.01c0.88,1.18,0.66,2.21-0.56,3.11
	C280.74,524.25,279.4,525.39,277.93,526.57z M243.39,520.47c-2.62,0.4-2.86-2.41-4.7-3.3c0.07,1.03,0.15,2.21,0.78,2.75
	c1.06,0.9,2.46,1.41,3.9,0.52c1.01,0.03,2.02,0.06,2.91,0.09c-0.46-0.79-0.85-1.46-1.22-2.07
	C244.52,519.11,243.96,519.79,243.39,520.47z M212.94,554.57c-0.01-0.1-0.03-0.21-0.04-0.31c-1.07-0.13-2.17-0.16-3.21-0.43
	c-1.31-0.34-1.54,0.26-1.54,1.34c0.01,1.81,0.02,3.63-0.08,5.43c-0.2,3.47-0.54,6.93-0.73,10.4c-0.15,2.88-0.09,2.89,2.75,2.3
	c0.1-0.02,0.18-0.11,0.22-0.14c0.01-0.51-0.12-1.3,0.07-1.39c1.86-0.87,0.98-2.28,0.84-3.57c-0.04-0.41,0.09-0.86,0.21-1.27
	c0.21-0.7,0.6-1.36,0.7-2.06c0.21-1.42,0.41-2.86,0.37-4.28c-0.05-1.86,1.27-3.96-1.02-5.5
	C212.09,554.88,212.51,554.73,212.94,554.57z M224.34,583.58c-0.01-3.5-1.75-5.38-4.65-5.46c-0.94-0.03-1.87,0.04-2.81,0.06
	c-3.85,0.08-3.85,0.08-4,3.85c-0.09,2.5,0.1,2.89,2.63,2.73C218.45,584.57,221.36,584,224.34,583.58z M209.96,549.35
	c1.87-0.14,2.45-1.32,2.97-2.55c0.71-1.67,1.33-3.37,2.12-5c0.17-0.36,0.9-0.68,1.32-0.62c0.41,0.06,0.98,0.56,1.08,0.97
	c0.26,1.11,0.25,2.29,0.44,3.42c0.22,1.33,0.55,2.64,0.83,3.95c0.18-0.03,0.37-0.06,0.55-0.09c0.07-0.3,0.24-0.61,0.19-0.88
	c-0.25-1.51-0.67-3-0.8-4.52c-0.24-2.66-1-4.77-3.8-5.86c-1.8-0.7-2.98-0.07-3.21,1.96c-0.26,2.38-0.8,4.73-1.23,7.1
	C210.29,547.9,210.13,548.55,209.96,549.35z M257.07,522.09c3.06,0.28,3.37,0.13,3.99-2.48c0.7-2.99,1.27-6,1.94-9.22
	c-0.58,0.23-0.94,0.38-1.06,0.42c-0.29-0.63-0.53-1.12-0.76-1.62c-0.31,0.45-0.72,0.87-0.9,1.37c-0.25,0.72-0.27,1.52-0.48,2.25
	C258.93,515.87,258.01,518.91,257.07,522.09z M256.16,580.21c-0.6,1.61-0.17,3.19,1.03,3.82c3.82,2.04,7.71,3.05,12.06,1.41
	c1.42-0.53,3.2-0.07,4.81-0.14c0.52-0.02,1.15-0.15,1.5-0.48c0.33-0.3,0.62-1.06,0.46-1.39c-0.21-0.44-0.93-0.97-1.34-0.9
	c-1.32,0.22-2.6,0.68-3.87,1.1c-0.55,0.18-1.04,0.62-1.6,0.74c-3.36,0.77-6.6-0.04-9.83-0.87
	C257.67,583.09,256.32,582.24,256.16,580.21z M230.23,520.48c-1.22-0.94-2.08-7.62-1.2-8.67c-1.84-0.4-1.19-1.68-0.97-2.83
	c-1.06-0.03-2.06-0.06-3.07-0.09c0.83,4.19,1.64,8.23,2.45,12.33C228.32,520.98,229.16,520.76,230.23,520.48z M267.13,484.27
	c0.87-1.7-0.6-2.05-1.09-2.82c-2.43-3.85-5.49-7.13-9.22-9.76c-1.15-0.81-2.3-1.63-3.44-2.44c-0.1,0.14-0.2,0.28-0.3,0.42
	C257.72,474.5,262.37,479.33,267.13,484.27z M259.74,533.65c-0.61-0.92-1.11-1.56-1.49-2.27c-1.05-1.95-1.59-2.04-3.15-0.46
	c-0.46,0.46-0.97,0.88-1.83,1.64c1.45,1.3,2.78,2.48,4.18,3.74C258.45,535.15,259.16,534.32,259.74,533.65z M204.16,499.64
	c5.57-1.81,11.14-2.09,17.02-0.04C217.89,495.63,208.45,495.78,204.16,499.64z M231.66,534.83c-0.6-1.04-1.39-2.44-2.36-4.12
	c-1.33,1.56-2.37,2.79-3.45,4.06c1.12,0.92,1.99,1.79,3.01,2.41c0.4,0.25,1.34,0.17,1.66-0.14
	C231.04,536.55,231.23,535.73,231.66,534.83z M250.43,538.05c-0.92,0.72-1.71,1.39-2.55,1.99c-1.01,0.72-0.85,1.49-0.05,2.13
	c1.17,0.95,2.43,1.78,3.64,2.66C252.91,542.82,252.63,541.09,250.43,538.05z M237.14,545.08c3.51-2.29,0.53-4.48,0.2-6.71
	c-4.27,2.22-4.4,3.19-0.89,6.16C236.65,544.71,236.87,544.87,237.14,545.08z M254.67,548.08c1.32,0.98,2.49,1.86,3.66,2.73
	c0.04,0.03,0.09,0.1,0.13,0.1c0.34-0.02,0.85,0.08,1-0.11c0.64-0.77,1.18-1.62,1.51-2.1c-0.51-0.51-0.94-0.78-1.13-1.16
	c-1.22-2.42-2.38-2.6-4.19-0.62C255.35,547.25,255.08,547.6,254.67,548.08z M237.21,554.55c-0.7,0.14-3.05,2.33-2.83,3.01
	c0.6,1.89,2.42,2.42,4.07,3.36C238.84,558.53,239.64,556.29,237.21,554.55z M260.83,566.17c-0.88-1.63-1.68-3.1-2.63-4.86
	c-1.12,0.98-2.12,1.84-3.27,2.83c1.58,1.35,2.93,2.51,4.31,3.7C259.97,567.08,260.49,566.53,260.83,566.17z M247.94,556.6
	c1.38,0.89,2.58,1.73,3.86,2.42c0.28,0.15,1.24-0.23,1.26-0.43c0.07-0.77,0.07-1.64-0.23-2.33c-0.42-0.95-1.13-1.76-1.72-2.63
	c-0.63,0.46-1.29,0.87-1.87,1.38C248.84,555.36,248.54,555.84,247.94,556.6z M226.09,550.76c1.2,0.97,2.14,1.9,3.23,2.58
	c0.99,0.62,1.39,0.1,1.63-1.04c0.39-1.85-0.68-2.93-1.78-4.29C228.18,548.9,227.22,549.75,226.09,550.76z M244.69,552.04
	c-0.01-2.12,0.06-4.14-1.68-5.76c-0.61,0.61-1.24,1.21-1.85,1.84c-1.12,1.17-0.96,2.19,0.52,2.89
	C242.61,551.43,243.61,551.68,244.69,552.04z M231.6,562.54c-1.37,1.11-2.32,1.89-3.28,2.67c1.46,2.01,3.41,2.9,5.01,2.04
	C232.8,565.8,232.25,564.31,231.6,562.54z M221.55,556.46c-0.57,0.87-1.79,1.94-1.61,2.65c0.23,0.9,1.61,1.5,2.62,2.33
	c0.54-1.21,0.92-2.03,1.29-2.85c-0.1,0.14-0.19,0.28-0.29,0.42C222.98,558.29,222.42,557.57,221.55,556.46z M278.84,562.42
	c0.42,4.58,0.83,9.16,1.25,13.74c0.21-0.02,0.42-0.05,0.62-0.07C280.67,571.47,280.55,566.86,278.84,562.42z M245.1,562.17
	c-3.34,2.14-3.34,2.14-0.76,4.09c0.34,0.25,0.68,0.5,1.49,1.08C245.54,565.3,245.32,563.74,245.1,562.17z M225.62,551.12
	c-0.41,1.07-0.98,1.8-0.85,2.35c0.32,1.36,2.87,2.28,4.54,1.77C228.17,553.97,227.07,552.74,225.62,551.12z M248.53,486.62
	c-3.18-0.09-6.2-0.18-9.21-0.27C241.52,487.71,247.14,487.75,248.53,486.62z M254.32,564.42c-0.27,0.79-0.69,1.47-0.54,1.64
	c1.21,1.32,2.19,2.97,4.28,3.6C257.83,567.1,255.75,566.28,254.32,564.42z M232.85,526.36c0.47,1.76,1.69,2.39,2.9,2.38
	c0.73-0.01,1.44-1.04,2.21-1.65c-0.4-0.37-0.51-0.58-0.63-0.58C235.91,526.44,234.5,526.41,232.85,526.36z M206.97,521.41
	c-2.5-1.56-4.22-1.17-6.68,1.36C202.59,522.31,204.58,521.9,206.97,521.41z M212.64,585.58c0.01,0.14,0.02,0.27,0.03,0.41
	c3.34-0.06,6.75,0.87,10-0.87C219.32,585.27,215.98,585.42,212.64,585.58z M285.33,532.15c2.47,1.16,2.61,3.68,3.41,6.06
	C289.97,535.22,287.95,531.68,285.33,532.15z M237.49,585.81c1-3.04-2.02-4.01-2.56-6.21C234.22,580.96,235.14,583.15,237.49,585.81
	z M216.14,516.37c1.91-0.82,4-5.25,4.01-7.57C218.83,511.28,217.49,513.82,216.14,516.37z M274.38,520.83
	c-2.15-0.76-7.05,1.01-7.38,2.57C269.41,522.56,271.86,521.71,274.38,520.83z M214.88,515.21c0.14,0.08,0.28,0.15,0.43,0.23
	c1.32-2.66,2.65-5.32,3.97-7.99c-0.26-0.12-0.51-0.24-0.77-0.36C217.3,509.79,216.09,512.5,214.88,515.21z M251.61,560.98
	c-1.34-1.33-2.32-2.35-3.36-3.3c-0.18-0.16-0.8-0.13-0.96,0.05c-0.19,0.22-0.29,0.85-0.13,1
	C248.25,559.82,249.27,561.13,251.61,560.98z M209.19,547.2c0.15,0.02,0.3,0.04,0.46,0.05c0.74-2.31,1.61-4.61,1.52-7.06
	c-0.21-0.04-0.41-0.08-0.62-0.11C210.09,542.46,209.64,544.83,209.19,547.2z M245.34,493.58c-0.69,1.45-1.23,2.52-1.7,3.62
	c-0.21,0.48-0.52,1.13-0.34,1.5c0.19,0.43,0.87,0.64,1.34,0.94C244.87,497.53,245.08,495.75,245.34,493.58z M250.94,528.89
	c-0.11-2.49-0.85-2.96-3.56-2.31C248.81,527.51,249.88,528.2,250.94,528.89z M235.57,546.4c0.19-0.19,0.37-0.37,0.56-0.56
	c-0.99-1.07-1.96-2.15-2.98-3.19c-0.09-0.09-0.63,0.05-0.66,0.16c-0.08,0.33-0.14,0.84,0.04,1.01
	C233.49,544.73,234.54,545.55,235.57,546.4z M265.24,558.1c-0.81-1.56-1.4-2.71-1.99-3.86c-0.18-0.04-0.36-0.09-0.54-0.13
	c-0.22,0.66-0.81,1.71-0.6,1.91C262.92,556.81,264,557.33,265.24,558.1z M254.13,549.14c-0.12,0.16-0.24,0.32-0.35,0.47
	c1.31,0.98,2.62,1.96,3.94,2.95c0.09-0.12,0.18-0.24,0.27-0.36C256.87,550.94,255.98,549.39,254.13,549.14z M263.52,559.69
	c0.13-0.17,0.27-0.35,0.4-0.52c-0.79-0.8-1.57-1.63-2.4-2.39c-0.17-0.16-0.56-0.09-0.85-0.12c0.02,0.33-0.08,0.81,0.1,0.96
	C261.64,558.36,262.59,559.01,263.52,559.69z M263.05,537.44c-0.68,0.69-1.27,1.29-2.14,2.16c1.02,0.36,1.68,0.59,2.38,0.83
	C263.2,539.33,263.13,538.48,263.05,537.44z M240.59,566.09c1.17,0.75,2.11,1.36,3.34,2.15
	C242.78,565.58,242.14,565.13,240.59,566.09z M199.64,550.35c0.77-0.33,1.46-0.46,1.89-0.87c0.38-0.36,0.47-1.04,0.69-1.57
	c-0.18-0.09-0.37-0.19-0.55-0.28C201.08,548.41,200.5,549.19,199.64,550.35z M216.49,542.09c-1.05,0.77-0.9,2.32,0.47,3.78
	C216.8,544.65,216.65,543.42,216.49,542.09z M220.23,528.98c0.18,0.17,0.35,0.34,0.53,0.51c0.97-1.03,1.94-2.06,2.9-3.09
	c-0.14-0.14-0.29-0.28-0.43-0.41C222.22,526.98,221.22,527.98,220.23,528.98z M220.92,530.72c0.16,0.15,0.31,0.3,0.47,0.45
	c1.22-1.27,2.43-2.55,3.65-3.82c0.06,0.07,0.11,0.15,0.17,0.22C223.78,528.62,222.35,529.67,220.92,530.72z M249.13,545.36
	c-0.04,0.03-0.08,0.06-0.13,0.09c-0.94-1.29-1.87-2.58-2.81-3.88c-0.15,0.15-0.29,0.29-0.44,0.44
	C246.88,543.13,248,544.24,249.13,545.36z M214.05,532.99c-0.21-1.09-0.39-2.05-0.59-3.1C212.31,532.67,212.41,533.07,214.05,532.99
	z M242.94,502.04c-0.06,0.19-0.11,0.39-0.17,0.58c1.11,0.24,2.23,0.49,3.34,0.73c0.04-0.19,0.08-0.39,0.12-0.58
	C245.13,502.52,244.04,502.28,242.94,502.04z M255.3,493.48c-0.15,0.04-0.3,0.09-0.44,0.13c0.55,1.39,1.11,2.78,1.66,4.17
	c0.14-0.05,0.28-0.11,0.42-0.16C256.39,496.23,255.84,494.86,255.3,493.48z M224.82,533.96c0.13,0.08,0.26,0.16,0.39,0.24
	c0.9-1.12,1.8-2.24,2.69-3.36c-0.16-0.12-0.31-0.24-0.47-0.36C226.56,531.64,225.69,532.8,224.82,533.96z M218.95,559.67
	c-0.16,0.17-0.31,0.34-0.47,0.5c0.74,0.68,1.49,1.36,2.23,2.03c0.15-0.16,0.3-0.32,0.45-0.48
	C220.42,561.04,219.69,560.36,218.95,559.67z M227.93,566.17c-0.13,0.16-0.26,0.32-0.38,0.48c0.89,0.77,1.79,1.53,2.68,2.3
	c0.15-0.19,0.31-0.37,0.46-0.56C229.77,567.66,228.85,566.92,227.93,566.17z"/>
<path class="st0" d="M396.81,273.41c-1.23,1.75-2.43,3.51-3.68,5.25c-2.06,2.86-4.13,5.71-6.23,8.54c-0.66,0.89-0.67,1.59,0.02,2.51
	c1.35,1.81,2.55,3.72,3.82,5.59c1.11,1.63,0.92,2.49-0.85,3.96c0.98,1.31,2,2.59,2.93,3.93c0.28,0.41,0.55,1.37,0.46,1.41
	c-1.76,0.96-0.89,4.28-4.09,3.88c0.06,0.16,0.13,0.31,0.19,0.47c2.93,2.53,5.86,5.05,8.9,7.67c-0.34,0.34-0.56,0.73-0.76,0.73
	c-3.71-0.07-5.96,2.45-8.09,4.85c-1.76,1.99-3.01,4.43-4.59,6.6c-0.34,0.47-1.09,0.85-1.68,0.89c-4.88,0.4-9.79,0.61-14.47,2.27
	c-0.56,0.2-1.11,0.44-1.96,0.77c-0.29-1.96-0.56-3.79-0.87-5.91c-0.52,0.36-1.34,0.65-1.71,1.24c-1.43,2.22-2.72,4.53-4.07,6.81
	c-0.16,0.28-0.35,0.54-0.54,0.83c-1.07-1.25-2.7-1.46-3.81-0.39c1.3,0.39,2.51,0.75,3.72,1.11c-0.02,0.13-0.05,0.25-0.07,0.38
	c-1.6-0.25-3.19-0.5-5.02-0.79c0.8-2,1.55-3.87,2.3-5.74c-0.05-0.05-0.1-0.11-0.14-0.16c-1.13,1.39-2.53,2.65-3.34,4.21
	c-1.24,2.37-3.74,2.83-5.4,0.67c-0.23-0.3-0.18-0.95-0.03-1.36c1.17-3.27,2.51-6.46,5.16-8.85c-0.11-0.14-0.18-0.3-0.23-0.29
	c-3.95,0.6-5.53-0.7-5.37-4.68c0.05-1.26,0.63-2.49,0.93-3.75c0.15-0.63,0.34-1.29,0.31-1.93c-0.19-3.53-0.21-3.53,2.22-5.72
	c-0.4-0.01-0.67-0.05-0.93-0.02c-2.02,0.23-3.23-0.35-4.22-2.44c-1.39-2.92-0.06-5.69-0.58-8.31c-1.19-1.24-2.38-2.48-3.62-3.77
	c1.07-3.27,3.8-4.83,6.61-6.38c-0.96-2.08,0.8-2.94,1.81-4.01c1.25-1.34,2.74-2.46,4.3-3.82c-1.35-0.73-2.43-1.35-3.56-1.91
	c-1.37-0.68-2.78-3.11-2.47-4.56c0.09-0.4,0.55-0.8,0.93-1.04c2.49-1.58,5.21-1.58,7.99-1.03c3.93,0.76,3.16,1.37,5.93-2.26
	c2.84-3.74,5.35-7.73,8.24-11.43c1.42-1.81,3.36-3.23,5.12-4.76c0.27-0.23,0.91-0.3,1.26-0.15c5.1,2.25,9.44,5.65,13.62,9.27
	c2.04,1.77,4.14,3.47,6.18,5.24c0.34,0.29,0.54,0.75,0.77,1.16c0.35,0.62,0.67,1.25,1.22,2.27c-0.69,0.82-1.62,1.92-2.56,3.02
	c0.46-0.79,1.07-1.54,1.34-2.4c0.15-0.5-0.25-1.16-0.4-1.76c-0.35,0.16-0.83,0.21-1.03,0.48c-3.65,4.82-7.27,9.67-10.9,14.51
	c-0.74,0.99-0.51,1.75,0.58,2.43c1.7-2.22,3.34-4.41,5.02-6.56C393.16,277.9,395,275.66,396.81,273.41z M366.83,331.49
	c0.51,0.17,0.63,0.26,0.71,0.23c4.88-1.78,9.99-2.2,15.12-2.44c1.1-0.05,1.54-0.71,2.11-1.54c1.67-2.44,3.29-4.97,5.34-7.07
	c1.71-1.76,4-2.95,6.04-4.41c-0.99-1.49-1.37-1.63-3.01-0.53c-3.89,2.61-7.08,5.84-8.63,10.38c-0.36,1.06-0.94,1.47-1.99,1.56
	c-2.81,0.23-5.63,0.41-8.42,0.82c-2.11,0.31-4.19,0.86-6.23,1.47C367.43,330.09,367.2,330.91,366.83,331.49z M386.74,306.31
	c0.79,0.87,1.08,2.06,2.58,1.69c1.45-0.36,1.95-1.22,1.53-2.62c1.86-0.45,1.87-0.45,1.71-1.53
	C390.68,304.65,388.81,305.44,386.74,306.31z M360.04,333.48c2.12-2.81,2.4-6.28,5.25-8.13
	C363.22,325.61,360.8,329.34,360.04,333.48z M353.94,322.38c-2.01-0.06-3.67-0.11-5.32-0.16
	C349.13,324.11,350.78,324.24,353.94,322.38z M351.36,307.29c0.05-0.17,0.1-0.33,0.15-0.5c-1.55-0.15-3.09-0.3-4.82-0.46
	C347.8,307.81,348.21,307.88,351.36,307.29z M391.29,297.49c-0.57-0.46-1.04-0.99-1.17-0.91c-0.58,0.32-1.09,0.79-1.55,1.28
	c-0.05,0.06,0.46,0.81,0.51,0.79C389.76,298.36,390.39,297.99,391.29,297.49z M349.9,275.46c0.3,1.23,2.75,2.63,4.37,2.44
	C352.71,277.03,351.36,276.28,349.9,275.46z"/>
<path class="st0" d="M437.54,145.13c-4.49,6.57-11,9.94-18.55,11.61c-5.36,1.18-10.58,0.67-15.48-1.81
	c-5.95-3-10.26-7.69-12.61-13.9c-2.06-5.46-1.06-10.88,1.53-15.99c1.47-2.89,3.06-5.67,5.7-7.77c6.64-5.27,14.06-7.39,22.44-6.03
	c1.34,0.22,2.64,0.69,4.36,1.15c-0.75,0.16-1.09,0.23-1.42,0.31c-0.02,0.13-0.04,0.26-0.06,0.39c1.34,0.35,2.68,0.7,4.02,1.04
	c0.07-0.17,0.13-0.34,0.2-0.51c4.22,5.56,9.91,10.24,10.75,17.82c0.51,4.6-0.19,9.03-2.47,13.13c-0.37,0.66-0.68,1.35-0.74,2.3
	c0.78-0.57,1.57-1.15,2.35-1.72C437.54,145.15,437.54,145.13,437.54,145.13z M414.38,139.19c2.29,0.01,4.26-0.7,5.39-2.53
	c1.17-1.89-0.15-3.58-1.14-5.15c-0.82-1.29-3.18-2.01-4.41-1.29c-1.22,0.72-2.46,1.52-3.43,2.53c-0.61,0.64-1.22,1.88-1,2.61
	C410.37,137.35,412.88,139.48,414.38,139.19z M430.76,139.64c1.28-4.18,1.27-8.31,0.03-12.41c-0.13-0.42-0.65-0.73-0.99-1.09
	c-0.14,0.48-0.48,0.99-0.39,1.42c0.96,4.47,0.35,8.88-0.29,13.31c-0.06,0.44,0.35,1.19,0.76,1.42c1.61,0.93,2.02-0.35,2.57-1.49
	C431.84,140.38,431.31,140.01,430.76,139.64z M422.04,112.47c-3.67-2.33-12.84-1.14-15.46,1.16
	C411.61,111.64,416.82,112.11,422.04,112.47z M432.05,139.22c0.25,0,0.49,0,0.74,0.01c0.88-4.11,0.94-8.19-0.39-11.86
	C432.28,131.1,432.16,135.16,432.05,139.22z M425.3,135.86c1.14-2.71,0.64-5.56-1.02-6.26c0.23,1.06,0.46,1.99,0.62,2.94
	C425.06,133.49,425.13,134.45,425.3,135.86z M402.8,140.84c1.13-1.21,0.98-2.33-0.5-4.5C401.98,137.92,401.5,139.45,402.8,140.84z"
	/>
<path class="st0" d="M330.77,158.16c-9.85-0.26-16.22-3.19-21.22-9.13c-5.86-6.95-6.57-14.48-3.45-22.87
	c1.72-4.63,4.74-8.07,8.54-10.65c4.89-3.32,10.55-4.51,16.57-3.88c5.56,0.58,10.53,2.45,14.75,6.09c4.06,3.51,6.55,7.98,7.36,13.31
	c1.2,7.93-0.62,14.95-6.68,20.48C341.56,156.14,335.64,158.65,330.77,158.16z M328.87,139.83c2.96,0.01,4.81-1.04,5.62-3.64
	c0.34-1.11,0.48-3.04-0.13-3.52c-1.16-0.91-2.51-2.59-4.51-1.33c-0.53,0.34-1.27,0.36-1.9,0.53c-2.19,0.58-3.07,1.98-2.78,4.37
	C325.5,139.05,326.3,139.82,328.87,139.83z M305.78,137.49c0.22-15.78,9.19-23.11,23.88-25.12c-6.25-0.3-11.84,1.42-16.48,5.58
	C307.4,123.14,305.05,129.76,305.78,137.49z M320.98,130.45c-2.22,1.22-2.59,2.74-1.6,5.56c0.21,0.61,0.08,1.72-0.34,2.09
	c-1.3,1.15-1.37,2.19,0.11,3.48c1.54-1.51,1.52-3.47,1.62-5.41C320.87,134.26,322.14,132.4,320.98,130.45z M342.38,132.22
	c0.39,3.05-2.61,5.69-1.13,8.96C343.82,139.97,344.5,134.57,342.38,132.22z M313.9,139.19c0.49-3.19,0.99-6.48,1.48-9.67
	C312.76,131.49,312.13,135.56,313.9,139.19z M348.53,132.51c0.91,3.97-1.77,7.26-2.15,10.97
	C348.49,140.91,349.51,135.72,348.53,132.51z M345.56,141.1c2.18-3.89,1.92-7.64,1.62-11.54C346.65,133.35,346.14,137,345.56,141.1z
	 M314.76,142.01c-0.1-0.17-0.2-0.34-0.31-0.51c-0.76,0.04-1.52,0.09-2.87,0.17c0.67,0.82,1.06,1.29,1.45,1.77
	C313.6,142.96,314.18,142.48,314.76,142.01z"/>
</svg>
