<?xml version="1.0" encoding="utf-8"?>
<!-- Generator: Adobe Illustrator 23.0.3, SVG Export Plug-In . SVG Version: 6.00 Build 0)  -->
<svg version="1.1" id="Layer_1" xmlns="http://www.w3.org/2000/svg" xmlns:xlink="http://www.w3.org/1999/xlink" x="0px" y="0px"
	 viewBox="0 0 771 679" style="enable-background:new 0 0 771 679;" xml:space="preserve">
<style type="text/css">
	.st0{opacity:0.4;}
</style>
<path class="st0" d="M498.88,517.11c-1.56-11.83-3.13-23.67-4.78-36.16c-1.99-0.35-5.5-0.97-9.9-1.75
	c-1.05-11.27-2.08-22.34-3.31-35.61c7.54,3.2,11.26,4.77,18.76,7.95c-6.21-21.14-9.51-40.55-17.64-57.66
	c-7.33-15.42-19.95-28.34-30.75-43.06c1.66-2.7,3.54-5.75,6.18-10.04c3.44,6.8,6.27,12.37,9.71,19.17c1.01-3.34,1.54-5.11,2.77-9.2
	c2.34,8.48,4.17,15.07,6.89,24.93c4.18-24.32,7.74-45.05,11.77-68.5c-9.59,4.24-17.93,7.92-28.64,12.65
	c3.5-4.33,5.55-6.88,7.61-9.43c-0.58-0.93-1.17-1.86-1.75-2.79c-6.43,4.4-12.87,8.8-20.8,14.22c1.22-3.05,1.95-4.88,3.13-7.81
	c-3.58,0.39-6.68,0.72-9.78,1.06c-0.19-0.7-0.38-1.4-0.58-2.1c7.54-2.97,15.09-5.93,23.55-9.26c-0.24-3.2-0.48-6.48-0.79-10.65
	c14.1,14.39,21.15,15.35,31.02,4.64c1.87-2.03,4.01-4.93,3.99-7.4c-0.27-30.6,2.17-61.84-19.31-87.85
	c-13.98-16.94-18.88-17.32-35.69-2.16c-4.03-1.85-7.99-3.67-8.71-4c-7.55-9.78-13.48-17.47-19.06-24.69
	c20.25-5.6,40.74-11.26,62.36-17.24c0.02-12.23,2.13-24.49-6.89-36.94c-11.26-15.56-19.45-33.34-26.86-46.45
	c9.84,6.78,23.59,16.25,37.92,26.12c4.58-17.78-16.66-30.49-2.72-46.8c1.1,7.1,2.15,13.88,3.65,23.53
	c6.35-12.18,10.81-20.73,16.07-30.82c12.8,13.69-3.51,18.2-3.43,27.32c2.4,2.53,5.44,5.75,7.25,7.65
	c-4.83,8.97-9.11,16.9-13.38,24.84c1.54,0.04,3.08,0.08,4.62,0.12c4.02,4.99,9.1,9.47,11.79,15.1c2.85,5.98-0.33,11.73-7.43,10.49
	c-14.84-2.59-14.29,6.97-14.44,16.43c-0.05,3.27,0.29,6.55,0.58,12.41c13.1-0.6,25.63-2.23,38-1.41c9.83,0.65,19.75,3.52,29.08,6.92
	c5.54,2.02,3.1,12.75-3.55,15.52c-3.36,1.4-7.21,1.63-12.92,2.83c3.54,1.98,5.65,3.16,10.86,6.06c-3.43,1.96-5.91,4.58-8.42,4.61
	c-13.16,0.19-13.64,10.58-14.55,18.99c-2.02,18.52-2.58,37.19-3.87,55.79c-1.12,16.14-1.85,32.34-3.87,48.38
	c-1.04,8.31-0.54,10.77,9.15,10c9.38-0.74,18.56,3.81,21.72,14.25c2.7,8.91,0.66,15.95-9.14,19.99
	c-5.93,2.45-11.91,6.04-16.23,10.66c-2.61,2.79-4.05,9.3-2.64,12.78c9.91,24.54,20.97,48.62,31.03,73.11
	c3.03,7.38,4.06,15.59,6.69,26.15c7.91-6.35,13.83-11.11,19.88-15.96c3.47,4.03,7.32,8.5,12.11,14.06
	c-2.19,16.74-6.98,21.03-23.47,19.44c0.99,19.41,0.2,39.17,3.73,58.12c1.68,9.03,9.89,19.51,18.07,24.11
	c15.21,8.54,16.84,23.39,24.55,36.66c-159.06,10.67-316.39,7.19-473.66,2.91c-2.39-18.68-2.39-18.66,14.04-22.27
	c6.91-1.52,13.8-3.15,18.85-4.31c-2.04-4.66-4.13-9.44-6.23-14.22c7.76-1.34,6.79-19.93,21.77-8.34c2.04-8.46,4.71-15.47,5.27-22.66
	c1.38-17.56,2.76-19.48,21.87-20.29c-10.53-9.69-19.77-18.19-30.79-28.33c-3.35,1.6-9.36,4.48-15.44,7.39
	c-6.94-17.61-0.5-34.93,14.15-40.63c8.54-3.32,12.19-0.27,12.12,8.91c-0.08,9.39-0.12,19,1.89,28.06c0.79,3.57,7.19,5.9,10.88,8.69
	c0.94-13.53,1.69-24.26,2.48-35.56c16.79,5.25,17.14,6.26,11.93,28.39c12.17-8.88,15.9-25.16,9.79-38.07
	c-6.46-13.67-11.92-27.82-15.39-42.67c5.4,21.14,24.76,37.76,21.57,61.55c-1.11,8.32-5.76,16.16-8.76,24.24
	c-1.94,5.22-3.81,10.47-5.9,16.23c25.94,1.8,15,21.21,20.6,33.56c6.73-42.47,13.46-84.93,20.04-126.41
	c-2.53-1.35-5.53-2.73-8.28-4.51c-2.24-1.45-3.95-4.41-6.28-4.9c-7.12-1.52-9.11-5.28-8.79-12.43c0.79-17.25,6.98-22.45,23.5-18.52
	c3.59,0.85,7.23,1.48,13.77,2.79c1.86-11.23,7.4-23.22,4.35-32.35c-2.91-8.7-14.77-14.41-24.48-23.02c5.84-1.71,8.01-2.34,7.61-2.22
	c-7.08-7.87-14.96-16.63-22.84-25.39c0.67-1.08,1.35-2.16,2.02-3.25c8.86,4.65,17.72,9.29,27.65,14.49
	c0.26-4.23,1.26-7.01,0.42-9.04c-9.39-22.81-6.14-46.22-5.62-69.92c0.3-13.73-7.41-27.63-11.6-41.73
	c-13.01,3.64-24.06,6.73-33.48,9.36c-3.52-5.23-6.14-9.13-9.12-13.56c6.88-28.12,30.92-27.57,54.49-26.75c0-6.21,0-11.11,0-17.54
	c-8.48,2.79-16.11,5.31-25.65,8.46c-0.53-14.71,8.56-21.23,17.48-27.29c3.59-2.44,8.68-2.59,12.97-4.13
	c7.8-2.8,16.19-4.75,16.43-15.96c0.06-2.89,3.67-5.71,6.09-9.19c6.56,5.88,12.07,10.8,17.57,15.73c-0.32,0.55-0.64,1.1-0.97,1.65
	c-5.15-3.1-10.29-6.2-14.42-8.68c-8.61,17.49-16.9,34.31-25.18,51.14c0.76,1.25,1.53,2.5,2.29,3.75
	c33.76-13.1,66.31-6.93,100.42,4.11c-8.77,10.97-17.12,21.4-25.84,32.3c-3.69-3.05-5.58-4.56-7.42-6.14
	c-9.74-8.37-17.88-7.39-27.06,1.35c-26.67,25.39-24.41,57.85-21.45,89.87c0.51,5.54,9.82,12.9,16.26,14.46
	c5.27,1.27,12.32-4.87,18.33-7.6c-0.02,0.23-0.22,2.87-0.44,5.77c8.64-0.7,17.26-1.39,25.88-2.08c0.19,0.8,0.38,1.61,0.57,2.41
	c-5.46,1.48-10.91,2.96-17.4,4.73c2.48,4.42,4.82,8.61,8.74,15.61c-8.4-6.16-14.51-10.63-20.62-15.1c-0.46,0.73-0.91,1.47-1.37,2.2
	c3.57,4.3,7.14,8.6,10.7,12.9c-0.28,0.42-0.56,0.84-0.85,1.27c-10.29-5.67-20.57-11.33-32.23-17.75
	c4.57,22.73,8.65,42.98,13.27,65.94c2.41-9.79,4.28-17.38,6.6-26.77c2.05,3.34,3.31,5.4,4.86,7.92c1.75-4.5,3.35-8.64,5.17-13.34
	c3.55,2.48,6.47,4.53,10.07,7.06c-6.82,4.88-14.89,9.17-10.39,20.37c0.79,1.97-3.92,7.27-7.14,9.54
	c-17.12,12.07-18.02,31.88-23.83,49.22c-2.43,7.25-2.53,15.28-3.85,24.01c5-2.09,8.72-3.64,15.03-6.28c0,11.98,0.69,22.64-0.5,33.08
	c-0.28,2.48-6.84,4.25-11.29,6.79c1.76,2.98,4.23,7.16,6.89,11.66c-8.54,17.62-17.41,35.94-26.32,54.33
	c14.05,9.01,9.63-6.88,15.94-7.22c11.16,3.23,9.04,12.01,7.85,20.83c-1.78,13.2,0.92,16.53,13.85,17.87
	c7.8,0.81,15.65,1.18,20.75-0.94c4.87-9.54,9.73-19.08,15.71-30.79c6.27,4.76,11.58,8.79,16.23,12.33
	c2.13-4.71,3.29-12.83,7.59-15.17c4.18-2.27,11.58,1.38,17.57,2.43c-0.12,1.72-0.24,3.45-0.36,5.17c-4.78,0.24-9.56,0.48-13.73,0.7
	c0.61,10.8,1.26,22.16,2.04,35.86c11.7,0,26.35,0,39.16,0c0-13.89,0-25.39,0-37.26c-3.06,0.23-8.05,0.6-14.86,1.1
	c4.77-9.14,11.4-12.72,17.87-8.61c4.58,2.9,6.22,10.44,8.8,15.2c3.18-2.91,8.5-7.79,16.31-14.93c0.7,14.83,20.68,17.78,10.01,34.23
	c9.61-0.73,17.72-1.29,25.81-1.98c14.72-1.25,17.59-5.32,14.67-20.36c-1.41-7.28-6.55-15.8,6.53-18.85
	c-2.95-6.77-6.11-13-8.38-19.55c-2.19-6.34-3.46-12.99-2.67-20.35c2.85,4.59,5.71,9.18,8.56,13.78c2.86,12.23,5.71,24.46,8.57,36.69
	c1.35,0.2,2.69,0.4,4.04,0.6c1.34-3.27,4.23-6.78,3.76-9.76C513.75,533.24,509.56,523.06,498.88,517.11z M306.95,195.71
	c-0.78-1.38-1.56-2.76-2.35-4.14c-12.01,2.9-24.03,5.8-37.49,9.05c4.53,10.35,8.38,19.14,13.18,30.1
	C290.1,217.85,298.53,206.78,306.95,195.71z M476.59,186.34c-0.44,1.21-0.89,2.43-1.33,3.64c8,11.48,16.01,22.97,25.34,36.36
	c4.65-11.9,8.39-21.48,12.33-31.57C500.42,191.87,488.51,189.1,476.59,186.34z"/>
</svg>
