<?xml version="1.0" encoding="utf-8"?>
<!-- Generator: Adobe Illustrator 23.0.3, SVG Export Plug-In . SVG Version: 6.00 Build 0)  -->
<svg version="1.1" id="Layer_1" xmlns="http://www.w3.org/2000/svg" xmlns:xlink="http://www.w3.org/1999/xlink" x="0px" y="0px"
	 viewBox="0 0 771 679" style="enable-background:new 0 0 771 679;" xml:space="preserve">
<style type="text/css">
	.st0{opacity:0.4;}
</style>
<path class="st0" d="M100.28,496.39c-3.56-12.31-7.62-22.16-9.07-32.37c-2.19-15.43,4.79-27.8,16.68-37.5
	c9.81-8,14.66-17.99,11.77-32.29c-9.29,18.17-20.47,32.84-43.8,27.98c10.53-14.89,4.86-40.39,31.84-45.82
	c-1.84-6.61-3.62-12.81-5.3-19.03c-4.13-15.29,1.92-27.72,15.81-35.61c4.38-2.49,7.11-7.89,11.85-13.42
	c-14.86,2.54-26.54,4.53-38.22,6.52c-0.28-1.39-0.56-2.78-0.85-4.17c3.77-6.02,6.36-13.51,11.6-17.7
	c6.47-5.18,15.45-11.21,22.78-10.56c18.4,1.64,18.27,3.07,22.16-14.22c-9.86,1.7-20.27,3.49-31.45,5.42
	c3.85-19.23,12.45-30,30.57-34.99c6.52-1.8,10.07-14.37,14.8-24.42c-22.15,8.8-32.72-2.59-40.51-19.72
	c15.61-5.16,29.04-25.71,50.11-3.91c6.04-30.47,28.36-25.95,47.59-23.7c-11.98-6.16-23.95-12.32-38.03-19.56
	c14.7-5.56,26-11.23,37.96-13.81c6.44-1.39,17.11,0.12,20.5,4.5c10.15,13.08,22.32,14.97,36.76,12.15
	c-7.95-4.16-18.65-6.5-23.37-13.12c-4.97-6.95-4.22-17.98-5.97-27.26c24.61-2.25,30.88,2.92,35.06,26.4
	c0.57,3.21,6.69,7.77,10.04,7.62c5.69-0.27,11.22-3.8,20-7.18c-18.34-11.74-35.14-22.26-29.34-45.98
	c15.85,11.7,47.45,5.35,42.91,39.72c6.9-1.49,12.84-2.78,16.25-3.51c-6.73-12.56-13.66-25.5-20.59-38.44
	c0.94-1.21,1.88-2.42,2.82-3.63c13.02,4.84,26.03,9.69,37.27,13.87c5.48-9.37,11.39-19.48,18.64-31.88
	c7.66,11.84,13.9,21.51,20.56,31.8c9.37-3.7,22.28-8.8,39.01-15.4c-7.67,17.57-5.6,35.03-26.33,42.15
	c8.73,2.07,14.56,3.45,22.19,5.26c-5.48-34.24,26.03-28.36,42.78-40.11c5,23.37-9.4,34.85-30.28,45.64
	c9.35,3.73,15.04,7.2,21.05,7.92c3.12,0.37,9.13-3.55,9.9-6.54c6.98-26.99,7.21-27.47,33.81-28.53
	c-2.51,29.42-2.51,29.42-27.85,40.11c19.99,4.03,20.46,3.78,34.38-9.62c7.38-7.1,15.48-10.27,25.92-5.47
	c10.32,4.74,21.23,8.18,34.8,13.28c-14.03,7.23-25.99,13.38-38.35,19.75c15.91,3.42,44.13-12.97,45.82,21.84
	c20.51-10.09,20.51-10.09,51.93,6.08c-7.49,15.98-17.26,28.24-39.13,17.62c4,15.7,7.62,26.41,24.06,31.41
	c9.19,2.79,15.28,15.81,22.76,24.22c-0.98,1.69-1.97,3.39-2.95,5.08c-10.58-1.67-21.16-3.34-31.14-4.91
	c4.02,17.02,3.9,15.77,22.26,14.07c7.05-0.65,15.86,4.54,21.86,9.5c5.56,4.6,8.44,12.44,11.51,23.07
	c-11.73-2.07-23.45-4.13-36.93-6.51c2.75,4.35,4.36,9.68,7.92,12.05c20.61,13.69,23.47,20.63,16.38,43.51
	c-1.12,3.61-1.84,7.34-2.99,12.06c26.41,4.9,21.46,30.53,31.91,46.49c-22.04,2.41-36.09-6.91-41.1-30.39
	c-2.03,1.53-4.06,3.06-6.1,4.59c3.31,8.35,4.29,19.49,10.35,24.55c25.65,21.45,27.34,45.31,10.56,73.51
	c23.79,16.3-3.31,22.88-7.54,34.88c5.51,4.77,10.62,9.2,14.59,12.64c-12.45,8.48-23.17,17.36-35.26,23.59
	c-12.42,6.4-26.01,8.57-39.73,1.25c-3.39-1.8-8.49-0.56-12.8-0.42c-6.14,0.2-13.23,2.82-18.19,0.58c-10-4.5-18.64-7.02-27.22,2.7
	c-10.24-10.2-18.91-8.25-29,0.37c-4.36,3.73-13.46,4.83-19.37,3.24c-14.92-4-29.07-6.35-44.93-3.83
	c-19.25,3.07-39.16,3.12-58.75,2.68c-23.38-0.52-46.71-3.82-70.08-4.16c-11.13-0.16-22.25,4.52-33.5,5.49
	c-6.47,0.56-15.01,0.25-19.45-3.46c-10.09-8.41-18.72-11.28-28.64,0.01c-9.55-10.46-18.95-8.04-28.66-1.99
	c-2.3,1.43-6.58,3.1-7.94,2.06c-11.21-8.62-21.34-1.75-32.5,0.16c-14.09,2.42-27.79-0.42-38.88-12.9
	c-5.72-6.44-16.29-8.55-26.65-13.58c5.13-4.81,10.24-9.61,15.33-14.38C106.28,517.8,79.01,512.07,100.28,496.39z M582.03,351.67
	c-3.01-18.94-5.82-36.61-8.87-55.84c-6.23,2.27-11.09,4.04-15.95,5.81c-3.18-27.86-6.71-33.64-30.49-50.53
	c-18.81-13.36-21.88-24.9-10.45-45.11c5.53-9.78,3.57-16.24-5.53-21.33c-13.3-7.43-26.7-14.69-40.15-21.84
	c-2.55-1.35-5.56-1.84-8.35-2.72c5.78,9.62,16.06,16.17,18.79,25.05c2.88,9.37-1.43,20.96-2.81,33.54
	c-8.21-5.03-14.64-9.85-21.77-13.14c-9.62-4.44-13.7-11.41-12.71-21.62c0.6-6.17,1.3-12.35,2.31-18.47
	c2.07-12.46,1.13-13.74-14.25-15.39c12.8,29.99-9.37,38.59-29.93,49.05c1.95-18.94-2.19-38.79,16.74-53.51
	c-10.38-3.36-17.63-5.7-29.01-9.38c16.68,22.25-1.05,32.05-9.46,44.08c-10.1-12.03-25.6-22.91-10.56-44.34
	c-11.35,4.14-18.7,6.82-28.97,10.56c21.46,13.97,15.2,33.99,17.41,52.05c-22.38-9.43-41.27-20.57-30.47-49.82
	c-13.38,1.52-16.02,7.22-13.65,17.31c1.73,7.36,2.88,15.27,2.03,22.67c-0.57,4.92-4.06,10.99-8.13,13.7
	c-8.07,5.39-17.45,8.81-26.79,13.28c-0.83-11.05-4.59-22.75-1.57-32.31c2.63-8.33,12.91-14.25,19.8-21.24
	c-17.91,5.6-33.49,13.53-48.93,21.72c-10.58,5.61-12.02,12.92-5.63,23.54c10.38,17.27,7.51,30.97-9.3,41.98
	c-19.29,12.64-33.29,27.85-31.87,52.17c-6.11-2.04-10.82-3.61-16.55-5.53c-3.11,19.35-5.95,36.97-8.89,55.23
	c-5.77-2.45-12.53-5.32-19.48-8.27c-2.67,17.76-2.04,21.39,8.55,21.65c20.3,0.5,27.81,11.57,28.76,29.9
	c-7.8,1.39-16.43,2.92-25.24,4.49c5.71,8.25,11.16,16.11,16.6,23.97c-17.37,1.13-35.54,17.79-47.77-10.79
	c0.29,18.52,6.91,24.63,20.99,25.18c17.86,0.7,25.93,9.38,25.87,27.3c-0.03,9.47-2.08,18.94-3.1,28.41
	c-0.99,9.21-1.84,18.44-2.86,28.76c20.02,0,37.44,0,58.1,0c-24.24-16.53-34.36-39.77-43.04-64.78
	c22.25,17.22,47.21,17.3,72.81,15.81c11.84-0.69,19.57-3.23,18.28-17.32c-0.3-3.21,1.91-7.44,4.28-9.97
	c7.2-7.69,4.64-10.41-4.31-13.58c-6.73-2.38-16.77-7.28-17.54-12.27c-1.97-12.61-9.11-16.35-19.36-19.57
	c-7.28-2.29-12.11-6.99-3.43-14.06c-25.21-28.04-25.21-28.04-20.84-38.02c22.45,19.74,49.21,25.73,78.13,25.13
	c8.65-0.18,17.55-5.8,23.5-5.74c13.85,0.13,29.97,3.36,38.53,17.97c9.22,15.73,19.51,24.65,40.3,28.77
	c26.31,5.21,50.11,22.78,65.33,47.93c2.29,3.78,7.15,5.99,10.83,8.93c1.23-1.31,2.46-2.61,3.69-3.92c-2.57-3.7-5.1-7.43-7.72-11.09
	c-23-32.28-46.72-64.07-68.78-96.98c-13.58-20.26-17.07-43.41-10.44-67.39c8.94-32.31,38.28-51.43,66.93-43.8
	c18.37,4.89,25.13,20.1,18.21,37.8c-2.55,6.52-2.76,14.49-2.03,21.6c0.66,6.45,4.34,12.55,6.06,18.97c0.64,2.36,0.41,6.37-1.07,7.52
	c-1.73,1.35-5.92,1.45-7.84,0.22c-3.47-2.21-6.38-5.57-8.94-8.9c-8.14-10.6-16.21-21.27-23.93-32.19
	c-7.38-10.45-15.52-6.68-18.52,1.57c-3.7,10.19-6.65,23.08-3.56,32.78c5.23,16.44,13.53,32.75,23.96,46.53
	c21.9,28.94,46.73,55.65,68.96,84.35c14.66,18.92,24.6,40.08,8.46,66.45c18.7-1.36,35.5-2.58,53.61-3.89
	c0-6.33,0.52-11.53-0.1-16.59c-1.53-12.31-4.61-24.5-5.2-36.82c-0.96-20.3,7.26-29.08,27.58-30c13.96-0.63,18.81-7.85,19.37-22.18
	c-12.82,16.67-24.32,18.24-47.74,7.24c5.53-7.77,10.94-15.37,16.52-23.21c-9.13-1.69-17.67-3.27-26.28-4.86
	c8.3-26.26,8.3-26.26,23.42-28.4c17.41-2.46,18.43-4.03,14.38-22.89C594.49,346,588.1,348.91,582.03,351.67z M346.37,537.23
	c0.1,1.12,0.2,2.25,0.31,3.37c7.04,1.3,16.08,0.31,20.72,4.37c11.45,10,21.95,4.3,33.58,0.44c-3.57-1.68-7.14-3.35-11.5-5.4
	c6.29-1.5,11.49-2.74,16.68-3.99c0-1.51,0-3.02,0.01-4.53c-11.3-0.77-22.61-1.54-33.91-2.31c-0.06-1.29-0.12-2.58-0.18-3.87
	c6.67-1.08,13.34-2.16,21.76-3.53c-19.12-9.17-58.37-5.75-64.76,5.07c10.07,0.68,19.77,1.34,29.48,2c0.01,1.18,0.03,2.35,0.04,3.53
	C354.52,534,350.45,535.61,346.37,537.23z M131.67,436.57c-3.74,18.47-7.5,37.05-11.32,55.89c13.5-14.5,23.32-0.27,33.26,7.85
	c-4.01-13.66-9.85-26.49-11.02-39.74C141.62,449.57,142.25,439.91,131.67,436.57z M609.18,497.98c7.23-7.8,17.45-17.78,30.45-6.1
	c-3.73-18.29-7.51-36.82-11.43-56.03c-2.96,3.64-9.03,7.91-10.32,13.32C613.9,465.77,611.75,482.81,609.18,497.98z M553.45,259.97
	c10.12-6.98,21.59-13.55,16.28-26.22c-6.46-15.41-19.17-26.17-37.41-33.3c8.17,9.54,17.59,16.18,20.37,24.93
	C555.95,235.64,553.45,247.74,553.45,259.97z M225.75,202.47c-0.56-0.81-1.12-1.63-1.68-2.44c-7.67,6.17-15.81,11.85-22.92,18.61
	c-16.95,16.12-16.26,28.52,5.32,40.95c0-11.3-2.51-22.89,0.72-32.57C210.27,217.8,219.32,210.58,225.75,202.47z M638.35,379.46
	c0.43-1.49,0.86-2.98,1.29-4.46c-1.82-2.16-3.24-4.94-5.52-6.4c-18.37-11.8-22.47-26.26-11.38-45.96c2.38-4.24-2.2-12.39-3.57-18.74
	c-3.42,6.5-2.26,12.66-4.36,17.38c-9.72,21.86,0.11,38.57,13.4,54.32C630.24,378.01,634.9,378.23,638.35,379.46z M143.48,305.02
	c-9.97,9.89-10.14,10.68-4.52,22.54c8.45,17.85,7.04,23.75-8.14,36.88c-4.02,3.48-7.41,7.7-11.09,11.58
	c0.64,1.09,1.28,2.18,1.93,3.26c3.07-0.7,6.81-0.52,9.1-2.26c14.62-11.07,21.25-36.61,15.23-53.96
	C144.05,317.55,144.28,311.3,143.48,305.02z M225.69,185.46c-0.71-1.29-1.42-2.58-2.13-3.86c-13.04,5.72-26.08,11.44-40.64,17.83
	c3.37,2.17,8.45,7.29,10.28,6.32C204.44,199.75,214.94,192.37,225.69,185.46z M586.63,245.91c-6.92,15.77,15.74,29.02-3.62,44.84
	c8.22,0,13.37,0,19.02,0C596.57,274.87,591.6,260.39,586.63,245.91z M177.33,291.51c-18.71-16.97,3.25-30.39-1.3-49.21
	c-4.37,10.28-7.82,17.37-10.4,24.75c-2.71,7.76-4.58,15.81-7.03,24.45C163.97,291.51,168.62,291.51,177.33,291.51z M536.92,181.7
	c-0.61,1.35-1.21,2.7-1.82,4.05c10.97,7.25,21.95,14.5,33.55,22.16c3.2-3.87,5.78-7,7.62-9.22
	C562.67,192.82,549.8,187.26,536.92,181.7z M185.6,218.92c-19.69,0.01-21.83,3.35-17.03,26.16
	C174.5,235.97,179.81,227.82,185.6,218.92z M574,218.56c6.28,9.37,11.76,17.55,18.58,27.72C594.86,220.09,594.65,219.78,574,218.56z
	 M131.52,397.85c1.11,0.74,2.22,1.48,3.33,2.22c6.19-3.57,12.38-7.14,19.06-10.98c-0.84-4.27-1.79-9.14-2.75-14.02
	c-1.17-0.43-2.34-0.86-3.52-1.28C142.26,381.8,136.89,389.82,131.52,397.85z M609.99,370.19c-1.98,9.83-2.97,14.79-3.79,18.83
	c6.85,3.95,13.1,7.55,19.34,11.15c1.11-0.75,2.21-1.51,3.32-2.26C623.36,389.84,617.87,381.77,609.99,370.19z M238.07,175.58
	c9.98-5.44,18.13-9.88,28.18-15.36C250.8,155.28,243.32,161.04,238.07,175.58z M522.01,175.74c-5.16-15.43-13.48-19.8-28.8-15.87
	C503.53,165.56,511.59,170,522.01,175.74z"/>
</svg>
