<?xml version="1.0" encoding="utf-8"?>
<!-- Generator: Adobe Illustrator 23.0.3, SVG Export Plug-In . SVG Version: 6.00 Build 0)  -->
<svg version="1.1" id="Layer_1" xmlns="http://www.w3.org/2000/svg" xmlns:xlink="http://www.w3.org/1999/xlink" x="0px" y="0px"
	 viewBox="0 0 771 679" style="enable-background:new 0 0 771 679;" xml:space="preserve">
<style type="text/css">
	.st0{opacity:1; fill:#fff;}
</style>
<g class="st0">
	<path d="M100.5,153.16c2.4-2.8,5.44-5.29,7.05-8.49c2.3-4.57,6.07-2.6,8.75-2.14c2.01,0.35,3.56,3.5,5.22,5.49
		c0.3,0.35,0,1.15,0.17,1.67c0.7,2.16,1.47,4.29,2.22,6.43c0.44-2.16,1.08-4.3,1.27-6.48c0.21-2.45,0.02-4.94,0-7.41l-0.15,0.15
		c1.1,0.84,2.87,1.49,3.17,2.55c0.6,2.14,0.39,4.5,0.61,8.38c2.64-1.3,4.69-2.14,6.56-3.26c6.18-3.72,12.33-7.5,18.44-11.33
		c6.55-4.11,12.99-8.4,19.61-12.39c1.97-1.19,4.4-1.63,6.6-2.46c5.2-1.96,10.39-3.96,15.44-5.88c3.13,8.51,5.83,15.39,8.1,22.42
		c0.49,1.51-0.51,3.55-0.98,5.31c-0.38,1.42-1.45,2.78-1.45,4.17c-0.01,6.85-4.49,11.61-8.16,16.41c-6,7.86-13.39,14.66-19.23,22.62
		c-4.56,6.22-10.31,10.68-16.29,15.15c-0.8,0.6-1.07,1.89-2.04,3.69c14.7,0.07,29.26-2.08,38.88,13.61
		c-6.87,1.21-13.52,2.47-20.19,3.53c-9.17,1.45-18.37,2.74-28.41,4.23c0,4.17-0.77,8.69,0.24,12.77c0.84,3.4,3.36,6.63,5.8,9.35
		c11.78,13.11,27.29,18.15,44.26,19.48c19.85,1.56,39.09-2.83,58.45-6.19c7.87-1.37,15.93-1.64,23.82-2.92
		c9.15-1.49,18.3-3.17,27.29-5.43c24.36-6.11,48.54-12.98,72.98-18.7c11.96-2.8,24.32-4.68,36.58-5.21
		c15.4-0.66,30.12,4.33,43.92,10.62c19.85,9.05,37.91,21.15,52.91,37.24c7.9,8.47,13.37,18.14,13.7,30.31
		c0.17,6.32,1.78,12.6,2.63,18.92c0.14,1.05-0.29,2.17-0.52,3.65c-1.31-0.51-2.23-0.86-4.47-1.73c0.68,7.41,1.54,14.07,1.84,20.75
		c0.43,9.51,1.42,19.15,0.31,28.52c-0.85,7.13,2.84,10.34,7.17,13.8c3.78,3.02,8.08,5.38,11.82,8.43c4.04,3.3,8.91,4.92,13.19,7.36
		c5.99,3.42,11.49,2.44,17.64,3.01c0.47-4.54,1.45-8.13-2.03-12.27c-2.58-3.07-1.39-8.75,2.62-10.85c5.45-2.86,5.92-8.83,9.75-12.63
		c6.24-6.18,16.84-5.08,20.92,2.43c3.21,5.9,5.07,12.25,3.4,18.6c-1.31,4.97-4.69,9.4-7.19,14.04c-0.12,0.23-0.74,0.37-1.06,0.28
		c-8.13-2.22-10.75,5-16.5,9.29c3.02,0.82,5.05,1.36,6.19,1.67c1.67,2.72,3.69,4.73,4.11,7.03c0.54,2.99-0.12,6.21-0.45,9.31
		c-0.06,0.56-1.44,1-1.47,1.54c-0.48,8.34-6.2,15.93-3.78,24.63c1.78,6.39,3.99,12.66,5.92,19.02c1.44,4.74,2.68,9.55,4.11,14.29
		c1.1,3.62,2.36,7.2,3.34,10.17c-3.55,2-6.43,3.42-9.02,5.25c-0.5,0.35,0.15,2.32,0.26,3.55c3.18-0.63,6.47-0.94,9.52-1.95
		c4.41-1.47,8.65-3.45,12.96-5.21c4.88-1.99,9.63-4.43,14.67-5.83c3.95-1.09,8.25-0.9,14.09-1.42c-2.09-3.78-3.9-6.95-5.59-10.18
		c-0.91-1.74-2.08-3.55-2.28-5.42c-0.93-8.82-0.6-17.59,3.72-25.63c5.55-10.32,11.09-20.65,17.17-30.66
		c1.86-3.07,4.54-6.84,11.12-4.7c-2.01,5.66-4.11,11.2-5.93,16.83c-0.93,2.87-1.36,5.9-0.68,8.97c2.36-3.15,4.58-6.44,7.22-9.34
		c0.52-0.58,2.69,0.34,3.76,0.52c-0.72,3.26-1.33,6.05-1.95,8.84c0.46,0.17,0.92,0.34,1.38,0.51c2.34-2.15,4.52-4.5,7.05-6.38
		c2.38-1.76,5.14-3.02,8.71-5.06c0,3.77,0,5.79,0,9.14c4.65-2.78,8.58-5.12,13.61-8.13c-0.32,3.04-0.22,5.37-0.89,7.45
		c-0.67,2.08-2.1,3.91-3.2,5.84c0.39,0.46,0.77,0.91,1.16,1.37c5.23-1.47,10.47-2.94,15.7-4.41c0.33,0.5,0.67,0.99,1,1.49
		c-3.62,4.55-5.2,9.29-2.48,14.03c3.68-1.94,7.07-3.73,10.46-5.52c0.57,0.6,1.14,1.2,1.71,1.81c-1.16,1.66-2.45,3.24-3.45,4.99
		c-5.27,9.17-13.03,15.79-21.69,21.55c-2.67,1.78-5.49,3.65-7.39,6.13c-0.96,1.25-0.68,4.31,0.19,5.94
		c2.58,4.85,6.31,9.14,8.52,14.13c2.5,5.64-0.61,12.25-7.01,17.37c-6.95,5.55-13.59,11.6-21,16.46
		c-6.75,4.43-14.61,7.16-21.52,11.39c-6.45,3.94-13.04,6.01-20.54,7.33c-7.07,1.25-13.39,6.27-20.32,8.91
		c-5.24,2-10.9,2.9-16.39,4.22c-1.83,0.44-3.91,0.24-5.54,1.03c-6.33,3.05-9.8,1.03-10.92-6.06c-0.84-5.33-2.38-10.56-3.6-15.83
		c-0.65-0.08-1.3-0.16-1.95-0.24c-2.8,3.97-5.73,7.85-8.38,11.92c-2.59,3.99-4.52,8.45-7.44,12.15c-2.18,2.76-6.28,3.1-9.23,4.6
		c-6.33,3.2-12.55,2.1-18.84,2.42c-8.43,0.43-15.81-3.22-23.62-5.75c-8.55-2.77-11.55-9.28-14.68-15.99
		c-2.23-4.77,1.6-9.33,4.29-11.83c5.92-5.51,12.97-10.03,20.1-13.97c4.18-2.31,9.52-2.42,14.14-4.07c4.47-1.6,8.64-4.04,13.03-5.89
		c3.77-1.58,7.68-2.83,11.5-4.28c1.32-0.5,2.74-0.93,3.85-1.76c2.74-2.03,5.07-3.07,7.02,0.96c0.32,0.67,1.77,0.79,2.78,1.19
		c1.8-12.47,0.92-17.9-13.69-21.2c-5.84-1.32-8.72-11.78-4.91-17.27c0.71-1.03,1.36-2.19,1.69-3.38c1.13-4.06,2.16-8.15,3.12-12.25
		c0.25-1.09,0.24-2.31,0.07-3.42c-0.94-6.32-1.63-12.71-3.14-18.89c-0.49-2-2.93-3.97-4.96-5.05c-5.03-2.67-8.55-6.49-11.44-11.33
		c-1.2-2.01-4.4-2.79-5.74-4.77c-2.35-3.46-3.98-7.41-6.81-12.91c-0.28,5.11-0.99,8.76-0.56,12.27c0.7,5.72-2.58,12.27,3.22,17.11
		c0.37,0.31-0.36,1.95-0.59,2.97c-1.87-0.6-4.2-0.73-5.47-1.96c-0.96-0.92-0.77-3.25-0.75-4.94c0.24-25,0.3-50.01,0.9-75
		c0.4-16.74,1.5-33.48,2.46-50.2c0.64-11.2-2.85-20.51-9.14-30.05c-7.44-11.29-16.76-20.33-27.12-28.24
		c-10.51-8.02-22.23-14.18-34.73-19.25c-21.33-8.65-42.83-9.85-64.8-4.84c-8.54,1.95-16.6,5.92-24.97,8.73
		c-4.62,1.55-9.48,2.4-14.12,3.93c-5.74,1.89-11.32,4.24-17.03,6.23c-3.74,1.3-7.52,2.59-11.38,3.41
		c-7.19,1.51-14.44,2.77-21.69,3.96c-8.59,1.41-17.69,1.38-25.68,4.35c-6.22,2.31-12.11,1.97-18.19,2.57
		c-10.66,1.05-21.3,2.56-31.98,3.07c-10.86,0.52-21.78,0.33-32.66-0.06c-7.06-0.25-13.45-3.2-20.05-5.76
		c-6.81-2.64-12.34-6.43-17.24-11.41c-3.24-3.3-5.91-7.15-8.86-10.74c-2.48-3.02-4.51-6.82-7.66-8.77
		c-2.33-1.44-6.15-0.47-9.31-0.58c0.16-1.09-0.02-2.86,0.55-3.16c5.27-2.7,2.85-6.15,1.75-9.41c-3.72,2.08-7.33,3.57-10.29,5.9
		c-2.83,2.23-8.18,3.6-4.84,9.78c1.75-0.2,3.8-0.21,5.72-0.71c2.49-0.66,4.87-1.71,7.3-2.6c-1.3,2.19-2.08,5.22-4,6.39
		c-4.78,2.93-10.11,4.95-15.15,7.47c-3.45,1.73-6.78,3.68-11.22,6.11c-2.6-15.29,9.58-22.37,16.33-33.11
		c-2.02-0.09-4.37-0.96-5.72-0.15c-9.73,5.85-20.26,2.65-30.31,2.38c-3.91-0.1-7.85-4.49-11.51-7.27
		c-3.94-2.99-7.99-6.02-11.24-9.69c-4.84-5.47-9.63-11.16-13.29-17.43c-2.92-5-4.15-10.99-6.04-16.58
		c-0.28-0.83-0.04-1.84-0.04-4.27c9.71-2.08,19.94-2.88,29.03-6.53c13.86-5.57,28.1-0.51,41.84-3.59c-1.11-3.09-2.23-6.19-3.34-9.29
		C100.63,153.03,100.5,153.16,100.5,153.16z M559.24,436.89c-0.92-4.18-0.57-8.14-2.36-9.84c-10.91-10.38-22.3-20.24-33.86-30.56
		c-2.32,6.45-1.51,11.65,3.25,16.03c0.75,0.69,2.1,1.34,2.16,2.09c0.42,5.91,4.33,9.92,7.78,13.98c2.69,3.16,5.87,6.56,9.56,8.01
		C549.21,437.96,553.6,436.89,559.24,436.89z M115.99,160.63c3.79,11.7,2.46,23.89,8.28,35c5.31,10.15,4.38,23.28,13.47,32.34
		c0.68-4.15,1.36-8.32,0.54-12.17c-1.78-8.34-4.33-16.52-6.55-24.78c-0.15-0.55-0.06-1.19-0.3-1.68
		c-3.53-7.12-5.65-14.58-6.57-22.51C124.21,161.22,120.46,159.1,115.99,160.63z M81.22,204.07c-8.96-6.49-16.25-11.8-23.58-17.06
		c-2.22-1.59-4.56-3.01-6.84-4.51c-0.51,0.64-1.03,1.29-1.54,1.93c1.3,10.56,10.8,14.09,18.31,18.72
		C70.65,205.05,75.66,203.81,81.22,204.07z M155.64,165.82c6.14,1.77,8.39-2,10.46-5.36c2.92-4.75,4.6-10.52,8.29-14.46
		c3.63-3.87,2.11-6.67,1.09-11.26C168.63,145.48,162.38,155.27,155.64,165.82z M178.24,165.92c2.81-3.75,4.77-7.01,7.35-9.68
		c5.32-5.51,5.83-12.12,5.07-19.11c-0.07-0.69-1-1.69-1.65-1.78c-0.54-0.08-1.47,0.84-1.83,1.52c-3.37,6.45-6.76,12.9-9.92,19.46
		c-1.44,2.97-2.38,6.19-3.65,9.59C175.57,165.92,177.24,165.92,178.24,165.92z M576.13,515.02c-1.69,9.78,5.63,18.48,14.31,15.71
		c-1.47-5.29-2.96-10.62-4.37-15.71C582.13,515.02,579.29,515.02,576.13,515.02z M90.56,192.37c-7.68-5.13-15.32-10.24-23.22-15.52
		c-3.02,6.88,3.68,9.25,6.45,12.79C77.59,194.5,85.09,195.03,90.56,192.37z M149.2,221.17c7.46,0,13.25,0.35,18.95-0.24
		c1.49-0.15,2.67-3.23,4.95-6.22c-7.28,0-13.09-0.32-18.82,0.22C152.86,215.08,151.7,217.99,149.2,221.17z"/>
	<path d="M97.87,141.84c-1.09-1.18-2.79-2.2-3.12-3.56c-0.51-2.16,0.06-4.56-0.14-6.83c-0.22-2.54,1.33-5.85-2.99-6.93
		c-0.71-0.18-0.77-2.96-1.24-5.05c2.58,0,4.59,0,7.36,0c0,7.46,0,14.99-0.01,22.53C97.73,142.01,97.87,141.84,97.87,141.84z"/>
	<path d="M116.8,122.7c-3-2.97-7.79-4.43-5.07-9.72C117.91,112.48,119.28,114.85,116.8,122.7z"/>
	<path d="M125.18,142.24c-4.15-1.44-4.85-6.19-0.15-11.48c0,4.81,0,8.22,0,11.63C125.03,142.39,125.18,142.24,125.18,142.24z"/>
	<path d="M100.63,153.03c-5.39-2.62-1.94-7.43-2.76-11.19c0.01-0.01-0.14,0.17-0.13,0.16c4.83,2.73,3.54,7,2.77,11.15
		C100.5,153.16,100.63,153.03,100.63,153.03z"/>
</g>
</svg>
